<svg xmlns="http://www.w3.org/2000/svg" xmlns:xlink="http://www.w3.org/1999/xlink" width="500" zoomAndPan="magnify" viewBox="0 0 375 187.499995" height="250" preserveAspectRatio="xMidYMid meet" version="1.0"><defs><clipPath id="87fa989534"><path d="M 0.5 0 L 374.5 0 L 374.5 187 L 0.5 187 Z M 0.5 0 " clip-rule="nonzero"/></clipPath><clipPath id="ca73aa540f"><path d="M 0.5 0 L 85 0 L 85 187 L 0.5 187 Z M 0.5 0 " clip-rule="nonzero"/></clipPath><clipPath id="8d912214bd"><path d="M 45 0 L 129.902344 0 L 129.902344 187 L 45 187 Z M 45 0 " clip-rule="nonzero"/></clipPath><clipPath id="21411fc9c4"><path d="M 288 0 L 374.492188 0 L 374.492188 186.949219 L 288 186.949219 Z M 288 0 " clip-rule="nonzero"/></clipPath><clipPath id="8a4e2b676a"><path d="M 272 0 L 360 0 L 360 186.949219 L 272 186.949219 Z M 272 0 " clip-rule="nonzero"/></clipPath><clipPath id="6d887ec7d6"><path d="M 257 0 L 344 0 L 344 186.949219 L 257 186.949219 Z M 257 0 " clip-rule="nonzero"/></clipPath><clipPath id="c8ea7d3235"><path d="M 242.09375 0 L 329 0 L 329 186.949219 L 242.09375 186.949219 Z M 242.09375 0 " clip-rule="nonzero"/></clipPath><clipPath id="4bab67d3bd"><path d="M 109.605469 1 L 259.207031 1 L 259.207031 7 L 109.605469 7 Z M 109.605469 1 " clip-rule="nonzero"/></clipPath></defs><g clip-path="url(#87fa989534)"><path fill="#ffffff" d="M 0.5 0 L 374.5 0 L 374.5 187 L 0.5 187 Z M 0.5 0 " fill-opacity="1" fill-rule="nonzero"/><path fill="#ffffff" d="M 0.5 0 L 374.5 0 L 374.5 187 L 0.5 187 Z M 0.5 0 " fill-opacity="1" fill-rule="nonzero"/></g><g clip-path="url(#ca73aa540f)"><path fill="#006434" d="M 75.347656 186.898438 L 75.308594 138.445312 C 75.3125 135.660156 74.234375 133.054688 72.277344 131.09375 C 70.320312 129.128906 67.714844 128.050781 64.941406 128.050781 L 62.640625 128.050781 C 46.066406 128.050781 30.476562 121.601562 18.742188 109.890625 C 7.011719 98.183594 0.53125 82.605469 0.5 66.03125 L 0.5 0.0898438 L 9.839844 0.0898438 L 9.839844 66.023438 C 9.894531 95.070312 33.582031 118.710938 62.640625 118.710938 L 64.941406 118.710938 C 70.210938 118.710938 75.164062 120.765625 78.886719 124.492188 C 82.609375 128.222656 84.65625 133.179688 84.648438 138.449219 L 84.6875 186.890625 Z M 75.347656 186.898438 " fill-opacity="1" fill-rule="nonzero"/></g><path fill="#c0c0c0" d="M 90.589844 186.914062 L 90.386719 138.234375 C 90.335938 124.378906 79.023438 113.105469 65.167969 113.105469 L 64.191406 113.105469 C 37.378906 113.105469 15.519531 91.292969 15.464844 64.480469 L 15.460938 0.0898438 L 24.800781 0.0898438 L 24.804688 64.46875 C 24.851562 86.132812 42.519531 103.765625 64.191406 103.765625 L 65.167969 103.765625 C 84.15625 103.765625 99.65625 119.210938 99.726562 138.199219 L 99.929688 186.875 Z M 90.589844 186.914062 " fill-opacity="1" fill-rule="nonzero"/><path fill="#e7e7e7" d="M 114.65625 186.894531 L 105.316406 186.890625 L 105.328125 138.484375 C 105.367188 127.710938 101.207031 117.59375 93.617188 109.976562 C 86.023438 102.355469 75.921875 98.160156 65.164062 98.160156 C 46.207031 98.160156 30.730469 82.738281 30.671875 63.777344 L 30.574219 0.09375 L 39.914062 0.0820312 L 40.011719 63.753906 C 40.054688 77.574219 51.339844 88.820312 65.167969 88.820312 C 78.421875 88.820312 90.875 93.992188 100.234375 103.382812 C 109.589844 112.773438 114.71875 125.246094 114.667969 138.5 Z M 114.65625 186.894531 " fill-opacity="1" fill-rule="nonzero"/><g clip-path="url(#8d912214bd)"><path fill="#ff8200" d="M 120.367188 186.898438 L 120.324219 138.4375 C 120.351562 123.683594 114.632812 109.824219 104.21875 99.390625 C 93.808594 88.960938 79.957031 83.214844 65.21875 83.214844 C 54.472656 83.214844 45.695312 74.472656 45.660156 63.726562 L 45.535156 0.0976562 L 54.875 0.078125 L 55 63.699219 C 55.019531 69.308594 59.601562 73.875 65.21875 73.875 C 82.457031 73.875 98.652344 80.59375 110.832031 92.792969 C 123.007812 104.992188 129.699219 121.203125 129.667969 138.441406 L 129.707031 186.890625 Z M 120.367188 186.898438 " fill-opacity="1" fill-rule="nonzero"/></g><g clip-path="url(#21411fc9c4)"><path fill="#006434" d="M 297.828125 186.890625 L 297.867188 137.261719 C 297.863281 134.410156 298.964844 131.742188 300.972656 129.730469 C 302.976562 127.722656 305.644531 126.613281 308.484375 126.613281 L 310.84375 126.613281 C 327.820312 126.613281 343.789062 120.011719 355.804688 108.015625 C 367.820312 96.023438 374.457031 80.070312 374.492188 63.09375 L 374.488281 -4.449219 L 364.921875 -4.449219 L 364.925781 63.082031 C 364.867188 92.835938 340.605469 117.046875 310.84375 117.046875 L 308.484375 117.046875 C 303.085938 117.046875 298.015625 119.152344 294.199219 122.972656 C 290.386719 126.792969 288.292969 131.871094 288.300781 137.265625 L 288.261719 186.882812 Z M 297.828125 186.890625 " fill-opacity="1" fill-rule="nonzero"/></g><g clip-path="url(#8a4e2b676a)"><path fill="#c0c0c0" d="M 282.214844 186.90625 L 282.421875 137.046875 C 282.476562 122.855469 294.0625 111.308594 308.253906 111.308594 L 309.253906 111.308594 C 336.714844 111.308594 359.105469 88.964844 359.164062 61.503906 L 359.167969 -4.449219 L 349.601562 -4.449219 L 349.597656 61.492188 C 349.550781 83.683594 331.453125 101.742188 309.253906 101.742188 L 308.253906 101.742188 C 288.804688 101.742188 272.925781 117.5625 272.855469 137.007812 L 272.648438 186.867188 Z M 282.214844 186.90625 " fill-opacity="1" fill-rule="nonzero"/></g><g clip-path="url(#6d887ec7d6)"><path fill="#e7e7e7" d="M 257.5625 186.886719 L 267.128906 186.882812 L 267.121094 137.300781 C 267.078125 126.269531 271.339844 115.90625 279.117188 108.101562 C 286.890625 100.300781 297.238281 96 308.257812 96 C 327.675781 96 343.523438 80.203125 343.589844 60.785156 L 343.6875 -4.441406 L 334.121094 -4.457031 L 334.019531 60.761719 C 333.972656 74.914062 322.417969 86.433594 308.253906 86.433594 C 294.675781 86.433594 281.921875 91.730469 272.339844 101.351562 C 262.753906 110.96875 257.503906 123.742188 257.550781 137.320312 Z M 257.5625 186.886719 " fill-opacity="1" fill-rule="nonzero"/></g><g clip-path="url(#c8ea7d3235)"><path fill="#ff8200" d="M 251.714844 186.890625 L 251.757812 137.253906 C 251.730469 122.144531 257.589844 107.945312 268.253906 97.261719 C 278.917969 86.578125 293.105469 80.695312 308.203125 80.695312 C 319.210938 80.695312 328.195312 71.738281 328.234375 60.734375 L 328.363281 -4.4375 L 318.796875 -4.457031 L 318.667969 60.707031 C 318.648438 66.449219 313.953125 71.128906 308.203125 71.128906 C 290.546875 71.128906 273.957031 78.007812 261.484375 90.503906 C 249.011719 103 242.160156 119.601562 242.191406 137.257812 L 242.148438 186.882812 Z M 251.714844 186.890625 " fill-opacity="1" fill-rule="nonzero"/></g><g clip-path="url(#4bab67d3bd)"><path fill="#c0c0c0" d="M 257.886719 2.71875 C 233.878906 0.945312 209.1875 2.445312 185.132812 2.71875 C 160.167969 2.71875 135.113281 2.71875 110.285156 3.628906 C 110.125 3.667969 109.992188 3.753906 109.890625 3.886719 C 109.789062 4.015625 109.738281 4.164062 109.738281 4.332031 C 109.738281 4.5 109.789062 4.648438 109.890625 4.777344 C 109.992188 4.910156 110.125 4.996094 110.285156 5.035156 C 134.296875 5.628906 158.351562 5.671875 182.359375 5.808594 C 207.367188 5.808594 233.015625 7.492188 257.886719 5.808594 C 258.089844 5.808594 258.289062 5.769531 258.476562 5.691406 C 258.667969 5.613281 258.835938 5.503906 258.980469 5.355469 C 259.125 5.210938 259.238281 5.042969 259.316406 4.855469 C 259.394531 4.667969 259.433594 4.46875 259.433594 4.265625 C 259.433594 4.058594 259.394531 3.863281 259.316406 3.671875 C 259.238281 3.484375 259.125 3.316406 258.980469 3.171875 C 258.835938 3.027344 258.667969 2.914062 258.476562 2.835938 C 258.289062 2.757812 258.089844 2.71875 257.886719 2.71875 Z M 257.886719 2.71875 " fill-opacity="1" fill-rule="nonzero"/></g><path fill="#c0c0c0" d="M 233.921875 18.269531 C 216.734375 16.722656 198.863281 18.269531 181.632812 18.269531 C 163.441406 18.269531 144.890625 18.496094 126.566406 19.269531 C 126.472656 19.269531 126.390625 19.300781 126.324219 19.371094 C 126.257812 19.4375 126.222656 19.515625 126.222656 19.609375 C 126.222656 19.703125 126.257812 19.785156 126.324219 19.851562 C 126.390625 19.917969 126.472656 19.953125 126.566406 19.953125 C 143.980469 20.679688 161.441406 20.679688 178.855469 20.953125 C 197.210938 21.886719 215.566406 21.886719 233.921875 20.953125 C 234.101562 20.953125 234.273438 20.917969 234.4375 20.851562 C 234.601562 20.78125 234.746094 20.683594 234.871094 20.558594 C 234.996094 20.433594 235.09375 20.289062 235.164062 20.125 C 235.230469 19.960938 235.265625 19.789062 235.265625 19.609375 C 235.265625 19.433594 235.230469 19.261719 235.164062 19.097656 C 235.09375 18.933594 234.996094 18.789062 234.871094 18.660156 C 234.746094 18.535156 234.601562 18.4375 234.4375 18.371094 C 234.273438 18.304688 234.101562 18.269531 233.921875 18.269531 Z M 233.921875 18.269531 " fill-opacity="1" fill-rule="nonzero"/><path fill="#c0c0c0" d="M 212.871094 36.367188 C 202.683594 35.820312 192.363281 36.367188 182.175781 36.367188 C 171.035156 36.367188 159.714844 36.367188 148.664062 37.367188 C 148.550781 37.367188 148.453125 37.40625 148.375 37.488281 C 148.296875 37.566406 148.253906 37.664062 148.253906 37.777344 C 148.253906 37.890625 148.296875 37.984375 148.375 38.066406 C 148.453125 38.144531 148.550781 38.183594 148.664062 38.183594 C 158.804688 39.230469 169.171875 39.09375 179.359375 39.1875 C 190.496094 39.1875 201.773438 39.730469 212.871094 39.1875 C 213.058594 39.1875 213.238281 39.148438 213.410156 39.078125 C 213.582031 39.007812 213.734375 38.90625 213.867188 38.773438 C 214 38.640625 214.101562 38.488281 214.171875 38.316406 C 214.242188 38.144531 214.28125 37.964844 214.28125 37.777344 C 214.28125 37.589844 214.242188 37.410156 214.171875 37.238281 C 214.101562 37.0625 214 36.910156 213.867188 36.78125 C 213.734375 36.648438 213.582031 36.546875 213.410156 36.472656 C 213.238281 36.402344 213.058594 36.367188 212.871094 36.367188 Z M 212.871094 36.367188 " fill-opacity="1" fill-rule="nonzero"/><path fill="#c0c0c0" d="M 193.679688 51.871094 C 185.621094 51.210938 177.585938 51.453125 169.582031 52.601562 C 169.453125 52.636719 169.351562 52.707031 169.273438 52.8125 C 169.191406 52.917969 169.152344 53.035156 169.152344 53.167969 C 169.152344 53.300781 169.191406 53.417969 169.273438 53.523438 C 169.351562 53.628906 169.453125 53.699219 169.582031 53.738281 C 177.585938 54.882812 185.621094 55.125 193.679688 54.464844 C 193.851562 54.464844 194.019531 54.429688 194.175781 54.367188 C 194.335938 54.300781 194.476562 54.207031 194.597656 54.085938 C 194.71875 53.964844 194.8125 53.824219 194.878906 53.664062 C 194.945312 53.503906 194.976562 53.339844 194.976562 53.167969 C 194.976562 52.996094 194.945312 52.832031 194.878906 52.671875 C 194.8125 52.511719 194.71875 52.375 194.597656 52.253906 C 194.476562 52.128906 194.335938 52.035156 194.175781 51.972656 C 194.019531 51.90625 193.851562 51.871094 193.679688 51.871094 Z M 193.679688 51.871094 " fill-opacity="1" fill-rule="nonzero"/><path fill="#c0c0c0" d="M 185.996094 69.289062 L 182.359375 69.289062 C 182.359375 69.289062 181.996094 69.289062 181.859375 69.289062 C 181.335938 69.457031 180.804688 69.59375 180.265625 69.695312 C 180.117188 69.738281 179.996094 69.816406 179.902344 69.941406 C 179.804688 70.0625 179.757812 70.203125 179.757812 70.355469 C 179.757812 70.511719 179.804688 70.648438 179.902344 70.773438 C 179.996094 70.894531 180.117188 70.976562 180.265625 71.015625 C 180.804688 71.117188 181.335938 71.253906 181.859375 71.425781 C 181.859375 71.425781 182.132812 71.425781 182.359375 71.425781 L 186.179688 71.425781 C 186.320312 71.414062 186.453125 71.375 186.578125 71.308594 C 186.707031 71.242188 186.8125 71.15625 186.90625 71.046875 C 186.996094 70.9375 187.0625 70.816406 187.105469 70.679688 C 187.148438 70.546875 187.164062 70.40625 187.152344 70.265625 C 187.140625 70.125 187.101562 69.992188 187.039062 69.863281 C 186.972656 69.738281 186.886719 69.628906 186.777344 69.539062 C 186.667969 69.445312 186.546875 69.378906 186.410156 69.335938 C 186.277344 69.292969 186.136719 69.277344 185.996094 69.289062 Z M 185.996094 69.289062 " fill-opacity="1" fill-rule="nonzero"/></svg>