<svg xmlns="http://www.w3.org/2000/svg" xmlns:xlink="http://www.w3.org/1999/xlink" width="500" zoomAndPan="magnify" viewBox="0 0 375 187.499995" height="250" preserveAspectRatio="xMidYMid meet" version="1.0"><defs><clipPath id="f41c26e54b"><path d="M 0.5 0 L 374.5 0 L 374.5 187 L 0.5 187 Z M 0.5 0 " clip-rule="nonzero"/></clipPath><clipPath id="889f3f4227"><path d="M 45 0 L 129.691406 0 L 129.691406 187 L 45 187 Z M 45 0 " clip-rule="nonzero"/></clipPath><clipPath id="394ee34017"><path d="M 0.5 0 L 85 0 L 85 187 L 0.5 187 Z M 0.5 0 " clip-rule="nonzero"/></clipPath><clipPath id="3439ce7f15"><path d="M 288 0 L 374.492188 0 L 374.492188 186.949219 L 288 186.949219 Z M 288 0 " clip-rule="nonzero"/></clipPath><clipPath id="51c6bb909e"><path d="M 272 0 L 360 0 L 360 186.949219 L 272 186.949219 Z M 272 0 " clip-rule="nonzero"/></clipPath><clipPath id="9a81c46d34"><path d="M 257 0 L 344 0 L 344 186.949219 L 257 186.949219 Z M 257 0 " clip-rule="nonzero"/></clipPath><clipPath id="d314f8cb4f"><path d="M 242.09375 0 L 329 0 L 329 186.949219 L 242.09375 186.949219 Z M 242.09375 0 " clip-rule="nonzero"/></clipPath></defs><g clip-path="url(#f41c26e54b)"><path fill="#ffffff" d="M 0.5 0 L 374.5 0 L 374.5 187 L 0.5 187 Z M 0.5 0 " fill-opacity="1" fill-rule="nonzero"/><path fill="#ffffff" d="M 0.5 0 L 374.5 0 L 374.5 187 L 0.5 187 Z M 0.5 0 " fill-opacity="1" fill-rule="nonzero"/></g><g clip-path="url(#889f3f4227)"><path fill="#006434" d="M 54.84375 0.105469 L 54.886719 48.554688 C 54.878906 51.339844 55.957031 53.945312 57.914062 55.910156 C 59.871094 57.871094 62.476562 58.953125 65.25 58.953125 L 67.550781 58.953125 C 84.125 58.953125 99.714844 65.398438 111.449219 77.109375 C 123.179688 88.816406 129.660156 104.394531 129.691406 120.96875 L 129.691406 186.914062 L 120.351562 186.914062 L 120.351562 120.980469 C 120.296875 91.929688 96.609375 68.292969 67.550781 68.292969 L 65.25 68.292969 C 59.980469 68.292969 55.027344 66.238281 51.304688 62.507812 C 47.582031 58.777344 45.535156 53.820312 45.542969 48.550781 L 45.503906 0.113281 Z M 54.84375 0.105469 " fill-opacity="1" fill-rule="nonzero"/></g><path fill="#c0c0c0" d="M 39.601562 0.0898438 L 39.804688 48.765625 C 39.855469 62.625 51.167969 73.894531 65.023438 73.894531 L 66 73.894531 C 92.8125 73.894531 114.671875 95.710938 114.726562 122.523438 L 114.734375 186.914062 L 105.390625 186.914062 L 105.386719 122.53125 C 105.34375 100.867188 87.671875 83.234375 66 83.234375 L 65.023438 83.234375 C 46.035156 83.234375 30.535156 67.789062 30.464844 48.804688 L 30.261719 0.128906 Z M 39.601562 0.0898438 " fill-opacity="1" fill-rule="nonzero"/><path fill="#e7e7e7" d="M 15.535156 0.105469 L 24.875 0.109375 L 24.863281 48.519531 C 24.824219 59.289062 28.984375 69.40625 36.574219 77.027344 C 44.167969 84.644531 54.269531 88.839844 65.027344 88.839844 C 83.984375 88.839844 99.460938 104.265625 99.523438 123.222656 L 99.617188 186.90625 L 90.277344 186.921875 L 90.179688 123.246094 C 90.136719 109.429688 78.851562 98.179688 65.027344 98.179688 C 51.769531 98.179688 39.316406 93.007812 29.957031 83.617188 C 20.601562 74.226562 15.476562 61.757812 15.523438 48.5 Z M 15.535156 0.105469 " fill-opacity="1" fill-rule="nonzero"/><g clip-path="url(#394ee34017)"><path fill="#ff8200" d="M 9.824219 0.105469 L 9.867188 48.566406 C 9.839844 63.316406 15.558594 77.179688 25.972656 87.609375 C 36.382812 98.039062 50.234375 103.785156 64.972656 103.785156 C 75.71875 103.785156 84.496094 112.527344 84.535156 123.273438 L 84.65625 186.902344 L 75.316406 186.921875 L 75.191406 123.300781 C 75.171875 117.691406 70.589844 113.125 64.972656 113.125 C 47.738281 113.125 31.539062 106.40625 19.359375 94.207031 C 7.183594 82.007812 0.496094 65.796875 0.523438 48.5625 L 0.484375 0.113281 Z M 9.824219 0.105469 " fill-opacity="1" fill-rule="nonzero"/></g><g clip-path="url(#3439ce7f15)"><path fill="#006434" d="M 297.828125 186.890625 L 297.867188 137.261719 C 297.863281 134.410156 298.964844 131.742188 300.972656 129.730469 C 302.976562 127.722656 305.644531 126.613281 308.484375 126.613281 L 310.84375 126.613281 C 327.820312 126.613281 343.789062 120.011719 355.804688 108.015625 C 367.820312 96.023438 374.457031 80.070312 374.492188 63.09375 L 374.488281 -4.449219 L 364.921875 -4.449219 L 364.925781 63.082031 C 364.867188 92.835938 340.605469 117.046875 310.84375 117.046875 L 308.484375 117.046875 C 303.085938 117.046875 298.015625 119.152344 294.199219 122.972656 C 290.386719 126.792969 288.292969 131.871094 288.300781 137.265625 L 288.261719 186.882812 Z M 297.828125 186.890625 " fill-opacity="1" fill-rule="nonzero"/></g><g clip-path="url(#51c6bb909e)"><path fill="#c0c0c0" d="M 282.214844 186.90625 L 282.421875 137.046875 C 282.476562 122.855469 294.0625 111.308594 308.253906 111.308594 L 309.253906 111.308594 C 336.714844 111.308594 359.105469 88.964844 359.164062 61.503906 L 359.167969 -4.449219 L 349.601562 -4.449219 L 349.597656 61.492188 C 349.550781 83.683594 331.453125 101.742188 309.253906 101.742188 L 308.253906 101.742188 C 288.804688 101.742188 272.925781 117.5625 272.855469 137.007812 L 272.648438 186.867188 Z M 282.214844 186.90625 " fill-opacity="1" fill-rule="nonzero"/></g><g clip-path="url(#9a81c46d34)"><path fill="#e7e7e7" d="M 257.5625 186.886719 L 267.128906 186.882812 L 267.121094 137.300781 C 267.078125 126.269531 271.339844 115.90625 279.117188 108.101562 C 286.890625 100.300781 297.238281 96 308.257812 96 C 327.675781 96 343.523438 80.203125 343.589844 60.785156 L 343.6875 -4.441406 L 334.121094 -4.457031 L 334.019531 60.761719 C 333.972656 74.914062 322.417969 86.433594 308.253906 86.433594 C 294.675781 86.433594 281.921875 91.730469 272.339844 101.351562 C 262.753906 110.96875 257.503906 123.742188 257.550781 137.320312 Z M 257.5625 186.886719 " fill-opacity="1" fill-rule="nonzero"/></g><g clip-path="url(#d314f8cb4f)"><path fill="#ff8200" d="M 251.714844 186.890625 L 251.757812 137.253906 C 251.730469 122.144531 257.589844 107.945312 268.253906 97.261719 C 278.917969 86.578125 293.105469 80.695312 308.203125 80.695312 C 319.210938 80.695312 328.195312 71.738281 328.234375 60.734375 L 328.363281 -4.4375 L 318.796875 -4.457031 L 318.667969 60.707031 C 318.648438 66.449219 313.953125 71.128906 308.203125 71.128906 C 290.546875 71.128906 273.957031 78.007812 261.484375 90.503906 C 249.011719 103 242.160156 119.601562 242.191406 137.257812 L 242.148438 186.882812 Z M 251.714844 186.890625 " fill-opacity="1" fill-rule="nonzero"/></g></svg>