<svg xmlns="http://www.w3.org/2000/svg" xmlns:xlink="http://www.w3.org/1999/xlink" width="500" zoomAndPan="magnify" viewBox="0 0 375 187.499995" height="250" preserveAspectRatio="xMidYMid meet" version="1.0"><defs><g/><clipPath id="2b04d25b14"><path d="M 47 82.472656 L 121.625 82.472656 L 121.625 157.273438 L 47 157.273438 Z M 47 82.472656 " clip-rule="nonzero"/></clipPath></defs><g fill="#292929" fill-opacity="1"><g transform="translate(33.129079, 71.662053)"><g><path d="M 32.453125 0.40625 C 30.859375 0.40625 29.582031 0.046875 28.625 -0.671875 C 27.675781 -1.390625 26.84375 -2.488281 26.125 -3.96875 C 25.40625 -5.445312 24.578125 -7.316406 23.640625 -9.578125 C 22.785156 -11.710938 22.066406 -13.507812 21.484375 -14.96875 C 20.898438 -16.425781 20.332031 -17.59375 19.78125 -18.46875 C 19.238281 -19.351562 18.578125 -19.988281 17.796875 -20.375 C 17.023438 -20.757812 15.992188 -20.953125 14.703125 -20.953125 L 11.265625 -20.953125 L 11.265625 -7.40625 C 11.265625 -5.3125 11.410156 -3.765625 11.703125 -2.765625 C 11.992188 -1.773438 12.625 -1.125 13.59375 -0.8125 L 13.59375 0 L 2.75 0 L 2.75 -0.8125 C 3.71875 -1.125 4.347656 -1.773438 4.640625 -2.765625 C 4.929688 -3.765625 5.078125 -5.3125 5.078125 -7.40625 L 5.078125 -33.453125 C 5.078125 -35.546875 4.929688 -37.085938 4.640625 -38.078125 C 4.347656 -39.078125 3.71875 -39.734375 2.75 -40.046875 L 2.75 -40.859375 L 15 -40.859375 C 18.195312 -40.859375 20.796875 -40.59375 22.796875 -40.0625 C 24.796875 -39.539062 26.34375 -38.84375 27.4375 -37.96875 C 28.53125 -37.09375 29.289062 -36.09375 29.71875 -34.96875 C 30.144531 -33.84375 30.359375 -32.691406 30.359375 -31.515625 C 30.359375 -28.835938 29.421875 -26.5625 27.546875 -24.6875 C 25.679688 -22.820312 22.800781 -21.65625 18.90625 -21.1875 C 20.539062 -20.988281 21.894531 -20.65625 22.96875 -20.1875 C 24.039062 -19.726562 24.957031 -19.0625 25.71875 -18.1875 C 26.476562 -17.3125 27.164062 -16.203125 27.78125 -14.859375 C 28.40625 -13.515625 29.109375 -11.867188 29.890625 -9.921875 C 30.941406 -7.359375 31.757812 -5.410156 32.34375 -4.078125 C 32.925781 -2.753906 33.46875 -1.867188 33.96875 -1.421875 C 34.476562 -0.984375 35.082031 -0.765625 35.78125 -0.765625 C 35.9375 -0.765625 36.082031 -0.765625 36.21875 -0.765625 C 36.351562 -0.765625 36.5 -0.78125 36.65625 -0.8125 L 36.65625 0 C 36 0.15625 35.257812 0.257812 34.4375 0.3125 C 33.625 0.375 32.960938 0.40625 32.453125 0.40625 Z M 11.265625 -21.890625 L 15 -21.890625 C 17.21875 -21.890625 19 -22.257812 20.34375 -23 C 21.6875 -23.738281 22.660156 -24.738281 23.265625 -26 C 23.867188 -27.269531 24.171875 -28.644531 24.171875 -30.125 C 24.171875 -31.71875 23.816406 -33.265625 23.109375 -34.765625 C 22.410156 -36.265625 21.300781 -37.5 19.78125 -38.46875 C 18.269531 -39.4375 16.285156 -39.921875 13.828125 -39.921875 C 13.015625 -39.921875 12.160156 -39.863281 11.265625 -39.75 Z M 11.265625 -21.890625 "/></g></g></g><g fill="#292929" fill-opacity="1"><g transform="translate(69.200394, 71.662053)"><g><path d="M 15.640625 0.578125 C 14.003906 0.578125 12.378906 0.285156 10.765625 -0.296875 C 9.148438 -0.878906 7.660156 -1.753906 6.296875 -2.921875 C 4.941406 -4.085938 3.851562 -5.546875 3.03125 -7.296875 C 2.21875 -9.046875 1.8125 -11.109375 1.8125 -13.484375 C 1.8125 -15.972656 2.25 -18.207031 3.125 -20.1875 C 4 -22.175781 5.175781 -23.867188 6.65625 -25.265625 C 8.132812 -26.671875 9.773438 -27.742188 11.578125 -28.484375 C 13.390625 -29.222656 15.25 -29.59375 17.15625 -29.59375 C 19.800781 -29.59375 22.019531 -29.066406 23.8125 -28.015625 C 25.601562 -26.960938 26.957031 -25.640625 27.875 -24.046875 C 28.789062 -22.453125 29.25 -20.800781 29.25 -19.09375 L 7.125 -19.09375 C 7.082031 -18.78125 7.050781 -18.46875 7.03125 -18.15625 C 7.007812 -17.84375 7 -17.53125 7 -17.21875 C 7 -14.6875 7.492188 -12.425781 8.484375 -10.4375 C 9.484375 -8.457031 10.882812 -6.910156 12.6875 -5.796875 C 14.5 -4.691406 16.632812 -4.140625 19.09375 -4.140625 C 21.269531 -4.140625 23.191406 -4.566406 24.859375 -5.421875 C 26.535156 -6.285156 27.976562 -7.394531 29.1875 -8.75 L 29.71875 -8.171875 C 28.820312 -6.804688 27.710938 -5.453125 26.390625 -4.109375 C 25.066406 -2.765625 23.507812 -1.644531 21.71875 -0.75 C 19.925781 0.132812 17.898438 0.578125 15.640625 0.578125 Z M 7.1875 -19.90625 L 23.34375 -19.90625 C 23.113281 -21.5 22.617188 -22.945312 21.859375 -24.25 C 21.097656 -25.550781 20.160156 -26.59375 19.046875 -27.375 C 17.941406 -28.15625 16.710938 -28.546875 15.359375 -28.546875 C 13.722656 -28.585938 12.335938 -28.195312 11.203125 -27.375 C 10.078125 -26.5625 9.179688 -25.492188 8.515625 -24.171875 C 7.859375 -22.847656 7.414062 -21.425781 7.1875 -19.90625 Z M 7.1875 -19.90625 "/></g></g></g><g fill="#292929" fill-opacity="1"><g transform="translate(100.368813, 71.662053)"><g><path d="M 12.90625 0.46875 C 10.757812 0.46875 8.753906 0.195312 6.890625 -0.34375 C 5.023438 -0.894531 3.523438 -1.539062 2.390625 -2.28125 L 1.8125 -9.921875 L 2.390625 -10.046875 C 3.640625 -7.242188 5.285156 -4.957031 7.328125 -3.1875 C 9.367188 -1.414062 11.691406 -0.507812 14.296875 -0.46875 C 16.128906 -0.425781 17.578125 -0.921875 18.640625 -1.953125 C 19.710938 -2.984375 20.25 -4.160156 20.25 -5.484375 C 20.25 -7.359375 19.539062 -8.757812 18.125 -9.6875 C 16.707031 -10.625 14.734375 -11.484375 12.203125 -12.265625 C 10.179688 -12.878906 8.421875 -13.523438 6.921875 -14.203125 C 5.421875 -14.890625 4.269531 -15.769531 3.46875 -16.84375 C 2.675781 -17.914062 2.28125 -19.328125 2.28125 -21.078125 C 2.28125 -22.554688 2.675781 -23.945312 3.46875 -25.25 C 4.269531 -26.550781 5.503906 -27.597656 7.171875 -28.390625 C 8.847656 -29.191406 11.007812 -29.59375 13.65625 -29.59375 C 15.332031 -29.59375 16.988281 -29.457031 18.625 -29.1875 C 20.257812 -28.914062 21.5625 -28.566406 22.53125 -28.140625 L 22.828125 -21.71875 L 22.125 -21.59375 C 21.15625 -23.65625 19.800781 -25.367188 18.0625 -26.734375 C 16.332031 -28.097656 14.398438 -28.78125 12.265625 -28.78125 C 10.429688 -28.78125 8.957031 -28.347656 7.84375 -27.484375 C 6.738281 -26.628906 6.1875 -25.582031 6.1875 -24.34375 C 6.1875 -22.707031 6.894531 -21.453125 8.3125 -20.578125 C 9.738281 -19.703125 11.753906 -18.816406 14.359375 -17.921875 C 15.910156 -17.410156 17.4375 -16.84375 18.9375 -16.21875 C 20.4375 -15.601562 21.679688 -14.738281 22.671875 -13.625 C 23.671875 -12.519531 24.171875 -10.972656 24.171875 -8.984375 C 24.171875 -7.503906 23.816406 -6.035156 23.109375 -4.578125 C 22.410156 -3.117188 21.242188 -1.910156 19.609375 -0.953125 C 17.972656 -0.00390625 15.738281 0.46875 12.90625 0.46875 Z M 12.90625 0.46875 "/></g></g></g><g fill="#292929" fill-opacity="1"><g transform="translate(126.517598, 71.662053)"><g><path d="M 10.96875 0.578125 C 8.988281 0.578125 7.484375 -0.0976562 6.453125 -1.453125 C 5.421875 -2.816406 4.90625 -5.078125 4.90625 -8.234375 L 4.90625 -28.25 L 1.171875 -28.25 L 1.171875 -29.1875 L 9.921875 -36.890625 L 10.859375 -36.890625 L 10.859375 -29.1875 L 19.90625 -29.1875 L 19.671875 -28.25 L 10.859375 -28.25 L 10.859375 -8.171875 C 10.859375 -6.378906 11.1875 -5.066406 11.84375 -4.234375 C 12.507812 -3.398438 13.484375 -2.984375 14.765625 -2.984375 C 15.429688 -2.984375 16.21875 -3.164062 17.125 -3.53125 C 18.039062 -3.90625 18.988281 -4.691406 19.96875 -5.890625 L 20.546875 -5.3125 C 18.992188 -3.519531 17.445312 -2.085938 15.90625 -1.015625 C 14.363281 0.046875 12.71875 0.578125 10.96875 0.578125 Z M 10.96875 0.578125 "/></g></g></g><g fill="#292929" fill-opacity="1"><g transform="translate(147.296544, 71.662053)"><g><path d="M 23.9375 0 C 22.375 0 21.59375 -0.773438 21.59375 -2.328125 L 21.59375 -11.96875 C 21.050781 -9.707031 20.234375 -7.625 19.140625 -5.71875 C 18.054688 -3.8125 16.710938 -2.285156 15.109375 -1.140625 C 13.515625 0.00390625 11.707031 0.578125 9.6875 0.578125 C 7.550781 0.578125 5.691406 -0.0820312 4.109375 -1.40625 C 2.535156 -2.726562 1.75 -4.613281 1.75 -7.0625 C 1.75 -9.082031 2.359375 -10.722656 3.578125 -11.984375 C 4.804688 -13.253906 6.429688 -14.316406 8.453125 -15.171875 C 10.484375 -16.035156 12.707031 -16.796875 15.125 -17.453125 L 21.59375 -19.328125 C 21.5625 -22.203125 20.832031 -24.25 19.40625 -25.46875 C 17.988281 -26.695312 16.191406 -27.3125 14.015625 -27.3125 C 12.378906 -27.3125 10.757812 -26.929688 9.15625 -26.171875 C 7.5625 -25.421875 6.023438 -24.148438 4.546875 -22.359375 L 3.96875 -22.890625 C 5.601562 -24.910156 7.53125 -26.53125 9.75 -27.75 C 11.96875 -28.976562 14.398438 -29.59375 17.046875 -29.59375 C 20.585938 -29.59375 23.203125 -28.664062 24.890625 -26.8125 C 26.585938 -24.96875 27.4375 -22.257812 27.4375 -18.6875 L 27.4375 -7.40625 C 27.4375 -5.3125 27.582031 -3.765625 27.875 -2.765625 C 28.164062 -1.773438 28.796875 -1.125 29.765625 -0.8125 L 29.765625 0 Z M 7.1875 -9.109375 C 7.1875 -7.203125 7.757812 -5.816406 8.90625 -4.953125 C 10.050781 -4.097656 11.285156 -3.671875 12.609375 -3.671875 C 14.046875 -3.671875 15.316406 -4.109375 16.421875 -4.984375 C 17.535156 -5.859375 18.472656 -6.988281 19.234375 -8.375 C 19.992188 -9.757812 20.578125 -11.207031 20.984375 -12.71875 C 21.390625 -14.238281 21.59375 -15.660156 21.59375 -16.984375 L 21.59375 -18.5 L 15.359375 -16.6875 C 14.648438 -16.5 13.835938 -16.21875 12.921875 -15.84375 C 12.015625 -15.476562 11.125 -15.003906 10.25 -14.421875 C 9.375 -13.835938 8.644531 -13.109375 8.0625 -12.234375 C 7.476562 -11.359375 7.1875 -10.316406 7.1875 -9.109375 Z M 7.1875 -9.109375 "/></g></g></g><g fill="#292929" fill-opacity="1"><g transform="translate(178.231486, 71.662053)"><g><path d="M 12.265625 0.578125 C 9.179688 0.578125 6.945312 -0.351562 5.5625 -2.21875 C 4.1875 -4.082031 3.5 -6.785156 3.5 -10.328125 L 3.5 -20.84375 C 3.5 -22.550781 3.296875 -23.675781 2.890625 -24.21875 C 2.484375 -24.769531 1.910156 -25.203125 1.171875 -25.515625 L 1.171875 -26.328125 L 8.875 -29.71875 L 9.453125 -29.25 L 9.453125 -11.09375 C 9.453125 -7.976562 9.800781 -5.640625 10.5 -4.078125 C 11.207031 -2.523438 12.6875 -1.75 14.9375 -1.75 C 16.257812 -1.75 17.617188 -2.128906 19.015625 -2.890625 C 20.421875 -3.648438 21.847656 -4.75 23.296875 -6.1875 L 23.296875 -20.84375 C 23.296875 -22.550781 23.085938 -23.675781 22.671875 -24.21875 C 22.265625 -24.769531 21.691406 -25.203125 20.953125 -25.515625 L 20.953125 -26.328125 L 28.65625 -29.71875 L 29.25 -29.25 L 29.25 -7.40625 C 29.25 -5.3125 29.394531 -3.765625 29.6875 -2.765625 C 29.976562 -1.773438 30.609375 -1.125 31.578125 -0.8125 L 31.578125 0 L 25.625 0 C 24.070312 0 23.296875 -0.773438 23.296875 -2.328125 L 23.296875 -4.96875 C 21.617188 -3.363281 19.816406 -2.035156 17.890625 -0.984375 C 15.960938 0.0546875 14.085938 0.578125 12.265625 0.578125 Z M 12.265625 0.578125 "/></g></g></g><g fill="#292929" fill-opacity="1"><g transform="translate(211.559518, 71.662053)"><g><path d="M 1.640625 0 L 1.640625 -0.8125 C 2.609375 -1.125 3.238281 -1.773438 3.53125 -2.765625 C 3.820312 -3.765625 3.96875 -5.3125 3.96875 -7.40625 L 3.96875 -20.84375 C 3.96875 -22.550781 3.765625 -23.675781 3.359375 -24.21875 C 2.953125 -24.769531 2.378906 -25.203125 1.640625 -25.515625 L 1.640625 -26.328125 L 9.34375 -29.71875 L 9.921875 -29.25 L 9.921875 -22.1875 C 10.816406 -24.28125 12.238281 -25.988281 14.1875 -27.3125 C 15.269531 -28.09375 16.382812 -28.664062 17.53125 -29.03125 C 18.6875 -29.40625 19.960938 -29.59375 21.359375 -29.59375 C 22.378906 -29.59375 23.253906 -29.457031 23.984375 -29.1875 C 24.722656 -28.914062 25.09375 -28.46875 25.09375 -27.84375 C 25.09375 -27.414062 24.945312 -26.898438 24.65625 -26.296875 C 24.363281 -25.691406 23.925781 -25.164062 23.34375 -24.71875 C 22.757812 -24.269531 22.019531 -24.046875 21.125 -24.046875 C 20.3125 -24.046875 19.3125 -24.191406 18.125 -24.484375 C 16.9375 -24.773438 15.410156 -25.210938 13.546875 -25.796875 C 12.804688 -25.179688 12.035156 -24.269531 11.234375 -23.0625 C 10.441406 -21.851562 10.003906 -20.507812 9.921875 -19.03125 L 9.921875 -7.40625 C 9.921875 -5.3125 10.066406 -3.765625 10.359375 -2.765625 C 10.648438 -1.773438 11.285156 -1.125 12.265625 -0.8125 L 12.265625 0 Z M 1.640625 0 "/></g></g></g><g fill="#292929" fill-opacity="1"><g transform="translate(237.883423, 71.662053)"><g><path d="M 23.9375 0 C 22.375 0 21.59375 -0.773438 21.59375 -2.328125 L 21.59375 -11.96875 C 21.050781 -9.707031 20.234375 -7.625 19.140625 -5.71875 C 18.054688 -3.8125 16.710938 -2.285156 15.109375 -1.140625 C 13.515625 0.00390625 11.707031 0.578125 9.6875 0.578125 C 7.550781 0.578125 5.691406 -0.0820312 4.109375 -1.40625 C 2.535156 -2.726562 1.75 -4.613281 1.75 -7.0625 C 1.75 -9.082031 2.359375 -10.722656 3.578125 -11.984375 C 4.804688 -13.253906 6.429688 -14.316406 8.453125 -15.171875 C 10.484375 -16.035156 12.707031 -16.796875 15.125 -17.453125 L 21.59375 -19.328125 C 21.5625 -22.203125 20.832031 -24.25 19.40625 -25.46875 C 17.988281 -26.695312 16.191406 -27.3125 14.015625 -27.3125 C 12.378906 -27.3125 10.757812 -26.929688 9.15625 -26.171875 C 7.5625 -25.421875 6.023438 -24.148438 4.546875 -22.359375 L 3.96875 -22.890625 C 5.601562 -24.910156 7.53125 -26.53125 9.75 -27.75 C 11.96875 -28.976562 14.398438 -29.59375 17.046875 -29.59375 C 20.585938 -29.59375 23.203125 -28.664062 24.890625 -26.8125 C 26.585938 -24.96875 27.4375 -22.257812 27.4375 -18.6875 L 27.4375 -7.40625 C 27.4375 -5.3125 27.582031 -3.765625 27.875 -2.765625 C 28.164062 -1.773438 28.796875 -1.125 29.765625 -0.8125 L 29.765625 0 Z M 7.1875 -9.109375 C 7.1875 -7.203125 7.757812 -5.816406 8.90625 -4.953125 C 10.050781 -4.097656 11.285156 -3.671875 12.609375 -3.671875 C 14.046875 -3.671875 15.316406 -4.109375 16.421875 -4.984375 C 17.535156 -5.859375 18.472656 -6.988281 19.234375 -8.375 C 19.992188 -9.757812 20.578125 -11.207031 20.984375 -12.71875 C 21.390625 -14.238281 21.59375 -15.660156 21.59375 -16.984375 L 21.59375 -18.5 L 15.359375 -16.6875 C 14.648438 -16.5 13.835938 -16.21875 12.921875 -15.84375 C 12.015625 -15.476562 11.125 -15.003906 10.25 -14.421875 C 9.375 -13.835938 8.644531 -13.109375 8.0625 -12.234375 C 7.476562 -11.359375 7.1875 -10.316406 7.1875 -9.109375 Z M 7.1875 -9.109375 "/></g></g></g><g fill="#292929" fill-opacity="1"><g transform="translate(268.818353, 71.662053)"><g><path d="M 1.640625 0 L 1.640625 -0.8125 C 2.609375 -1.125 3.238281 -1.773438 3.53125 -2.765625 C 3.820312 -3.765625 3.96875 -5.3125 3.96875 -7.40625 L 3.96875 -20.84375 C 3.96875 -22.550781 3.765625 -23.675781 3.359375 -24.21875 C 2.953125 -24.769531 2.378906 -25.203125 1.640625 -25.515625 L 1.640625 -26.328125 L 9.34375 -29.71875 L 9.921875 -29.25 L 9.921875 -24.34375 C 11.515625 -25.664062 13.34375 -26.867188 15.40625 -27.953125 C 17.46875 -29.046875 19.628906 -29.59375 21.890625 -29.59375 C 24.578125 -29.59375 26.742188 -28.84375 28.390625 -27.34375 C 30.046875 -25.84375 30.875 -23.382812 30.875 -19.96875 L 30.875 -7.40625 C 30.875 -5.3125 31.019531 -3.765625 31.3125 -2.765625 C 31.601562 -1.773438 32.238281 -1.125 33.21875 -0.8125 L 33.21875 0 L 22.59375 0 L 22.59375 -0.8125 C 23.5625 -1.125 24.191406 -1.773438 24.484375 -2.765625 C 24.773438 -3.765625 24.921875 -5.3125 24.921875 -7.40625 L 24.921875 -18.90625 C 24.921875 -21.5625 24.363281 -23.617188 23.25 -25.078125 C 22.144531 -26.535156 20.503906 -27.265625 18.328125 -27.265625 C 16.960938 -27.265625 15.617188 -26.929688 14.296875 -26.265625 C 12.972656 -25.609375 11.515625 -24.632812 9.921875 -23.34375 L 9.921875 -7.40625 C 9.921875 -5.3125 10.066406 -3.765625 10.359375 -2.765625 C 10.648438 -1.773438 11.285156 -1.125 12.265625 -0.8125 L 12.265625 0 Z M 1.640625 0 "/></g></g></g><g fill="#292929" fill-opacity="1"><g transform="translate(303.197011, 71.662053)"><g><path d="M 10.96875 0.578125 C 8.988281 0.578125 7.484375 -0.0976562 6.453125 -1.453125 C 5.421875 -2.816406 4.90625 -5.078125 4.90625 -8.234375 L 4.90625 -28.25 L 1.171875 -28.25 L 1.171875 -29.1875 L 9.921875 -36.890625 L 10.859375 -36.890625 L 10.859375 -29.1875 L 19.90625 -29.1875 L 19.671875 -28.25 L 10.859375 -28.25 L 10.859375 -8.171875 C 10.859375 -6.378906 11.1875 -5.066406 11.84375 -4.234375 C 12.507812 -3.398438 13.484375 -2.984375 14.765625 -2.984375 C 15.429688 -2.984375 16.21875 -3.164062 17.125 -3.53125 C 18.039062 -3.90625 18.988281 -4.691406 19.96875 -5.890625 L 20.546875 -5.3125 C 18.992188 -3.519531 17.445312 -2.085938 15.90625 -1.015625 C 14.363281 0.046875 12.71875 0.578125 10.96875 0.578125 Z M 10.96875 0.578125 "/></g></g></g><g fill="#292929" fill-opacity="1"><g transform="translate(146.128689, 140.070121)"><g><path d="M 2.6875 0 L 2.6875 -1.078125 C 3.96875 -1.484375 4.796875 -2.335938 5.171875 -3.640625 C 5.554688 -4.953125 5.75 -6.988281 5.75 -9.75 L 5.75 -36.140625 L 1.296875 -36.140625 L 1.6875 -37.375 L 5.75 -37.375 C 5.90625 -40.1875 6.6875 -42.929688 8.09375 -45.609375 C 9.5 -48.296875 11.363281 -50.710938 13.6875 -52.859375 C 16.019531 -55.015625 18.671875 -56.726562 21.640625 -58 C 24.609375 -59.28125 27.703125 -59.921875 30.921875 -59.921875 C 32.554688 -59.921875 33.875 -59.753906 34.875 -59.421875 C 35.875 -59.097656 36.375 -58.550781 36.375 -57.78125 C 36.375 -57.269531 36.128906 -56.601562 35.640625 -55.78125 C 35.160156 -54.96875 34.492188 -54.238281 33.640625 -53.59375 C 32.796875 -52.957031 31.785156 -52.640625 30.609375 -52.640625 C 28.671875 -52.640625 26.78125 -52.878906 24.9375 -53.359375 C 23.09375 -53.847656 20.96875 -54.554688 18.5625 -55.484375 C 17.851562 -55.117188 17.113281 -54.566406 16.34375 -53.828125 C 15.570312 -53.085938 14.914062 -51.988281 14.375 -50.53125 C 13.84375 -49.070312 13.578125 -47.015625 13.578125 -44.359375 L 13.578125 -37.375 L 23.171875 -37.375 L 22.796875 -36.140625 L 13.578125 -36.140625 L 13.578125 -9.75 C 13.578125 -6.988281 13.769531 -4.953125 14.15625 -3.640625 C 14.539062 -2.335938 15.375 -1.484375 16.65625 -1.078125 L 16.65625 0 Z M 2.6875 0 "/></g></g></g><g fill="#292929" fill-opacity="1"><g transform="translate(170.298324, 140.070121)"><g><path d="M 22.859375 0.765625 C 20.359375 0.765625 17.890625 0.394531 15.453125 -0.34375 C 13.023438 -1.082031 10.828125 -2.234375 8.859375 -3.796875 C 6.890625 -5.359375 5.316406 -7.328125 4.140625 -9.703125 C 2.960938 -12.085938 2.375 -14.914062 2.375 -18.1875 C 2.375 -21.300781 2.9375 -24.125 4.0625 -26.65625 C 5.1875 -29.195312 6.722656 -31.375 8.671875 -33.1875 C 10.617188 -35 12.816406 -36.40625 15.265625 -37.40625 C 17.722656 -38.40625 20.253906 -38.90625 22.859375 -38.90625 C 25.265625 -38.90625 27.65625 -38.546875 30.03125 -37.828125 C 32.414062 -37.109375 34.617188 -35.96875 36.640625 -34.40625 C 38.660156 -32.851562 40.269531 -30.875 41.46875 -28.46875 C 42.675781 -26.0625 43.28125 -23.171875 43.28125 -19.796875 C 43.28125 -16.523438 42.648438 -13.609375 41.390625 -11.046875 C 40.140625 -8.492188 38.503906 -6.347656 36.484375 -4.609375 C 34.460938 -2.867188 32.25 -1.535156 29.84375 -0.609375 C 27.445312 0.304688 25.117188 0.765625 22.859375 0.765625 Z M 10.046875 -23.9375 C 10.046875 -21.6875 10.378906 -19.226562 11.046875 -16.5625 C 11.710938 -13.90625 12.695312 -11.390625 14 -9.015625 C 15.300781 -6.640625 16.925781 -4.695312 18.875 -3.1875 C 20.820312 -1.675781 23.046875 -0.921875 25.546875 -0.921875 C 28.054688 -0.921875 30.039062 -1.554688 31.5 -2.828125 C 32.957031 -4.109375 33.992188 -5.75 34.609375 -7.75 C 35.222656 -9.75 35.53125 -11.820312 35.53125 -13.96875 C 35.53125 -16.425781 35.132812 -19.046875 34.34375 -21.828125 C 33.550781 -24.617188 32.425781 -27.238281 30.96875 -29.6875 C 29.507812 -32.144531 27.753906 -34.101562 25.703125 -35.5625 C 23.660156 -37.019531 21.410156 -37.625 18.953125 -37.375 C 16.753906 -37.164062 15 -36.410156 13.6875 -35.109375 C 12.382812 -33.804688 11.453125 -32.164062 10.890625 -30.1875 C 10.328125 -28.21875 10.046875 -26.132812 10.046875 -23.9375 Z M 10.046875 -23.9375 "/></g></g></g><g fill="#292929" fill-opacity="1"><g transform="translate(216.71937, 140.070121)"><g><path d="M 22.859375 0.765625 C 20.359375 0.765625 17.890625 0.394531 15.453125 -0.34375 C 13.023438 -1.082031 10.828125 -2.234375 8.859375 -3.796875 C 6.890625 -5.359375 5.316406 -7.328125 4.140625 -9.703125 C 2.960938 -12.085938 2.375 -14.914062 2.375 -18.1875 C 2.375 -21.300781 2.9375 -24.125 4.0625 -26.65625 C 5.1875 -29.195312 6.722656 -31.375 8.671875 -33.1875 C 10.617188 -35 12.816406 -36.40625 15.265625 -37.40625 C 17.722656 -38.40625 20.253906 -38.90625 22.859375 -38.90625 C 25.265625 -38.90625 27.65625 -38.546875 30.03125 -37.828125 C 32.414062 -37.109375 34.617188 -35.96875 36.640625 -34.40625 C 38.660156 -32.851562 40.269531 -30.875 41.46875 -28.46875 C 42.675781 -26.0625 43.28125 -23.171875 43.28125 -19.796875 C 43.28125 -16.523438 42.648438 -13.609375 41.390625 -11.046875 C 40.140625 -8.492188 38.503906 -6.347656 36.484375 -4.609375 C 34.460938 -2.867188 32.25 -1.535156 29.84375 -0.609375 C 27.445312 0.304688 25.117188 0.765625 22.859375 0.765625 Z M 10.046875 -23.9375 C 10.046875 -21.6875 10.378906 -19.226562 11.046875 -16.5625 C 11.710938 -13.90625 12.695312 -11.390625 14 -9.015625 C 15.300781 -6.640625 16.925781 -4.695312 18.875 -3.1875 C 20.820312 -1.675781 23.046875 -0.921875 25.546875 -0.921875 C 28.054688 -0.921875 30.039062 -1.554688 31.5 -2.828125 C 32.957031 -4.109375 33.992188 -5.75 34.609375 -7.75 C 35.222656 -9.75 35.53125 -11.820312 35.53125 -13.96875 C 35.53125 -16.425781 35.132812 -19.046875 34.34375 -21.828125 C 33.550781 -24.617188 32.425781 -27.238281 30.96875 -29.6875 C 29.507812 -32.144531 27.753906 -34.101562 25.703125 -35.5625 C 23.660156 -37.019531 21.410156 -37.625 18.953125 -37.375 C 16.753906 -37.164062 15 -36.410156 13.6875 -35.109375 C 12.382812 -33.804688 11.453125 -32.164062 10.890625 -30.1875 C 10.328125 -28.21875 10.046875 -26.132812 10.046875 -23.9375 Z M 10.046875 -23.9375 "/></g></g></g><g fill="#292929" fill-opacity="1"><g transform="translate(263.140415, 140.070121)"><g><path d="M 18.71875 0.921875 C 15.5 0.867188 12.660156 -0.0507812 10.203125 -1.84375 C 7.742188 -3.632812 5.820312 -5.9375 4.4375 -8.75 C 3.0625 -11.5625 2.375 -14.550781 2.375 -17.71875 C 2.375 -21.664062 3.226562 -25.222656 4.9375 -28.390625 C 6.65625 -31.566406 9.113281 -34.097656 12.3125 -35.984375 C 15.507812 -37.878906 19.332031 -38.828125 23.78125 -38.828125 C 25.425781 -38.828125 26.925781 -38.644531 28.28125 -38.28125 C 29.632812 -37.925781 30.875 -37.46875 32 -36.90625 L 32 -50.421875 C 32 -52.671875 31.726562 -54.148438 31.1875 -54.859375 C 30.65625 -55.578125 29.898438 -56.140625 28.921875 -56.546875 L 28.921875 -57.625 L 39.0625 -62.078125 L 39.828125 -61.46875 L 39.828125 -9.75 C 39.828125 -6.988281 40.015625 -4.953125 40.390625 -3.640625 C 40.773438 -2.335938 41.609375 -1.484375 42.890625 -1.078125 L 42.890625 0 L 35.0625 0 C 33.019531 0 32 -1.019531 32 -3.0625 L 32 -6.296875 C 31.03125 -5.171875 29.878906 -4.046875 28.546875 -2.921875 C 27.210938 -1.796875 25.726562 -0.859375 24.09375 -0.109375 C 22.457031 0.628906 20.664062 0.972656 18.71875 0.921875 Z M 9.90625 -23.9375 C 9.90625 -22.09375 10.09375 -20.019531 10.46875 -17.71875 C 10.851562 -15.414062 11.546875 -13.203125 12.546875 -11.078125 C 13.546875 -8.960938 14.925781 -7.203125 16.6875 -5.796875 C 18.457031 -4.390625 20.722656 -3.6875 23.484375 -3.6875 C 25.171875 -3.6875 26.726562 -4.09375 28.15625 -4.90625 C 29.59375 -5.726562 30.875 -6.726562 32 -7.90625 L 32 -24.859375 C 32 -26.753906 31.484375 -28.644531 30.453125 -30.53125 C 29.429688 -32.425781 28.0625 -34.015625 26.34375 -35.296875 C 24.632812 -36.578125 22.707031 -37.21875 20.5625 -37.21875 C 17.75 -37.21875 15.570312 -36.523438 14.03125 -35.140625 C 12.5 -33.765625 11.425781 -32.066406 10.8125 -30.046875 C 10.207031 -28.023438 9.90625 -25.988281 9.90625 -23.9375 Z M 9.90625 -23.9375 "/></g></g></g><g clip-path="url(#2b04d25b14)"><path fill="#000000" d="M 84.25 82.472656 C 105.253906 82.472656 121.238281 99.03125 121.429688 119.246094 C 121.628906 140.144531 105.082031 157.023438 84.4375 157.152344 C 63.980469 157.277344 47.234375 140.652344 47.035156 120.226562 C 46.828125 98.859375 63.773438 82.492188 84.25 82.472656 Z M 119.796875 119.914062 C 119.8125 99.886719 104.234375 84.160156 84.355469 84.140625 C 64.40625 84.121094 48.75 99.742188 48.714844 119.703125 C 48.675781 139.519531 64.472656 155.460938 84.167969 155.476562 C 103.804688 155.496094 119.78125 139.546875 119.796875 119.914062 Z M 119.796875 119.914062 " fill-opacity="1" fill-rule="nonzero"/></g><path fill="#000000" d="M 110.023438 126.550781 C 104.789062 125.582031 101.648438 121.992188 102.050781 115.277344 C 102.332031 115.945312 102.613281 116.617188 102.898438 117.289062 L 103.050781 117.261719 C 102.996094 116.046875 103 114.824219 102.867188 113.617188 C 102.734375 112.410156 102.464844 111.203125 102.347656 109.886719 L 103.9375 112.429688 C 104.226562 111.070312 104.027344 108.578125 102.464844 105.644531 C 102.867188 105.894531 103.257812 106.160156 103.628906 106.449219 C 103.953125 106.730469 104.214844 107.070312 104.582031 107.46875 C 104.484375 105.296875 101.300781 101.074219 98.640625 99.539062 C 100.289062 103.929688 100.558594 108.382812 100.128906 112.90625 C 99.707031 117.371094 98.492188 121.664062 97.175781 125.953125 C 96.355469 124.296875 95.550781 122.683594 94.757812 121.070312 L 94.503906 121.164062 C 94.570312 121.414062 94.648438 121.660156 94.707031 121.910156 C 95.105469 123.652344 95.628906 125.382812 95.871094 127.148438 C 96.15625 129.207031 95.792969 131.1875 94.144531 132.679688 C 92.492188 134.171875 90.488281 134.320312 88.472656 133.742188 C 87.316406 133.410156 86.214844 132.792969 85.175781 132.15625 C 84.316406 131.625 84.511719 130.128906 85.300781 129.53125 C 86.601562 128.550781 87.925781 127.566406 89.058594 126.410156 C 90.5 124.9375 90.277344 123.160156 88.6875 121.863281 C 86.234375 119.855469 81.285156 119.949219 78.902344 122.046875 C 77.628906 123.175781 77.429688 124.699219 78.417969 126.074219 C 79.488281 127.558594 80.917969 128.652344 82.46875 129.585938 C 83.070312 129.949219 83.382812 131.460938 82.863281 131.941406 C 80.0625 134.535156 74.902344 135.210938 72.300781 131.242188 C 71.296875 129.714844 71.332031 127.988281 71.507812 126.257812 C 72.011719 121.238281 74.445312 117.335938 78.382812 114.269531 C 79.96875 113.03125 81.5 111.722656 82.492188 109.902344 C 83.167969 108.652344 83.5 107.316406 83.476562 105.894531 C 83.460938 101.515625 83.476562 97.140625 83.433594 92.769531 C 83.433594 92.089844 83.632812 91.722656 84.253906 91.410156 C 88.25 89.382812 92.15625 89.890625 96.011719 91.769531 C 99.21875 93.335938 101.976562 95.570312 104.695312 97.855469 C 106.5625 99.425781 108.402344 101.042969 110.121094 102.769531 C 112.613281 105.277344 113.007812 108.238281 111.558594 111.433594 C 110.753906 113.210938 109.828125 114.941406 109.035156 116.726562 C 108.144531 118.738281 107.585938 120.820312 108.046875 123.054688 C 108.320312 124.390625 108.984375 125.488281 110.023438 126.550781 Z M 93.042969 112.175781 C 94.949219 112.175781 96.441406 110.90625 96.449219 109.265625 C 96.457031 107.558594 94.890625 106.136719 93.019531 106.144531 C 91.257812 106.152344 89.808594 107.523438 89.796875 109.183594 C 89.785156 110.820312 91.253906 112.171875 93.042969 112.175781 Z M 93.042969 112.175781 " fill-opacity="1" fill-rule="nonzero"/><path fill="#000000" d="M 88.804688 144.945312 C 87.15625 145.605469 85.675781 146.296875 84.136719 146.796875 C 80.792969 147.878906 77.5 147.480469 74.3125 146.152344 C 71.820312 145.097656 69.539062 143.707031 67.464844 141.972656 C 67.257812 141.800781 67.085938 141.601562 66.949219 141.371094 C 74.121094 145.515625 81.140625 145.492188 88.027344 140.742188 C 84.519531 141.796875 81.023438 141.890625 77.511719 140.695312 C 79.019531 140.59375 80.527344 140.664062 81.953125 140.347656 C 83.726562 139.929688 85.449219 139.367188 87.125 138.65625 C 88.363281 138.15625 89.257812 137.164062 89.953125 135.996094 C 90.15625 135.695312 90.4375 135.515625 90.796875 135.460938 C 93.648438 135.277344 95.769531 133.929688 96.765625 131.292969 C 97.894531 128.324219 98.714844 125.238281 99.667969 122.203125 C 99.703125 122.070312 99.765625 121.945312 99.855469 121.835938 C 100.15625 126.171875 102.148438 130.042969 103.132812 134.183594 C 104.027344 137.964844 104.074219 141.679688 102.238281 145.230469 C 101.773438 146.082031 101.238281 146.882812 100.625 147.636719 C 101.3125 145.371094 101.59375 143.109375 101.132812 140.632812 C 100.667969 141.585938 100.328125 142.421875 99.871094 143.195312 C 97.484375 147.300781 93.796875 149.515625 89.214844 150.363281 C 85.507812 151.046875 81.796875 150.996094 78.039062 150.398438 C 82.125 149.558594 85.714844 147.742188 88.804688 144.945312 Z M 88.804688 144.945312 " fill-opacity="1" fill-rule="nonzero"/><path fill="#000000" d="M 66.136719 104.167969 C 66.136719 109.097656 66.3125 113.796875 66.082031 118.480469 C 65.890625 122.429688 63.386719 124.921875 59.894531 126.507812 C 59.855469 126.523438 59.796875 126.492188 59.839844 126.507812 C 60.796875 125.476562 61.847656 124.460938 62.765625 123.332031 C 64.292969 121.453125 64.960938 119.226562 64.964844 116.828125 C 64.976562 113.609375 64.886719 110.386719 65.476562 107.203125 C 65.65625 106.246094 65.890625 105.296875 66.136719 104.167969 Z M 66.136719 104.167969 " fill-opacity="1" fill-rule="nonzero"/><path fill="#000000" d="M 79.210938 135.476562 L 83.835938 133.53125 L 88.425781 135.449219 C 87.824219 136.574219 86.789062 137.34375 85.363281 137.371094 C 84.085938 137.402344 82.8125 137.324219 81.546875 137.128906 C 81.054688 137.042969 80.605469 136.851562 80.195312 136.5625 C 79.785156 136.273438 79.457031 135.914062 79.210938 135.476562 Z M 79.210938 135.476562 " fill-opacity="1" fill-rule="nonzero"/><path fill="#000000" d="M 60.097656 111.292969 L 64.28125 103.019531 L 64.460938 103.113281 C 64.210938 104.136719 63.832031 105.148438 63.734375 106.1875 C 63.496094 108.664062 63.390625 111.152344 63.230469 113.636719 C 63.09375 115.8125 62.40625 117.769531 60.925781 119.414062 C 60.785156 119.574219 60.632812 119.726562 60.476562 119.875 C 60.347656 119.972656 60.214844 120.066406 60.074219 120.152344 C 61.75 116.492188 62.390625 112.78125 62.535156 108.871094 C 61.726562 109.753906 60.972656 110.582031 60.214844 111.414062 Z M 60.097656 111.292969 " fill-opacity="1" fill-rule="nonzero"/><path fill="#000000" d="M 75.460938 110.417969 C 75.246094 109.527344 74.914062 108.90625 74.027344 108.78125 C 73.050781 108.648438 72.59375 109.25 72.253906 110.070312 C 71.863281 108.984375 72.101562 108.246094 72.945312 107.730469 C 73.339844 107.503906 73.765625 107.421875 74.21875 107.476562 C 74.671875 107.535156 75.0625 107.71875 75.390625 108.035156 C 76.046875 108.726562 76.097656 109.414062 75.460938 110.417969 Z M 75.460938 110.417969 " fill-opacity="1" fill-rule="nonzero"/><path fill="#000000" d="M 94.492188 110.210938 C 93.5625 108.277344 92.25 108.46875 91.507812 109.933594 C 91.203125 109 91.507812 108.222656 92.335938 107.777344 C 92.523438 107.679688 92.71875 107.613281 92.925781 107.582031 C 93.132812 107.554688 93.339844 107.558594 93.546875 107.597656 C 93.75 107.640625 93.945312 107.714844 94.125 107.820312 C 94.304688 107.929688 94.460938 108.0625 94.59375 108.226562 C 95.136719 108.890625 95.109375 109.441406 94.492188 110.210938 Z M 94.492188 110.210938 " fill-opacity="1" fill-rule="nonzero"/></svg>