<svg xmlns="http://www.w3.org/2000/svg" xmlns:xlink="http://www.w3.org/1999/xlink" width="320" zoomAndPan="magnify" viewBox="0 0 240 239.999995" height="320" preserveAspectRatio="xMidYMid meet" version="1.0"><rect x="-24" width="288" fill="#ffffff" y="-23.999999" height="287.999994" fill-opacity="1"/><rect x="-24" width="288" fill="#ffffff" y="-23.999999" height="287.999994" fill-opacity="1"/><path fill="#000000" d="M 119.277344 0 C 186.671875 0 237.957031 53.125 238.570312 117.984375 C 239.207031 185.039062 186.117188 239.195312 119.878906 239.605469 C 54.246094 240.015625 0.511719 186.671875 -0.128906 121.136719 C -0.792969 52.578125 53.574219 0.0625 119.277344 0 Z M 233.332031 120.132812 C 233.386719 55.867188 183.402344 5.40625 119.609375 5.347656 C 55.605469 5.285156 5.367188 55.410156 5.253906 119.445312 C 5.128906 183.039062 55.8125 234.175781 119.015625 234.238281 C 182.015625 234.300781 233.277344 183.125 233.332031 120.132812 Z M 233.332031 120.132812 " fill-opacity="1" fill-rule="nonzero"/><path fill="#000000" d="M 201.972656 141.421875 C 185.179688 138.320312 175.105469 126.789062 176.394531 105.246094 C 177.296875 107.394531 178.199219 109.546875 179.105469 111.699219 L 179.597656 111.613281 C 179.421875 107.714844 179.4375 103.796875 179.011719 99.925781 C 178.589844 96.058594 177.726562 92.175781 177.347656 87.953125 L 182.449219 96.117188 C 183.375 91.75 182.738281 83.761719 177.726562 74.347656 C 179.015625 75.140625 180.261719 76.003906 181.460938 76.929688 C 182.496094 77.828125 183.332031 78.917969 184.507812 80.195312 C 184.203125 73.230469 173.984375 59.675781 165.449219 54.75 C 170.746094 68.84375 171.601562 83.132812 170.226562 97.644531 C 168.871094 111.972656 164.976562 125.742188 160.753906 139.503906 C 158.117188 134.195312 155.542969 129.019531 152.992188 123.835938 L 152.179688 124.144531 C 152.394531 124.933594 152.644531 125.726562 152.824219 126.527344 C 154.113281 132.125 155.789062 137.675781 156.566406 143.34375 C 157.476562 149.949219 156.3125 156.304688 151.019531 161.089844 C 145.726562 165.875 139.289062 166.347656 132.832031 164.5 C 129.109375 163.4375 125.585938 161.453125 122.242188 159.40625 C 119.484375 157.707031 120.117188 152.90625 122.652344 150.988281 C 126.824219 147.839844 131.070312 144.683594 134.707031 140.964844 C 139.328125 136.242188 138.609375 130.546875 133.519531 126.382812 C 125.644531 119.9375 109.769531 120.238281 102.121094 126.972656 C 98.035156 130.589844 97.390625 135.484375 100.566406 139.890625 C 104.003906 144.652344 108.589844 148.160156 113.5625 151.164062 C 115.484375 152.324219 116.488281 157.171875 114.824219 158.714844 C 105.835938 167.042969 89.28125 169.214844 80.929688 156.476562 C 77.714844 151.570312 77.824219 146.03125 78.390625 140.480469 C 80.003906 124.382812 87.8125 111.859375 100.449219 102.015625 C 105.535156 98.046875 110.449219 93.84375 113.632812 88.003906 C 115.808594 83.992188 116.863281 79.707031 116.792969 75.140625 C 116.75 61.101562 116.792969 47.066406 116.65625 33.027344 C 116.65625 30.851562 117.292969 29.679688 119.289062 28.667969 C 132.109375 22.164062 144.644531 23.792969 157.011719 29.828125 C 167.304688 34.859375 176.15625 42.027344 184.875 49.347656 C 190.863281 54.394531 196.777344 59.578125 202.28125 65.121094 C 210.289062 73.164062 211.546875 82.667969 206.898438 92.914062 C 204.3125 98.625 201.347656 104.175781 198.804688 109.90625 C 195.945312 116.355469 194.148438 123.035156 195.628906 130.207031 C 196.503906 134.492188 198.636719 138.015625 201.972656 141.421875 Z M 147.496094 95.300781 C 153.613281 95.300781 158.394531 91.230469 158.414062 85.957031 C 158.4375 80.484375 153.421875 75.917969 147.417969 75.949219 C 141.765625 75.980469 137.109375 80.371094 137.070312 85.699219 C 137.039062 90.957031 141.75 95.28125 147.496094 95.300781 Z M 147.496094 95.300781 " fill-opacity="1" fill-rule="nonzero"/><path fill="#000000" d="M 133.890625 200.445312 C 128.597656 202.5625 123.851562 204.773438 118.910156 206.378906 C 108.183594 209.859375 97.625 208.578125 87.386719 204.308594 C 79.398438 200.933594 72.074219 196.46875 65.421875 190.90625 C 64.753906 190.359375 64.199219 189.714844 63.761719 188.972656 C 86.78125 202.269531 109.296875 202.203125 131.390625 186.957031 C 120.136719 190.347656 108.925781 190.640625 97.660156 186.804688 C 102.492188 186.476562 107.335938 186.703125 111.910156 185.695312 C 117.59375 184.351562 123.121094 182.542969 128.5 180.269531 C 132.46875 178.65625 135.351562 175.476562 137.574219 171.730469 C 137.886719 171.269531 138.277344 170.886719 138.75 170.585938 C 139.222656 170.289062 139.734375 170.097656 140.285156 170.015625 C 149.429688 169.425781 156.238281 165.101562 159.433594 156.640625 C 163.054688 147.109375 165.695312 137.214844 168.746094 127.476562 C 168.863281 127.042969 169.0625 126.652344 169.34375 126.300781 C 170.308594 140.207031 176.710938 152.625 179.863281 165.914062 C 182.734375 178.046875 182.882812 189.964844 176.996094 201.355469 C 175.503906 204.085938 173.777344 206.660156 171.820312 209.082031 C 174.019531 201.8125 174.925781 194.546875 173.449219 186.609375 C 171.960938 189.664062 170.863281 192.347656 169.398438 194.832031 C 161.742188 208 149.90625 215.105469 135.210938 217.824219 C 123.308594 220.019531 111.40625 219.855469 99.351562 217.9375 C 105.785156 216.617188 111.933594 214.46875 117.792969 211.503906 C 123.65625 208.535156 129.019531 204.847656 133.890625 200.445312 Z M 133.890625 200.445312 " fill-opacity="1" fill-rule="nonzero"/><path fill="#000000" d="M 61.15625 69.601562 C 61.15625 85.421875 61.722656 100.507812 60.988281 115.523438 C 60.367188 128.195312 52.339844 136.195312 41.128906 141.28125 C 41.003906 141.339844 40.8125 141.230469 40.953125 141.28125 C 44.023438 137.972656 47.398438 134.714844 50.339844 131.101562 C 55.238281 125.066406 57.378906 117.917969 57.402344 110.234375 C 57.433594 99.898438 57.144531 89.5625 59.035156 79.347656 C 59.609375 76.273438 60.367188 73.230469 61.15625 69.601562 Z M 61.15625 69.601562 " fill-opacity="1" fill-rule="nonzero"/><path fill="#000000" d="M 103.113281 170.0625 L 117.949219 163.824219 L 132.679688 169.96875 C 130.746094 173.585938 127.429688 176.058594 122.847656 176.140625 C 118.746094 176.242188 114.664062 175.984375 110.605469 175.363281 C 109.023438 175.082031 107.578125 174.480469 106.265625 173.550781 C 104.953125 172.625 103.902344 171.460938 103.113281 170.0625 Z M 103.113281 170.0625 " fill-opacity="1" fill-rule="nonzero"/><path fill="#000000" d="M 41.785156 92.464844 L 55.203125 65.925781 L 55.785156 66.21875 C 54.980469 69.503906 53.769531 72.75 53.449219 76.085938 C 52.6875 84.03125 52.347656 92.019531 51.832031 99.988281 C 51.386719 106.972656 49.183594 113.25 44.445312 118.527344 C 43.988281 119.042969 43.496094 119.523438 43 120 C 42.585938 120.320312 42.15625 120.621094 41.710938 120.898438 C 47.078125 109.152344 49.132812 97.246094 49.597656 84.699219 C 47.011719 87.523438 44.59375 90.191406 42.164062 92.851562 Z M 41.785156 92.464844 " fill-opacity="1" fill-rule="nonzero"/><path fill="#000000" d="M 91.070312 89.660156 C 90.390625 86.800781 89.316406 84.804688 86.476562 84.414062 C 83.347656 83.984375 81.878906 85.90625 80.785156 88.546875 C 79.539062 85.066406 80.296875 82.691406 83 81.039062 C 83.621094 80.6875 84.277344 80.441406 84.976562 80.300781 C 85.675781 80.164062 86.378906 80.136719 87.085938 80.226562 C 87.792969 80.3125 88.46875 80.511719 89.113281 80.816406 C 89.757812 81.121094 90.335938 81.523438 90.847656 82.015625 C 92.957031 84.238281 93.121094 86.433594 91.070312 89.660156 Z M 91.070312 89.660156 " fill-opacity="1" fill-rule="nonzero"/><path fill="#000000" d="M 152.140625 88.992188 C 149.160156 82.789062 144.9375 83.40625 142.5625 88.109375 C 141.585938 85.105469 142.5625 82.621094 145.222656 81.1875 C 145.816406 80.871094 146.449219 80.664062 147.113281 80.566406 C 147.777344 80.46875 148.441406 80.484375 149.101562 80.613281 C 149.761719 80.746094 150.382812 80.984375 150.960938 81.328125 C 151.539062 81.671875 152.039062 82.105469 152.46875 82.625 C 154.207031 84.753906 154.117188 86.53125 152.140625 88.992188 Z M 152.140625 88.992188 " fill-opacity="1" fill-rule="nonzero"/></svg>