<svg xmlns="http://www.w3.org/2000/svg" xmlns:xlink="http://www.w3.org/1999/xlink" width="500" zoomAndPan="magnify" viewBox="0 0 375 187.499995" height="250" preserveAspectRatio="xMidYMid meet" version="1.0"><defs><g/><clipPath id="60a80575a2"><path d="M 17 124 L 56 124 L 56 155 L 17 155 Z M 17 124 " clip-rule="nonzero"/></clipPath><clipPath id="8e2db30998"><path d="M 22.316406 121.082031 L 59.816406 128.078125 L 54.195312 158.226562 L 16.691406 151.230469 Z M 22.316406 121.082031 " clip-rule="nonzero"/></clipPath><clipPath id="22f99a7a81"><path d="M 22.316406 121.082031 L 59.816406 128.078125 L 54.195312 158.226562 L 16.691406 151.230469 Z M 22.316406 121.082031 " clip-rule="nonzero"/></clipPath><clipPath id="c7978d6b1e"><path d="M 22.316406 121.082031 L 59.816406 128.078125 L 54.195312 158.226562 L 16.691406 151.230469 Z M 22.316406 121.082031 " clip-rule="nonzero"/></clipPath><clipPath id="fb1d4fc78a"><path d="M 16 149 L 55 149 L 55 159 L 16 159 Z M 16 149 " clip-rule="nonzero"/></clipPath><clipPath id="4e37c9a7a2"><path d="M 22.316406 121.082031 L 59.816406 128.078125 L 54.195312 158.226562 L 16.691406 151.230469 Z M 22.316406 121.082031 " clip-rule="nonzero"/></clipPath><clipPath id="03d5cf452f"><path d="M 22.316406 121.082031 L 59.816406 128.078125 L 54.195312 158.226562 L 16.691406 151.230469 Z M 22.316406 121.082031 " clip-rule="nonzero"/></clipPath><clipPath id="6a4f43b403"><path d="M 22.316406 121.082031 L 59.816406 128.078125 L 54.195312 158.226562 L 16.691406 151.230469 Z M 22.316406 121.082031 " clip-rule="nonzero"/></clipPath></defs><g clip-path="url(#60a80575a2)"><g clip-path="url(#8e2db30998)"><g clip-path="url(#22f99a7a81)"><g clip-path="url(#c7978d6b1e)"><path fill="#000000" d="M 43.226562 129.429688 L 43.457031 128.1875 C 43.609375 127.375 43.433594 126.550781 42.992188 125.910156 C 42.546875 125.234375 41.855469 124.773438 41.058594 124.625 C 39.429688 124.320312 37.84375 125.425781 37.535156 127.082031 L 37.304688 128.328125 C 28.09375 128.105469 19.773438 134.710938 18.003906 144.203125 L 17.628906 146.210938 C 17.527344 146.761719 17.886719 147.296875 18.429688 147.398438 L 53.957031 154.023438 C 54.5 154.125 55.027344 153.753906 55.128906 153.203125 L 55.503906 151.199219 C 57.273438 141.707031 51.898438 132.542969 43.226562 129.429688 M 39.507812 127.449219 C 39.613281 126.898438 40.140625 126.53125 40.683594 126.632812 C 40.949219 126.679688 41.167969 126.824219 41.328125 127.074219 C 41.480469 127.289062 41.535156 127.546875 41.484375 127.816406 L 41.292969 128.839844 C 40.96875 128.769531 40.636719 128.699219 40.308594 128.636719 C 39.984375 128.578125 39.648438 128.523438 39.320312 128.472656 Z M 53.34375 151.832031 L 19.789062 145.574219 L 19.976562 144.570312 C 21.730469 135.171875 30.6875 128.917969 39.933594 130.644531 C 49.183594 132.367188 55.285156 141.429688 53.53125 150.828125 Z M 53.34375 151.832031 " fill-opacity="1" fill-rule="evenodd"/></g></g></g></g><g clip-path="url(#fb1d4fc78a)"><g clip-path="url(#4e37c9a7a2)"><g clip-path="url(#03d5cf452f)"><g clip-path="url(#6a4f43b403)"><path fill="#000000" d="M 53.207031 158.035156 L 17.679688 151.410156 C 17.136719 151.308594 16.777344 150.777344 16.878906 150.222656 C 16.984375 149.667969 17.507812 149.300781 18.054688 149.402344 L 53.582031 156.03125 C 54.128906 156.132812 54.484375 156.664062 54.382812 157.21875 C 54.277344 157.769531 53.753906 158.136719 53.207031 158.035156 " fill-opacity="1" fill-rule="evenodd"/></g></g></g></g><g fill="#292929" fill-opacity="0.4"><g transform="translate(13.188309, 83.032164)"><g><path d="M 44.59375 -27.03125 C 43.976562 -24.769531 42.8125 -23.003906 41.09375 -21.734375 C 39.382812 -20.472656 37.222656 -19.6875 34.609375 -19.375 C 36.484375 -19.21875 37.882812 -18.671875 38.8125 -17.734375 C 39.75 -16.804688 40.21875 -15.582031 40.21875 -14.0625 C 40.21875 -13.476562 40.117188 -12.757812 39.921875 -11.90625 L 39.28125 -9.046875 C 39.207031 -8.660156 39.171875 -8.390625 39.171875 -8.234375 C 39.171875 -7.722656 39.285156 -7.34375 39.515625 -7.09375 C 39.753906 -6.84375 40.085938 -6.71875 40.515625 -6.71875 C 41.328125 -6.71875 41.914062 -6.597656 42.28125 -6.359375 C 42.65625 -6.128906 42.785156 -5.703125 42.671875 -5.078125 C 42.515625 -4.179688 42.046875 -3.304688 41.265625 -2.453125 C 40.492188 -1.597656 39.394531 -0.882812 37.96875 -0.3125 C 36.550781 0.25 34.832031 0.53125 32.8125 0.53125 C 30.238281 0.53125 28.191406 -0.0390625 26.671875 -1.1875 C 25.160156 -2.34375 24.40625 -3.988281 24.40625 -6.125 C 24.40625 -6.945312 24.519531 -7.820312 24.75 -8.75 L 25.6875 -12.5 C 25.84375 -13 25.921875 -13.519531 25.921875 -14.0625 C 25.921875 -14.957031 25.617188 -15.597656 25.015625 -15.984375 C 24.410156 -16.378906 23.445312 -16.578125 22.125 -16.578125 L 19.90625 -16.578125 L 17.21875 -6.890625 C 17.144531 -6.648438 17.109375 -6.359375 17.109375 -6.015625 C 17.109375 -5.472656 17.242188 -5.003906 17.515625 -4.609375 C 17.785156 -4.222656 18.15625 -3.816406 18.625 -3.390625 C 18.96875 -3.117188 19.238281 -2.851562 19.4375 -2.59375 C 19.632812 -2.34375 19.734375 -2.082031 19.734375 -1.8125 C 19.734375 -1.144531 19.421875 -0.675781 18.796875 -0.40625 C 18.171875 -0.132812 17.253906 0 16.046875 0 L 1.40625 0 C 0.394531 0 -0.363281 -0.179688 -0.875 -0.546875 C -1.382812 -0.921875 -1.5625 -1.4375 -1.40625 -2.09375 C -1.320312 -2.445312 -1.171875 -2.726562 -0.953125 -2.9375 C -0.742188 -3.15625 -0.425781 -3.398438 0 -3.671875 C 0.664062 -4.066406 1.191406 -4.476562 1.578125 -4.90625 C 1.960938 -5.332031 2.273438 -5.992188 2.515625 -6.890625 L 9.625 -32.046875 C 9.78125 -32.554688 9.859375 -33.039062 9.859375 -33.5 C 9.859375 -33.9375 9.789062 -34.300781 9.65625 -34.59375 C 9.519531 -34.882812 9.335938 -35.222656 9.109375 -35.609375 C 8.753906 -36.117188 8.578125 -36.523438 8.578125 -36.828125 C 8.578125 -36.953125 8.617188 -37.171875 8.703125 -37.484375 C 8.859375 -37.984375 9.195312 -38.335938 9.71875 -38.546875 C 10.238281 -38.765625 11.046875 -38.875 12.140625 -38.875 L 31.703125 -38.875 C 34.378906 -38.875 36.71875 -38.460938 38.71875 -37.640625 C 40.726562 -36.828125 42.269531 -35.710938 43.34375 -34.296875 C 44.414062 -32.878906 44.953125 -31.273438 44.953125 -29.484375 C 44.953125 -28.660156 44.832031 -27.84375 44.59375 -27.03125 Z M 29.65625 -27.609375 C 29.851562 -28.503906 29.953125 -29.1875 29.953125 -29.65625 C 29.953125 -31.71875 28.820312 -32.75 26.5625 -32.75 L 24.109375 -32.75 L 21.546875 -22.421875 L 23.984375 -22.421875 C 25.503906 -22.421875 26.703125 -22.789062 27.578125 -23.53125 C 28.453125 -24.269531 29.144531 -25.628906 29.65625 -27.609375 Z M 29.65625 -27.609375 "/></g></g></g><g fill="#292929" fill-opacity="0.4"><g transform="translate(57.489485, 83.032164)"><g><path d="M 19.796875 -31.171875 C 24.734375 -31.171875 28.3125 -30.378906 30.53125 -28.796875 C 32.75 -27.222656 33.859375 -25.210938 33.859375 -22.765625 C 33.859375 -22.023438 33.78125 -21.34375 33.625 -20.71875 C 33.039062 -18.15625 31.414062 -16.316406 28.75 -15.203125 C 26.082031 -14.097656 22.941406 -13.546875 19.328125 -13.546875 C 17.492188 -13.546875 15.78125 -13.660156 14.1875 -13.890625 C 14.144531 -11.867188 14.6875 -10.445312 15.8125 -9.625 C 16.945312 -8.8125 18.523438 -8.40625 20.546875 -8.40625 C 21.484375 -8.40625 22.378906 -8.507812 23.234375 -8.71875 C 24.085938 -8.9375 25.175781 -9.257812 26.5 -9.6875 C 27.59375 -10.082031 28.332031 -10.28125 28.71875 -10.28125 C 29.144531 -10.28125 29.359375 -10.023438 29.359375 -9.515625 C 29.398438 -8.148438 28.894531 -6.71875 27.84375 -5.21875 C 26.789062 -3.726562 25.234375 -2.457031 23.171875 -1.40625 C 21.109375 -0.351562 18.617188 0.171875 15.703125 0.171875 C 11.378906 0.171875 7.835938 -0.914062 5.078125 -3.09375 C 2.316406 -5.269531 0.9375 -8.441406 0.9375 -12.609375 C 0.9375 -13.773438 1.09375 -15.132812 1.40625 -16.6875 C 2.375 -21.476562 4.5 -25.085938 7.78125 -27.515625 C 11.070312 -29.953125 15.078125 -31.171875 19.796875 -31.171875 Z M 14.59375 -17.390625 C 14.75 -17.359375 14.960938 -17.34375 15.234375 -17.34375 C 16.867188 -17.34375 18.113281 -18.097656 18.96875 -19.609375 C 19.820312 -21.128906 20.234375 -22.820312 20.203125 -24.6875 C 20.160156 -25.78125 19.847656 -26.328125 19.265625 -26.328125 C 18.835938 -26.328125 18.332031 -25.984375 17.75 -25.296875 C 17.164062 -24.617188 16.585938 -23.597656 16.015625 -22.234375 C 15.453125 -20.878906 14.976562 -19.265625 14.59375 -17.390625 Z M 14.59375 -17.390625 "/></g></g></g><g fill="#292929" fill-opacity="0.4"><g transform="translate(90.175464, 83.032164)"><g><path d="M 19.203125 -31.40625 C 22.429688 -31.40625 25.222656 -31.113281 27.578125 -30.53125 C 29.929688 -29.945312 31.738281 -29.128906 33 -28.078125 C 34.269531 -27.023438 34.90625 -25.835938 34.90625 -24.515625 C 34.90625 -23.148438 34.367188 -22.039062 33.296875 -21.1875 C 32.234375 -20.332031 30.75 -19.90625 28.84375 -19.90625 C 26.894531 -19.90625 25.25 -20.390625 23.90625 -21.359375 C 22.5625 -22.335938 21.890625 -23.566406 21.890625 -25.046875 C 21.890625 -25.546875 21.96875 -26.03125 22.125 -26.5 C 21.425781 -26.695312 20.800781 -26.796875 20.25 -26.796875 C 19.28125 -26.796875 18.472656 -26.5625 17.828125 -26.09375 C 17.191406 -25.625 16.890625 -24.960938 16.921875 -24.109375 C 16.921875 -23.097656 17.425781 -22.238281 18.4375 -21.53125 C 19.457031 -20.832031 21.09375 -19.957031 23.34375 -18.90625 C 25.289062 -18.050781 26.894531 -17.265625 28.15625 -16.546875 C 29.425781 -15.828125 30.5 -14.921875 31.375 -13.828125 C 32.25 -12.742188 32.6875 -11.460938 32.6875 -9.984375 C 32.6875 -9.671875 32.609375 -9.085938 32.453125 -8.234375 C 31.828125 -5.617188 30.09375 -3.550781 27.25 -2.03125 C 24.414062 -0.519531 20.679688 0.234375 16.046875 0.234375 C 10.835938 0.234375 6.703125 -0.460938 3.640625 -1.859375 C 0.585938 -3.265625 -0.9375 -5.191406 -0.9375 -7.640625 C -0.9375 -9.316406 -0.429688 -10.582031 0.578125 -11.4375 C 1.585938 -12.289062 2.929688 -12.71875 4.609375 -12.71875 C 6.554688 -12.71875 8.21875 -12.113281 9.59375 -10.90625 C 10.976562 -9.707031 11.671875 -8.171875 11.671875 -6.296875 C 11.671875 -5.796875 11.613281 -5.273438 11.5 -4.734375 C 12.4375 -4.492188 13.332031 -4.375 14.1875 -4.375 C 15.195312 -4.375 16.03125 -4.644531 16.6875 -5.1875 C 17.351562 -5.738281 17.6875 -6.5 17.6875 -7.46875 C 17.644531 -8.363281 17.195312 -9.128906 16.34375 -9.765625 C 15.488281 -10.410156 14.128906 -11.179688 12.265625 -12.078125 C 10.503906 -12.898438 9.0625 -13.671875 7.9375 -14.390625 C 6.8125 -15.109375 5.847656 -16.007812 5.046875 -17.09375 C 4.253906 -18.1875 3.859375 -19.472656 3.859375 -20.953125 C 3.859375 -24.148438 5.1875 -26.691406 7.84375 -28.578125 C 10.507812 -30.460938 14.296875 -31.40625 19.203125 -31.40625 Z M 19.203125 -31.40625 "/></g></g></g><g fill="#292929" fill-opacity="0.4"><g transform="translate(124.787588, 83.032164)"><g><path d="M 26.09375 -30.125 C 26.832031 -30.125 27.40625 -29.96875 27.8125 -29.65625 C 28.21875 -29.34375 28.421875 -28.914062 28.421875 -28.375 C 28.421875 -28.21875 28.382812 -27.941406 28.3125 -27.546875 C 27.800781 -25.835938 26.632812 -24.984375 24.8125 -24.984375 L 21.421875 -24.984375 L 17.046875 -10.5625 C 16.847656 -9.976562 16.75 -9.375 16.75 -8.75 C 16.75 -8.050781 16.941406 -7.566406 17.328125 -7.296875 C 17.722656 -7.023438 18.269531 -6.890625 18.96875 -6.890625 C 19.59375 -6.890625 20.375 -6.96875 21.3125 -7.125 C 21.769531 -7.238281 22.175781 -7.296875 22.53125 -7.296875 C 22.800781 -7.296875 23.003906 -7.207031 23.140625 -7.03125 C 23.273438 -6.851562 23.34375 -6.628906 23.34375 -6.359375 C 23.382812 -5.585938 22.8125 -4.644531 21.625 -3.53125 C 20.4375 -2.425781 18.832031 -1.472656 16.8125 -0.671875 C 14.789062 0.128906 12.550781 0.53125 10.09375 0.53125 C 7.445312 0.53125 5.328125 -0.0703125 3.734375 -1.28125 C 2.140625 -2.488281 1.34375 -4.144531 1.34375 -6.25 C 1.34375 -7.21875 1.5 -8.148438 1.8125 -9.046875 L 5.546875 -20.609375 C 5.742188 -21.265625 5.84375 -21.789062 5.84375 -22.1875 C 5.84375 -22.957031 5.65625 -23.613281 5.28125 -24.15625 C 4.914062 -24.707031 4.398438 -25.273438 3.734375 -25.859375 C 3.148438 -26.398438 2.738281 -26.851562 2.5 -27.21875 C 2.269531 -27.59375 2.210938 -28.035156 2.328125 -28.546875 C 2.484375 -29.046875 2.816406 -29.429688 3.328125 -29.703125 C 3.835938 -29.984375 4.632812 -30.125 5.71875 -30.125 L 8.984375 -30.125 L 12.671875 -33.796875 C 13.953125 -35.078125 15.125 -35.972656 16.1875 -36.484375 C 17.257812 -36.992188 18.65625 -37.25 20.375 -37.25 C 22.820312 -37.25 24.046875 -36.3125 24.046875 -34.4375 C 24.046875 -33.851562 23.96875 -33.3125 23.8125 -32.8125 L 23 -30.125 Z M 26.09375 -30.125 "/></g></g></g><g fill="#292929" fill-opacity="0.4"><g transform="translate(149.885758, 83.032164)"><g><path d="M 20.84375 -30.875 C 25.3125 -30.875 28.890625 -30.046875 31.578125 -28.390625 C 34.265625 -26.742188 35.609375 -24.226562 35.609375 -20.84375 C 35.609375 -19.550781 35.375 -18.09375 34.90625 -16.46875 L 32.515625 -8.40625 C 32.472656 -8.25 32.453125 -8.054688 32.453125 -7.828125 C 32.453125 -7.203125 32.707031 -6.890625 33.21875 -6.890625 C 33.6875 -6.890625 34.082031 -7.09375 34.40625 -7.5 C 34.738281 -7.90625 34.960938 -8.109375 35.078125 -8.109375 C 35.273438 -8.109375 35.441406 -7.972656 35.578125 -7.703125 C 35.710938 -7.429688 35.78125 -7.117188 35.78125 -6.765625 C 35.820312 -5.722656 35.421875 -4.65625 34.578125 -3.5625 C 33.742188 -2.46875 32.625 -1.570312 31.21875 -0.875 C 29.820312 -0.175781 28.289062 0.171875 26.625 0.171875 C 24.59375 0.171875 22.859375 -0.195312 21.421875 -0.9375 C 19.984375 -1.675781 18.992188 -2.765625 18.453125 -4.203125 C 17.273438 -2.796875 15.890625 -1.710938 14.296875 -0.953125 C 12.703125 -0.203125 10.992188 0.171875 9.171875 0.171875 C 7.109375 0.171875 5.375 -0.222656 3.96875 -1.015625 C 2.570312 -1.816406 1.53125 -2.847656 0.84375 -4.109375 C 0.164062 -5.378906 -0.171875 -6.710938 -0.171875 -8.109375 C -0.171875 -8.734375 -0.113281 -9.335938 0 -9.921875 C 0.625 -12.609375 1.976562 -14.628906 4.0625 -15.984375 C 6.144531 -17.347656 8.625 -18.03125 11.5 -18.03125 C 14.726562 -18.03125 17.898438 -17.523438 21.015625 -16.515625 L 22.46875 -20.375 C 22.976562 -22.007812 23.234375 -23.273438 23.234375 -24.171875 C 23.191406 -25.097656 22.878906 -25.796875 22.296875 -26.265625 C 21.710938 -26.734375 20.816406 -26.96875 19.609375 -26.96875 C 19.847656 -26.34375 19.96875 -25.703125 19.96875 -25.046875 C 19.96875 -23.609375 19.421875 -22.363281 18.328125 -21.3125 C 17.234375 -20.257812 15.675781 -19.734375 13.65625 -19.734375 C 11.75 -19.734375 10.257812 -20.148438 9.1875 -20.984375 C 8.125 -21.816406 7.59375 -22.859375 7.59375 -24.109375 C 7.59375 -26.054688 8.679688 -27.671875 10.859375 -28.953125 C 13.035156 -30.234375 16.363281 -30.875 20.84375 -30.875 Z M 17.578125 -13.1875 C 16.484375 -13.1875 15.59375 -12.769531 14.90625 -11.9375 C 14.226562 -11.101562 13.890625 -10.195312 13.890625 -9.21875 C 13.890625 -8.601562 14.035156 -8.097656 14.328125 -7.703125 C 14.617188 -7.316406 15.039062 -7.125 15.59375 -7.125 C 16.09375 -7.125 16.644531 -7.328125 17.25 -7.734375 C 17.851562 -8.140625 18.289062 -8.753906 18.5625 -9.578125 L 19.796875 -13.015625 C 19.128906 -13.128906 18.390625 -13.1875 17.578125 -13.1875 Z M 17.578125 -13.1875 "/></g></g></g><g fill="#292929" fill-opacity="0.4"><g transform="translate(188.058315, 83.032164)"><g><path d="M 34.671875 -8.0625 C 34.597656 -7.75 34.5625 -7.515625 34.5625 -7.359375 C 34.5625 -7.085938 34.628906 -6.875 34.765625 -6.71875 C 34.898438 -6.5625 35.082031 -6.484375 35.3125 -6.484375 C 35.78125 -6.484375 36.179688 -6.6875 36.515625 -7.09375 C 36.847656 -7.5 37.070312 -7.703125 37.1875 -7.703125 C 37.382812 -7.703125 37.550781 -7.578125 37.6875 -7.328125 C 37.820312 -7.078125 37.890625 -6.773438 37.890625 -6.421875 C 37.921875 -5.328125 37.523438 -4.242188 36.703125 -3.171875 C 35.890625 -2.109375 34.742188 -1.222656 33.265625 -0.515625 C 31.796875 0.179688 30.144531 0.53125 28.3125 0.53125 C 26.019531 0.53125 24.191406 0.0625 22.828125 -0.875 C 21.460938 -1.8125 20.585938 -3.035156 20.203125 -4.546875 C 18.796875 -2.992188 17.242188 -1.816406 15.546875 -1.015625 C 13.859375 -0.222656 12.140625 0.171875 10.390625 0.171875 C 7.660156 0.171875 5.375 -0.5 3.53125 -1.84375 C 1.6875 -3.1875 0.765625 -5.0625 0.765625 -7.46875 C 0.765625 -8.5625 0.957031 -9.691406 1.34375 -10.859375 L 5.078125 -23.0625 C 5.191406 -23.40625 5.25 -23.695312 5.25 -23.9375 C 5.25 -24.363281 5.148438 -24.703125 4.953125 -24.953125 C 4.765625 -25.203125 4.476562 -25.46875 4.09375 -25.75 C 3.695312 -26.050781 3.421875 -26.316406 3.265625 -26.546875 C 3.109375 -26.785156 3.085938 -27.101562 3.203125 -27.5 C 3.441406 -28.394531 4.671875 -29.179688 6.890625 -29.859375 C 9.109375 -30.535156 11.421875 -30.875 13.828125 -30.875 C 16.085938 -30.875 17.742188 -30.445312 18.796875 -29.59375 C 19.847656 -28.738281 20.375 -27.570312 20.375 -26.09375 C 20.375 -25.195312 20.238281 -24.34375 19.96875 -23.53125 L 16.28125 -11.390625 C 16.125 -10.953125 16.046875 -10.539062 16.046875 -10.15625 C 16.046875 -9.613281 16.203125 -9.203125 16.515625 -8.921875 C 16.828125 -8.648438 17.238281 -8.515625 17.75 -8.515625 C 18.488281 -8.515625 19.085938 -8.726562 19.546875 -9.15625 C 20.015625 -9.59375 20.484375 -10.316406 20.953125 -11.328125 L 24.515625 -23.0625 C 24.628906 -23.40625 24.6875 -23.695312 24.6875 -23.9375 C 24.6875 -24.363281 24.585938 -24.703125 24.390625 -24.953125 C 24.203125 -25.203125 23.929688 -25.46875 23.578125 -25.75 C 23.191406 -26.050781 22.921875 -26.316406 22.765625 -26.546875 C 22.609375 -26.785156 22.585938 -27.101562 22.703125 -27.5 C 22.898438 -28.394531 24.109375 -29.179688 26.328125 -29.859375 C 28.546875 -30.535156 30.863281 -30.875 33.28125 -30.875 C 35.53125 -30.875 37.191406 -30.445312 38.265625 -29.59375 C 39.335938 -28.738281 39.875 -27.59375 39.875 -26.15625 C 39.875 -25.414062 39.71875 -24.539062 39.40625 -23.53125 Z M 34.671875 -8.0625 "/></g></g></g><g fill="#292929" fill-opacity="0.4"><g transform="translate(228.09866, 83.032164)"><g><path d="M 28.65625 -30.875 C 30.84375 -30.875 32.585938 -30.210938 33.890625 -28.890625 C 35.191406 -27.566406 35.84375 -25.929688 35.84375 -23.984375 C 35.84375 -23.253906 35.765625 -22.578125 35.609375 -21.953125 C 35.222656 -20.359375 34.484375 -19.128906 33.390625 -18.265625 C 32.296875 -17.410156 30.992188 -16.984375 29.484375 -16.984375 C 28.003906 -16.984375 26.882812 -17.332031 26.125 -18.03125 C 25.363281 -18.738281 24.691406 -19.675781 24.109375 -20.84375 C 23.796875 -21.5 23.503906 -21.984375 23.234375 -22.296875 C 22.960938 -22.609375 22.648438 -22.765625 22.296875 -22.765625 C 21.910156 -22.765625 21.570312 -22.609375 21.28125 -22.296875 C 20.988281 -21.984375 20.722656 -21.441406 20.484375 -20.671875 L 16 -6.078125 C 15.914062 -5.878906 15.875 -5.585938 15.875 -5.203125 C 15.875 -4.691406 16.019531 -4.269531 16.3125 -3.9375 C 16.601562 -3.601562 17.003906 -3.285156 17.515625 -2.984375 C 17.984375 -2.671875 18.296875 -2.414062 18.453125 -2.21875 C 18.609375 -2.019531 18.664062 -1.765625 18.625 -1.453125 C 18.539062 -0.953125 18.253906 -0.582031 17.765625 -0.34375 C 17.285156 -0.113281 16.460938 0 15.296875 0 L 0.34375 0 C -0.664062 0 -1.394531 -0.164062 -1.84375 -0.5 C -2.289062 -0.832031 -2.453125 -1.269531 -2.328125 -1.8125 C -2.171875 -2.28125 -1.765625 -2.6875 -1.109375 -3.03125 C -0.523438 -3.34375 -0.0390625 -3.710938 0.34375 -4.140625 C 0.738281 -4.566406 1.070312 -5.25 1.34375 -6.1875 L 6.53125 -23.0625 C 6.613281 -23.25 6.65625 -23.519531 6.65625 -23.875 C 6.65625 -24.300781 6.566406 -24.628906 6.390625 -24.859375 C 6.210938 -25.097656 5.929688 -25.394531 5.546875 -25.75 C 5.160156 -26.050781 4.890625 -26.316406 4.734375 -26.546875 C 4.578125 -26.785156 4.554688 -27.101562 4.671875 -27.5 C 4.898438 -28.394531 6.125 -29.179688 8.34375 -29.859375 C 10.5625 -30.535156 12.878906 -30.875 15.296875 -30.875 C 16.890625 -30.875 18.210938 -30.515625 19.265625 -29.796875 C 20.316406 -29.078125 21 -28.054688 21.3125 -26.734375 C 23.175781 -29.492188 25.625 -30.875 28.65625 -30.875 Z M 28.65625 -30.875 "/></g></g></g><g fill="#292929" fill-opacity="0.4"><g transform="translate(261.893624, 83.032164)"><g><path d="M 20.84375 -30.875 C 25.3125 -30.875 28.890625 -30.046875 31.578125 -28.390625 C 34.265625 -26.742188 35.609375 -24.226562 35.609375 -20.84375 C 35.609375 -19.550781 35.375 -18.09375 34.90625 -16.46875 L 32.515625 -8.40625 C 32.472656 -8.25 32.453125 -8.054688 32.453125 -7.828125 C 32.453125 -7.203125 32.707031 -6.890625 33.21875 -6.890625 C 33.6875 -6.890625 34.082031 -7.09375 34.40625 -7.5 C 34.738281 -7.90625 34.960938 -8.109375 35.078125 -8.109375 C 35.273438 -8.109375 35.441406 -7.972656 35.578125 -7.703125 C 35.710938 -7.429688 35.78125 -7.117188 35.78125 -6.765625 C 35.820312 -5.722656 35.421875 -4.65625 34.578125 -3.5625 C 33.742188 -2.46875 32.625 -1.570312 31.21875 -0.875 C 29.820312 -0.175781 28.289062 0.171875 26.625 0.171875 C 24.59375 0.171875 22.859375 -0.195312 21.421875 -0.9375 C 19.984375 -1.675781 18.992188 -2.765625 18.453125 -4.203125 C 17.273438 -2.796875 15.890625 -1.710938 14.296875 -0.953125 C 12.703125 -0.203125 10.992188 0.171875 9.171875 0.171875 C 7.109375 0.171875 5.375 -0.222656 3.96875 -1.015625 C 2.570312 -1.816406 1.53125 -2.847656 0.84375 -4.109375 C 0.164062 -5.378906 -0.171875 -6.710938 -0.171875 -8.109375 C -0.171875 -8.734375 -0.113281 -9.335938 0 -9.921875 C 0.625 -12.609375 1.976562 -14.628906 4.0625 -15.984375 C 6.144531 -17.347656 8.625 -18.03125 11.5 -18.03125 C 14.726562 -18.03125 17.898438 -17.523438 21.015625 -16.515625 L 22.46875 -20.375 C 22.976562 -22.007812 23.234375 -23.273438 23.234375 -24.171875 C 23.191406 -25.097656 22.878906 -25.796875 22.296875 -26.265625 C 21.710938 -26.734375 20.816406 -26.96875 19.609375 -26.96875 C 19.847656 -26.34375 19.96875 -25.703125 19.96875 -25.046875 C 19.96875 -23.609375 19.421875 -22.363281 18.328125 -21.3125 C 17.234375 -20.257812 15.675781 -19.734375 13.65625 -19.734375 C 11.75 -19.734375 10.257812 -20.148438 9.1875 -20.984375 C 8.125 -21.816406 7.59375 -22.859375 7.59375 -24.109375 C 7.59375 -26.054688 8.679688 -27.671875 10.859375 -28.953125 C 13.035156 -30.234375 16.363281 -30.875 20.84375 -30.875 Z M 17.578125 -13.1875 C 16.484375 -13.1875 15.59375 -12.769531 14.90625 -11.9375 C 14.226562 -11.101562 13.890625 -10.195312 13.890625 -9.21875 C 13.890625 -8.601562 14.035156 -8.097656 14.328125 -7.703125 C 14.617188 -7.316406 15.039062 -7.125 15.59375 -7.125 C 16.09375 -7.125 16.644531 -7.328125 17.25 -7.734375 C 17.851562 -8.140625 18.289062 -8.753906 18.5625 -9.578125 L 19.796875 -13.015625 C 19.128906 -13.128906 18.390625 -13.1875 17.578125 -13.1875 Z M 17.578125 -13.1875 "/></g></g></g><g fill="#292929" fill-opacity="0.4"><g transform="translate(300.066181, 83.032164)"><g><path d="M 36.140625 -8.0625 C 36.054688 -7.90625 36.015625 -7.671875 36.015625 -7.359375 C 36.015625 -7.085938 36.082031 -6.875 36.21875 -6.71875 C 36.351562 -6.5625 36.539062 -6.484375 36.78125 -6.484375 C 37.25 -6.484375 37.644531 -6.6875 37.96875 -7.09375 C 38.300781 -7.5 38.523438 -7.703125 38.640625 -7.703125 C 38.835938 -7.703125 38.992188 -7.578125 39.109375 -7.328125 C 39.222656 -7.078125 39.28125 -6.773438 39.28125 -6.421875 C 39.320312 -5.296875 38.953125 -4.195312 38.171875 -3.125 C 37.398438 -2.050781 36.265625 -1.171875 34.765625 -0.484375 C 33.265625 0.191406 31.460938 0.53125 29.359375 0.53125 C 26.796875 0.53125 24.753906 -0.0625 23.234375 -1.25 C 21.710938 -2.4375 20.929688 -4.023438 20.890625 -6.015625 C 20.890625 -7.453125 21.242188 -9.066406 21.953125 -10.859375 L 25.15625 -19.265625 C 25.351562 -19.765625 25.453125 -20.171875 25.453125 -20.484375 C 25.453125 -20.992188 25.285156 -21.394531 24.953125 -21.6875 C 24.617188 -21.976562 24.222656 -22.125 23.765625 -22.125 C 22.898438 -22.125 22.078125 -21.722656 21.296875 -20.921875 C 20.523438 -20.128906 19.960938 -19.148438 19.609375 -17.984375 L 16 -6.078125 C 15.84375 -5.640625 15.765625 -5.226562 15.765625 -4.84375 C 15.765625 -4.375 15.859375 -3.992188 16.046875 -3.703125 C 16.242188 -3.410156 16.519531 -3.109375 16.875 -2.796875 C 17.144531 -2.566406 17.335938 -2.351562 17.453125 -2.15625 C 17.566406 -1.96875 17.585938 -1.734375 17.515625 -1.453125 C 17.359375 -0.953125 16.988281 -0.582031 16.40625 -0.34375 C 15.820312 -0.113281 14.90625 0 13.65625 0 L 0.34375 0 C -0.664062 0 -1.394531 -0.164062 -1.84375 -0.5 C -2.289062 -0.832031 -2.453125 -1.269531 -2.328125 -1.8125 C -2.171875 -2.28125 -1.765625 -2.6875 -1.109375 -3.03125 C -0.523438 -3.34375 -0.0390625 -3.710938 0.34375 -4.140625 C 0.738281 -4.566406 1.070312 -5.25 1.34375 -6.1875 L 6.53125 -23.0625 C 6.613281 -23.25 6.65625 -23.519531 6.65625 -23.875 C 6.65625 -24.300781 6.566406 -24.628906 6.390625 -24.859375 C 6.210938 -25.097656 5.929688 -25.394531 5.546875 -25.75 C 5.160156 -26.050781 4.890625 -26.316406 4.734375 -26.546875 C 4.578125 -26.785156 4.554688 -27.101562 4.671875 -27.5 C 4.898438 -28.394531 6.125 -29.179688 8.34375 -29.859375 C 10.5625 -30.535156 12.878906 -30.875 15.296875 -30.875 C 17.242188 -30.875 18.78125 -30.335938 19.90625 -29.265625 C 21.03125 -28.203125 21.535156 -26.71875 21.421875 -24.8125 C 23.015625 -27.101562 24.707031 -28.6875 26.5 -29.5625 C 28.289062 -30.4375 30.238281 -30.875 32.34375 -30.875 C 34.71875 -30.875 36.632812 -30.15625 38.09375 -28.71875 C 39.550781 -27.28125 40.28125 -25.410156 40.28125 -23.109375 C 40.28125 -21.910156 40.082031 -20.726562 39.6875 -19.5625 Z M 36.140625 -8.0625 "/></g></g></g><g fill="#292929" fill-opacity="0.4"><g transform="translate(341.857551, 83.032164)"><g><path d="M 26.09375 -30.125 C 26.832031 -30.125 27.40625 -29.96875 27.8125 -29.65625 C 28.21875 -29.34375 28.421875 -28.914062 28.421875 -28.375 C 28.421875 -28.21875 28.382812 -27.941406 28.3125 -27.546875 C 27.800781 -25.835938 26.632812 -24.984375 24.8125 -24.984375 L 21.421875 -24.984375 L 17.046875 -10.5625 C 16.847656 -9.976562 16.75 -9.375 16.75 -8.75 C 16.75 -8.050781 16.941406 -7.566406 17.328125 -7.296875 C 17.722656 -7.023438 18.269531 -6.890625 18.96875 -6.890625 C 19.59375 -6.890625 20.375 -6.96875 21.3125 -7.125 C 21.769531 -7.238281 22.175781 -7.296875 22.53125 -7.296875 C 22.800781 -7.296875 23.003906 -7.207031 23.140625 -7.03125 C 23.273438 -6.851562 23.34375 -6.628906 23.34375 -6.359375 C 23.382812 -5.585938 22.8125 -4.644531 21.625 -3.53125 C 20.4375 -2.425781 18.832031 -1.472656 16.8125 -0.671875 C 14.789062 0.128906 12.550781 0.53125 10.09375 0.53125 C 7.445312 0.53125 5.328125 -0.0703125 3.734375 -1.28125 C 2.140625 -2.488281 1.34375 -4.144531 1.34375 -6.25 C 1.34375 -7.21875 1.5 -8.148438 1.8125 -9.046875 L 5.546875 -20.609375 C 5.742188 -21.265625 5.84375 -21.789062 5.84375 -22.1875 C 5.84375 -22.957031 5.65625 -23.613281 5.28125 -24.15625 C 4.914062 -24.707031 4.398438 -25.273438 3.734375 -25.859375 C 3.148438 -26.398438 2.738281 -26.851562 2.5 -27.21875 C 2.269531 -27.59375 2.210938 -28.035156 2.328125 -28.546875 C 2.484375 -29.046875 2.816406 -29.429688 3.328125 -29.703125 C 3.835938 -29.984375 4.632812 -30.125 5.71875 -30.125 L 8.984375 -30.125 L 12.671875 -33.796875 C 13.953125 -35.078125 15.125 -35.972656 16.1875 -36.484375 C 17.257812 -36.992188 18.65625 -37.25 20.375 -37.25 C 22.820312 -37.25 24.046875 -36.3125 24.046875 -34.4375 C 24.046875 -33.851562 23.96875 -33.3125 23.8125 -32.8125 L 23 -30.125 Z M 26.09375 -30.125 "/></g></g></g><g fill="#292929" fill-opacity="1"><g transform="translate(10.608434, 80.452289)"><g><path d="M 44.59375 -27.03125 C 43.976562 -24.769531 42.8125 -23.003906 41.09375 -21.734375 C 39.382812 -20.472656 37.222656 -19.6875 34.609375 -19.375 C 36.484375 -19.21875 37.882812 -18.671875 38.8125 -17.734375 C 39.75 -16.804688 40.21875 -15.582031 40.21875 -14.0625 C 40.21875 -13.476562 40.117188 -12.757812 39.921875 -11.90625 L 39.28125 -9.046875 C 39.207031 -8.660156 39.171875 -8.390625 39.171875 -8.234375 C 39.171875 -7.722656 39.285156 -7.34375 39.515625 -7.09375 C 39.753906 -6.84375 40.085938 -6.71875 40.515625 -6.71875 C 41.328125 -6.71875 41.914062 -6.597656 42.28125 -6.359375 C 42.65625 -6.128906 42.785156 -5.703125 42.671875 -5.078125 C 42.515625 -4.179688 42.046875 -3.304688 41.265625 -2.453125 C 40.492188 -1.597656 39.394531 -0.882812 37.96875 -0.3125 C 36.550781 0.25 34.832031 0.53125 32.8125 0.53125 C 30.238281 0.53125 28.191406 -0.0390625 26.671875 -1.1875 C 25.160156 -2.34375 24.40625 -3.988281 24.40625 -6.125 C 24.40625 -6.945312 24.519531 -7.820312 24.75 -8.75 L 25.6875 -12.5 C 25.84375 -13 25.921875 -13.519531 25.921875 -14.0625 C 25.921875 -14.957031 25.617188 -15.597656 25.015625 -15.984375 C 24.410156 -16.378906 23.445312 -16.578125 22.125 -16.578125 L 19.90625 -16.578125 L 17.21875 -6.890625 C 17.144531 -6.648438 17.109375 -6.359375 17.109375 -6.015625 C 17.109375 -5.472656 17.242188 -5.003906 17.515625 -4.609375 C 17.785156 -4.222656 18.15625 -3.816406 18.625 -3.390625 C 18.96875 -3.117188 19.238281 -2.851562 19.4375 -2.59375 C 19.632812 -2.34375 19.734375 -2.082031 19.734375 -1.8125 C 19.734375 -1.144531 19.421875 -0.675781 18.796875 -0.40625 C 18.171875 -0.132812 17.253906 0 16.046875 0 L 1.40625 0 C 0.394531 0 -0.363281 -0.179688 -0.875 -0.546875 C -1.382812 -0.921875 -1.5625 -1.4375 -1.40625 -2.09375 C -1.320312 -2.445312 -1.171875 -2.726562 -0.953125 -2.9375 C -0.742188 -3.15625 -0.425781 -3.398438 0 -3.671875 C 0.664062 -4.066406 1.191406 -4.476562 1.578125 -4.90625 C 1.960938 -5.332031 2.273438 -5.992188 2.515625 -6.890625 L 9.625 -32.046875 C 9.78125 -32.554688 9.859375 -33.039062 9.859375 -33.5 C 9.859375 -33.9375 9.789062 -34.300781 9.65625 -34.59375 C 9.519531 -34.882812 9.335938 -35.222656 9.109375 -35.609375 C 8.753906 -36.117188 8.578125 -36.523438 8.578125 -36.828125 C 8.578125 -36.953125 8.617188 -37.171875 8.703125 -37.484375 C 8.859375 -37.984375 9.195312 -38.335938 9.71875 -38.546875 C 10.238281 -38.765625 11.046875 -38.875 12.140625 -38.875 L 31.703125 -38.875 C 34.378906 -38.875 36.71875 -38.460938 38.71875 -37.640625 C 40.726562 -36.828125 42.269531 -35.710938 43.34375 -34.296875 C 44.414062 -32.878906 44.953125 -31.273438 44.953125 -29.484375 C 44.953125 -28.660156 44.832031 -27.84375 44.59375 -27.03125 Z M 29.65625 -27.609375 C 29.851562 -28.503906 29.953125 -29.1875 29.953125 -29.65625 C 29.953125 -31.71875 28.820312 -32.75 26.5625 -32.75 L 24.109375 -32.75 L 21.546875 -22.421875 L 23.984375 -22.421875 C 25.503906 -22.421875 26.703125 -22.789062 27.578125 -23.53125 C 28.453125 -24.269531 29.144531 -25.628906 29.65625 -27.609375 Z M 29.65625 -27.609375 "/></g></g></g><g fill="#292929" fill-opacity="1"><g transform="translate(54.90961, 80.452289)"><g><path d="M 19.796875 -31.171875 C 24.734375 -31.171875 28.3125 -30.378906 30.53125 -28.796875 C 32.75 -27.222656 33.859375 -25.210938 33.859375 -22.765625 C 33.859375 -22.023438 33.78125 -21.34375 33.625 -20.71875 C 33.039062 -18.15625 31.414062 -16.316406 28.75 -15.203125 C 26.082031 -14.097656 22.941406 -13.546875 19.328125 -13.546875 C 17.492188 -13.546875 15.78125 -13.660156 14.1875 -13.890625 C 14.144531 -11.867188 14.6875 -10.445312 15.8125 -9.625 C 16.945312 -8.8125 18.523438 -8.40625 20.546875 -8.40625 C 21.484375 -8.40625 22.378906 -8.507812 23.234375 -8.71875 C 24.085938 -8.9375 25.175781 -9.257812 26.5 -9.6875 C 27.59375 -10.082031 28.332031 -10.28125 28.71875 -10.28125 C 29.144531 -10.28125 29.359375 -10.023438 29.359375 -9.515625 C 29.398438 -8.148438 28.894531 -6.71875 27.84375 -5.21875 C 26.789062 -3.726562 25.234375 -2.457031 23.171875 -1.40625 C 21.109375 -0.351562 18.617188 0.171875 15.703125 0.171875 C 11.378906 0.171875 7.835938 -0.914062 5.078125 -3.09375 C 2.316406 -5.269531 0.9375 -8.441406 0.9375 -12.609375 C 0.9375 -13.773438 1.09375 -15.132812 1.40625 -16.6875 C 2.375 -21.476562 4.5 -25.085938 7.78125 -27.515625 C 11.070312 -29.953125 15.078125 -31.171875 19.796875 -31.171875 Z M 14.59375 -17.390625 C 14.75 -17.359375 14.960938 -17.34375 15.234375 -17.34375 C 16.867188 -17.34375 18.113281 -18.097656 18.96875 -19.609375 C 19.820312 -21.128906 20.234375 -22.820312 20.203125 -24.6875 C 20.160156 -25.78125 19.847656 -26.328125 19.265625 -26.328125 C 18.835938 -26.328125 18.332031 -25.984375 17.75 -25.296875 C 17.164062 -24.617188 16.585938 -23.597656 16.015625 -22.234375 C 15.453125 -20.878906 14.976562 -19.265625 14.59375 -17.390625 Z M 14.59375 -17.390625 "/></g></g></g><g fill="#292929" fill-opacity="1"><g transform="translate(87.595589, 80.452289)"><g><path d="M 19.203125 -31.40625 C 22.429688 -31.40625 25.222656 -31.113281 27.578125 -30.53125 C 29.929688 -29.945312 31.738281 -29.128906 33 -28.078125 C 34.269531 -27.023438 34.90625 -25.835938 34.90625 -24.515625 C 34.90625 -23.148438 34.367188 -22.039062 33.296875 -21.1875 C 32.234375 -20.332031 30.75 -19.90625 28.84375 -19.90625 C 26.894531 -19.90625 25.25 -20.390625 23.90625 -21.359375 C 22.5625 -22.335938 21.890625 -23.566406 21.890625 -25.046875 C 21.890625 -25.546875 21.96875 -26.03125 22.125 -26.5 C 21.425781 -26.695312 20.800781 -26.796875 20.25 -26.796875 C 19.28125 -26.796875 18.472656 -26.5625 17.828125 -26.09375 C 17.191406 -25.625 16.890625 -24.960938 16.921875 -24.109375 C 16.921875 -23.097656 17.425781 -22.238281 18.4375 -21.53125 C 19.457031 -20.832031 21.09375 -19.957031 23.34375 -18.90625 C 25.289062 -18.050781 26.894531 -17.265625 28.15625 -16.546875 C 29.425781 -15.828125 30.5 -14.921875 31.375 -13.828125 C 32.25 -12.742188 32.6875 -11.460938 32.6875 -9.984375 C 32.6875 -9.671875 32.609375 -9.085938 32.453125 -8.234375 C 31.828125 -5.617188 30.09375 -3.550781 27.25 -2.03125 C 24.414062 -0.519531 20.679688 0.234375 16.046875 0.234375 C 10.835938 0.234375 6.703125 -0.460938 3.640625 -1.859375 C 0.585938 -3.265625 -0.9375 -5.191406 -0.9375 -7.640625 C -0.9375 -9.316406 -0.429688 -10.582031 0.578125 -11.4375 C 1.585938 -12.289062 2.929688 -12.71875 4.609375 -12.71875 C 6.554688 -12.71875 8.21875 -12.113281 9.59375 -10.90625 C 10.976562 -9.707031 11.671875 -8.171875 11.671875 -6.296875 C 11.671875 -5.796875 11.613281 -5.273438 11.5 -4.734375 C 12.4375 -4.492188 13.332031 -4.375 14.1875 -4.375 C 15.195312 -4.375 16.03125 -4.644531 16.6875 -5.1875 C 17.351562 -5.738281 17.6875 -6.5 17.6875 -7.46875 C 17.644531 -8.363281 17.195312 -9.128906 16.34375 -9.765625 C 15.488281 -10.410156 14.128906 -11.179688 12.265625 -12.078125 C 10.503906 -12.898438 9.0625 -13.671875 7.9375 -14.390625 C 6.8125 -15.109375 5.847656 -16.007812 5.046875 -17.09375 C 4.253906 -18.1875 3.859375 -19.472656 3.859375 -20.953125 C 3.859375 -24.148438 5.1875 -26.691406 7.84375 -28.578125 C 10.507812 -30.460938 14.296875 -31.40625 19.203125 -31.40625 Z M 19.203125 -31.40625 "/></g></g></g><g fill="#292929" fill-opacity="1"><g transform="translate(122.207714, 80.452289)"><g><path d="M 26.09375 -30.125 C 26.832031 -30.125 27.40625 -29.96875 27.8125 -29.65625 C 28.21875 -29.34375 28.421875 -28.914062 28.421875 -28.375 C 28.421875 -28.21875 28.382812 -27.941406 28.3125 -27.546875 C 27.800781 -25.835938 26.632812 -24.984375 24.8125 -24.984375 L 21.421875 -24.984375 L 17.046875 -10.5625 C 16.847656 -9.976562 16.75 -9.375 16.75 -8.75 C 16.75 -8.050781 16.941406 -7.566406 17.328125 -7.296875 C 17.722656 -7.023438 18.269531 -6.890625 18.96875 -6.890625 C 19.59375 -6.890625 20.375 -6.96875 21.3125 -7.125 C 21.769531 -7.238281 22.175781 -7.296875 22.53125 -7.296875 C 22.800781 -7.296875 23.003906 -7.207031 23.140625 -7.03125 C 23.273438 -6.851562 23.34375 -6.628906 23.34375 -6.359375 C 23.382812 -5.585938 22.8125 -4.644531 21.625 -3.53125 C 20.4375 -2.425781 18.832031 -1.472656 16.8125 -0.671875 C 14.789062 0.128906 12.550781 0.53125 10.09375 0.53125 C 7.445312 0.53125 5.328125 -0.0703125 3.734375 -1.28125 C 2.140625 -2.488281 1.34375 -4.144531 1.34375 -6.25 C 1.34375 -7.21875 1.5 -8.148438 1.8125 -9.046875 L 5.546875 -20.609375 C 5.742188 -21.265625 5.84375 -21.789062 5.84375 -22.1875 C 5.84375 -22.957031 5.65625 -23.613281 5.28125 -24.15625 C 4.914062 -24.707031 4.398438 -25.273438 3.734375 -25.859375 C 3.148438 -26.398438 2.738281 -26.851562 2.5 -27.21875 C 2.269531 -27.59375 2.210938 -28.035156 2.328125 -28.546875 C 2.484375 -29.046875 2.816406 -29.429688 3.328125 -29.703125 C 3.835938 -29.984375 4.632812 -30.125 5.71875 -30.125 L 8.984375 -30.125 L 12.671875 -33.796875 C 13.953125 -35.078125 15.125 -35.972656 16.1875 -36.484375 C 17.257812 -36.992188 18.65625 -37.25 20.375 -37.25 C 22.820312 -37.25 24.046875 -36.3125 24.046875 -34.4375 C 24.046875 -33.851562 23.96875 -33.3125 23.8125 -32.8125 L 23 -30.125 Z M 26.09375 -30.125 "/></g></g></g><g fill="#292929" fill-opacity="1"><g transform="translate(147.305884, 80.452289)"><g><path d="M 20.84375 -30.875 C 25.3125 -30.875 28.890625 -30.046875 31.578125 -28.390625 C 34.265625 -26.742188 35.609375 -24.226562 35.609375 -20.84375 C 35.609375 -19.550781 35.375 -18.09375 34.90625 -16.46875 L 32.515625 -8.40625 C 32.472656 -8.25 32.453125 -8.054688 32.453125 -7.828125 C 32.453125 -7.203125 32.707031 -6.890625 33.21875 -6.890625 C 33.6875 -6.890625 34.082031 -7.09375 34.40625 -7.5 C 34.738281 -7.90625 34.960938 -8.109375 35.078125 -8.109375 C 35.273438 -8.109375 35.441406 -7.972656 35.578125 -7.703125 C 35.710938 -7.429688 35.78125 -7.117188 35.78125 -6.765625 C 35.820312 -5.722656 35.421875 -4.65625 34.578125 -3.5625 C 33.742188 -2.46875 32.625 -1.570312 31.21875 -0.875 C 29.820312 -0.175781 28.289062 0.171875 26.625 0.171875 C 24.59375 0.171875 22.859375 -0.195312 21.421875 -0.9375 C 19.984375 -1.675781 18.992188 -2.765625 18.453125 -4.203125 C 17.273438 -2.796875 15.890625 -1.710938 14.296875 -0.953125 C 12.703125 -0.203125 10.992188 0.171875 9.171875 0.171875 C 7.109375 0.171875 5.375 -0.222656 3.96875 -1.015625 C 2.570312 -1.816406 1.53125 -2.847656 0.84375 -4.109375 C 0.164062 -5.378906 -0.171875 -6.710938 -0.171875 -8.109375 C -0.171875 -8.734375 -0.113281 -9.335938 0 -9.921875 C 0.625 -12.609375 1.976562 -14.628906 4.0625 -15.984375 C 6.144531 -17.347656 8.625 -18.03125 11.5 -18.03125 C 14.726562 -18.03125 17.898438 -17.523438 21.015625 -16.515625 L 22.46875 -20.375 C 22.976562 -22.007812 23.234375 -23.273438 23.234375 -24.171875 C 23.191406 -25.097656 22.878906 -25.796875 22.296875 -26.265625 C 21.710938 -26.734375 20.816406 -26.96875 19.609375 -26.96875 C 19.847656 -26.34375 19.96875 -25.703125 19.96875 -25.046875 C 19.96875 -23.609375 19.421875 -22.363281 18.328125 -21.3125 C 17.234375 -20.257812 15.675781 -19.734375 13.65625 -19.734375 C 11.75 -19.734375 10.257812 -20.148438 9.1875 -20.984375 C 8.125 -21.816406 7.59375 -22.859375 7.59375 -24.109375 C 7.59375 -26.054688 8.679688 -27.671875 10.859375 -28.953125 C 13.035156 -30.234375 16.363281 -30.875 20.84375 -30.875 Z M 17.578125 -13.1875 C 16.484375 -13.1875 15.59375 -12.769531 14.90625 -11.9375 C 14.226562 -11.101562 13.890625 -10.195312 13.890625 -9.21875 C 13.890625 -8.601562 14.035156 -8.097656 14.328125 -7.703125 C 14.617188 -7.316406 15.039062 -7.125 15.59375 -7.125 C 16.09375 -7.125 16.644531 -7.328125 17.25 -7.734375 C 17.851562 -8.140625 18.289062 -8.753906 18.5625 -9.578125 L 19.796875 -13.015625 C 19.128906 -13.128906 18.390625 -13.1875 17.578125 -13.1875 Z M 17.578125 -13.1875 "/></g></g></g><g fill="#292929" fill-opacity="1"><g transform="translate(185.478441, 80.452289)"><g><path d="M 34.671875 -8.0625 C 34.597656 -7.75 34.5625 -7.515625 34.5625 -7.359375 C 34.5625 -7.085938 34.628906 -6.875 34.765625 -6.71875 C 34.898438 -6.5625 35.082031 -6.484375 35.3125 -6.484375 C 35.78125 -6.484375 36.179688 -6.6875 36.515625 -7.09375 C 36.847656 -7.5 37.070312 -7.703125 37.1875 -7.703125 C 37.382812 -7.703125 37.550781 -7.578125 37.6875 -7.328125 C 37.820312 -7.078125 37.890625 -6.773438 37.890625 -6.421875 C 37.921875 -5.328125 37.523438 -4.242188 36.703125 -3.171875 C 35.890625 -2.109375 34.742188 -1.222656 33.265625 -0.515625 C 31.796875 0.179688 30.144531 0.53125 28.3125 0.53125 C 26.019531 0.53125 24.191406 0.0625 22.828125 -0.875 C 21.460938 -1.8125 20.585938 -3.035156 20.203125 -4.546875 C 18.796875 -2.992188 17.242188 -1.816406 15.546875 -1.015625 C 13.859375 -0.222656 12.140625 0.171875 10.390625 0.171875 C 7.660156 0.171875 5.375 -0.5 3.53125 -1.84375 C 1.6875 -3.1875 0.765625 -5.0625 0.765625 -7.46875 C 0.765625 -8.5625 0.957031 -9.691406 1.34375 -10.859375 L 5.078125 -23.0625 C 5.191406 -23.40625 5.25 -23.695312 5.25 -23.9375 C 5.25 -24.363281 5.148438 -24.703125 4.953125 -24.953125 C 4.765625 -25.203125 4.476562 -25.46875 4.09375 -25.75 C 3.695312 -26.050781 3.421875 -26.316406 3.265625 -26.546875 C 3.109375 -26.785156 3.085938 -27.101562 3.203125 -27.5 C 3.441406 -28.394531 4.671875 -29.179688 6.890625 -29.859375 C 9.109375 -30.535156 11.421875 -30.875 13.828125 -30.875 C 16.085938 -30.875 17.742188 -30.445312 18.796875 -29.59375 C 19.847656 -28.738281 20.375 -27.570312 20.375 -26.09375 C 20.375 -25.195312 20.238281 -24.34375 19.96875 -23.53125 L 16.28125 -11.390625 C 16.125 -10.953125 16.046875 -10.539062 16.046875 -10.15625 C 16.046875 -9.613281 16.203125 -9.203125 16.515625 -8.921875 C 16.828125 -8.648438 17.238281 -8.515625 17.75 -8.515625 C 18.488281 -8.515625 19.085938 -8.726562 19.546875 -9.15625 C 20.015625 -9.59375 20.484375 -10.316406 20.953125 -11.328125 L 24.515625 -23.0625 C 24.628906 -23.40625 24.6875 -23.695312 24.6875 -23.9375 C 24.6875 -24.363281 24.585938 -24.703125 24.390625 -24.953125 C 24.203125 -25.203125 23.929688 -25.46875 23.578125 -25.75 C 23.191406 -26.050781 22.921875 -26.316406 22.765625 -26.546875 C 22.609375 -26.785156 22.585938 -27.101562 22.703125 -27.5 C 22.898438 -28.394531 24.109375 -29.179688 26.328125 -29.859375 C 28.546875 -30.535156 30.863281 -30.875 33.28125 -30.875 C 35.53125 -30.875 37.191406 -30.445312 38.265625 -29.59375 C 39.335938 -28.738281 39.875 -27.59375 39.875 -26.15625 C 39.875 -25.414062 39.71875 -24.539062 39.40625 -23.53125 Z M 34.671875 -8.0625 "/></g></g></g><g fill="#292929" fill-opacity="1"><g transform="translate(225.518785, 80.452289)"><g><path d="M 28.65625 -30.875 C 30.84375 -30.875 32.585938 -30.210938 33.890625 -28.890625 C 35.191406 -27.566406 35.84375 -25.929688 35.84375 -23.984375 C 35.84375 -23.253906 35.765625 -22.578125 35.609375 -21.953125 C 35.222656 -20.359375 34.484375 -19.128906 33.390625 -18.265625 C 32.296875 -17.410156 30.992188 -16.984375 29.484375 -16.984375 C 28.003906 -16.984375 26.882812 -17.332031 26.125 -18.03125 C 25.363281 -18.738281 24.691406 -19.675781 24.109375 -20.84375 C 23.796875 -21.5 23.503906 -21.984375 23.234375 -22.296875 C 22.960938 -22.609375 22.648438 -22.765625 22.296875 -22.765625 C 21.910156 -22.765625 21.570312 -22.609375 21.28125 -22.296875 C 20.988281 -21.984375 20.722656 -21.441406 20.484375 -20.671875 L 16 -6.078125 C 15.914062 -5.878906 15.875 -5.585938 15.875 -5.203125 C 15.875 -4.691406 16.019531 -4.269531 16.3125 -3.9375 C 16.601562 -3.601562 17.003906 -3.285156 17.515625 -2.984375 C 17.984375 -2.671875 18.296875 -2.414062 18.453125 -2.21875 C 18.609375 -2.019531 18.664062 -1.765625 18.625 -1.453125 C 18.539062 -0.953125 18.253906 -0.582031 17.765625 -0.34375 C 17.285156 -0.113281 16.460938 0 15.296875 0 L 0.34375 0 C -0.664062 0 -1.394531 -0.164062 -1.84375 -0.5 C -2.289062 -0.832031 -2.453125 -1.269531 -2.328125 -1.8125 C -2.171875 -2.28125 -1.765625 -2.6875 -1.109375 -3.03125 C -0.523438 -3.34375 -0.0390625 -3.710938 0.34375 -4.140625 C 0.738281 -4.566406 1.070312 -5.25 1.34375 -6.1875 L 6.53125 -23.0625 C 6.613281 -23.25 6.65625 -23.519531 6.65625 -23.875 C 6.65625 -24.300781 6.566406 -24.628906 6.390625 -24.859375 C 6.210938 -25.097656 5.929688 -25.394531 5.546875 -25.75 C 5.160156 -26.050781 4.890625 -26.316406 4.734375 -26.546875 C 4.578125 -26.785156 4.554688 -27.101562 4.671875 -27.5 C 4.898438 -28.394531 6.125 -29.179688 8.34375 -29.859375 C 10.5625 -30.535156 12.878906 -30.875 15.296875 -30.875 C 16.890625 -30.875 18.210938 -30.515625 19.265625 -29.796875 C 20.316406 -29.078125 21 -28.054688 21.3125 -26.734375 C 23.175781 -29.492188 25.625 -30.875 28.65625 -30.875 Z M 28.65625 -30.875 "/></g></g></g><g fill="#292929" fill-opacity="1"><g transform="translate(259.313749, 80.452289)"><g><path d="M 20.84375 -30.875 C 25.3125 -30.875 28.890625 -30.046875 31.578125 -28.390625 C 34.265625 -26.742188 35.609375 -24.226562 35.609375 -20.84375 C 35.609375 -19.550781 35.375 -18.09375 34.90625 -16.46875 L 32.515625 -8.40625 C 32.472656 -8.25 32.453125 -8.054688 32.453125 -7.828125 C 32.453125 -7.203125 32.707031 -6.890625 33.21875 -6.890625 C 33.6875 -6.890625 34.082031 -7.09375 34.40625 -7.5 C 34.738281 -7.90625 34.960938 -8.109375 35.078125 -8.109375 C 35.273438 -8.109375 35.441406 -7.972656 35.578125 -7.703125 C 35.710938 -7.429688 35.78125 -7.117188 35.78125 -6.765625 C 35.820312 -5.722656 35.421875 -4.65625 34.578125 -3.5625 C 33.742188 -2.46875 32.625 -1.570312 31.21875 -0.875 C 29.820312 -0.175781 28.289062 0.171875 26.625 0.171875 C 24.59375 0.171875 22.859375 -0.195312 21.421875 -0.9375 C 19.984375 -1.675781 18.992188 -2.765625 18.453125 -4.203125 C 17.273438 -2.796875 15.890625 -1.710938 14.296875 -0.953125 C 12.703125 -0.203125 10.992188 0.171875 9.171875 0.171875 C 7.109375 0.171875 5.375 -0.222656 3.96875 -1.015625 C 2.570312 -1.816406 1.53125 -2.847656 0.84375 -4.109375 C 0.164062 -5.378906 -0.171875 -6.710938 -0.171875 -8.109375 C -0.171875 -8.734375 -0.113281 -9.335938 0 -9.921875 C 0.625 -12.609375 1.976562 -14.628906 4.0625 -15.984375 C 6.144531 -17.347656 8.625 -18.03125 11.5 -18.03125 C 14.726562 -18.03125 17.898438 -17.523438 21.015625 -16.515625 L 22.46875 -20.375 C 22.976562 -22.007812 23.234375 -23.273438 23.234375 -24.171875 C 23.191406 -25.097656 22.878906 -25.796875 22.296875 -26.265625 C 21.710938 -26.734375 20.816406 -26.96875 19.609375 -26.96875 C 19.847656 -26.34375 19.96875 -25.703125 19.96875 -25.046875 C 19.96875 -23.609375 19.421875 -22.363281 18.328125 -21.3125 C 17.234375 -20.257812 15.675781 -19.734375 13.65625 -19.734375 C 11.75 -19.734375 10.257812 -20.148438 9.1875 -20.984375 C 8.125 -21.816406 7.59375 -22.859375 7.59375 -24.109375 C 7.59375 -26.054688 8.679688 -27.671875 10.859375 -28.953125 C 13.035156 -30.234375 16.363281 -30.875 20.84375 -30.875 Z M 17.578125 -13.1875 C 16.484375 -13.1875 15.59375 -12.769531 14.90625 -11.9375 C 14.226562 -11.101562 13.890625 -10.195312 13.890625 -9.21875 C 13.890625 -8.601562 14.035156 -8.097656 14.328125 -7.703125 C 14.617188 -7.316406 15.039062 -7.125 15.59375 -7.125 C 16.09375 -7.125 16.644531 -7.328125 17.25 -7.734375 C 17.851562 -8.140625 18.289062 -8.753906 18.5625 -9.578125 L 19.796875 -13.015625 C 19.128906 -13.128906 18.390625 -13.1875 17.578125 -13.1875 Z M 17.578125 -13.1875 "/></g></g></g><g fill="#292929" fill-opacity="1"><g transform="translate(297.486306, 80.452289)"><g><path d="M 36.140625 -8.0625 C 36.054688 -7.90625 36.015625 -7.671875 36.015625 -7.359375 C 36.015625 -7.085938 36.082031 -6.875 36.21875 -6.71875 C 36.351562 -6.5625 36.539062 -6.484375 36.78125 -6.484375 C 37.25 -6.484375 37.644531 -6.6875 37.96875 -7.09375 C 38.300781 -7.5 38.523438 -7.703125 38.640625 -7.703125 C 38.835938 -7.703125 38.992188 -7.578125 39.109375 -7.328125 C 39.222656 -7.078125 39.28125 -6.773438 39.28125 -6.421875 C 39.320312 -5.296875 38.953125 -4.195312 38.171875 -3.125 C 37.398438 -2.050781 36.265625 -1.171875 34.765625 -0.484375 C 33.265625 0.191406 31.460938 0.53125 29.359375 0.53125 C 26.796875 0.53125 24.753906 -0.0625 23.234375 -1.25 C 21.710938 -2.4375 20.929688 -4.023438 20.890625 -6.015625 C 20.890625 -7.453125 21.242188 -9.066406 21.953125 -10.859375 L 25.15625 -19.265625 C 25.351562 -19.765625 25.453125 -20.171875 25.453125 -20.484375 C 25.453125 -20.992188 25.285156 -21.394531 24.953125 -21.6875 C 24.617188 -21.976562 24.222656 -22.125 23.765625 -22.125 C 22.898438 -22.125 22.078125 -21.722656 21.296875 -20.921875 C 20.523438 -20.128906 19.960938 -19.148438 19.609375 -17.984375 L 16 -6.078125 C 15.84375 -5.640625 15.765625 -5.226562 15.765625 -4.84375 C 15.765625 -4.375 15.859375 -3.992188 16.046875 -3.703125 C 16.242188 -3.410156 16.519531 -3.109375 16.875 -2.796875 C 17.144531 -2.566406 17.335938 -2.351562 17.453125 -2.15625 C 17.566406 -1.96875 17.585938 -1.734375 17.515625 -1.453125 C 17.359375 -0.953125 16.988281 -0.582031 16.40625 -0.34375 C 15.820312 -0.113281 14.90625 0 13.65625 0 L 0.34375 0 C -0.664062 0 -1.394531 -0.164062 -1.84375 -0.5 C -2.289062 -0.832031 -2.453125 -1.269531 -2.328125 -1.8125 C -2.171875 -2.28125 -1.765625 -2.6875 -1.109375 -3.03125 C -0.523438 -3.34375 -0.0390625 -3.710938 0.34375 -4.140625 C 0.738281 -4.566406 1.070312 -5.25 1.34375 -6.1875 L 6.53125 -23.0625 C 6.613281 -23.25 6.65625 -23.519531 6.65625 -23.875 C 6.65625 -24.300781 6.566406 -24.628906 6.390625 -24.859375 C 6.210938 -25.097656 5.929688 -25.394531 5.546875 -25.75 C 5.160156 -26.050781 4.890625 -26.316406 4.734375 -26.546875 C 4.578125 -26.785156 4.554688 -27.101562 4.671875 -27.5 C 4.898438 -28.394531 6.125 -29.179688 8.34375 -29.859375 C 10.5625 -30.535156 12.878906 -30.875 15.296875 -30.875 C 17.242188 -30.875 18.78125 -30.335938 19.90625 -29.265625 C 21.03125 -28.203125 21.535156 -26.71875 21.421875 -24.8125 C 23.015625 -27.101562 24.707031 -28.6875 26.5 -29.5625 C 28.289062 -30.4375 30.238281 -30.875 32.34375 -30.875 C 34.71875 -30.875 36.632812 -30.15625 38.09375 -28.71875 C 39.550781 -27.28125 40.28125 -25.410156 40.28125 -23.109375 C 40.28125 -21.910156 40.082031 -20.726562 39.6875 -19.5625 Z M 36.140625 -8.0625 "/></g></g></g><g fill="#292929" fill-opacity="1"><g transform="translate(339.277676, 80.452289)"><g><path d="M 26.09375 -30.125 C 26.832031 -30.125 27.40625 -29.96875 27.8125 -29.65625 C 28.21875 -29.34375 28.421875 -28.914062 28.421875 -28.375 C 28.421875 -28.21875 28.382812 -27.941406 28.3125 -27.546875 C 27.800781 -25.835938 26.632812 -24.984375 24.8125 -24.984375 L 21.421875 -24.984375 L 17.046875 -10.5625 C 16.847656 -9.976562 16.75 -9.375 16.75 -8.75 C 16.75 -8.050781 16.941406 -7.566406 17.328125 -7.296875 C 17.722656 -7.023438 18.269531 -6.890625 18.96875 -6.890625 C 19.59375 -6.890625 20.375 -6.96875 21.3125 -7.125 C 21.769531 -7.238281 22.175781 -7.296875 22.53125 -7.296875 C 22.800781 -7.296875 23.003906 -7.207031 23.140625 -7.03125 C 23.273438 -6.851562 23.34375 -6.628906 23.34375 -6.359375 C 23.382812 -5.585938 22.8125 -4.644531 21.625 -3.53125 C 20.4375 -2.425781 18.832031 -1.472656 16.8125 -0.671875 C 14.789062 0.128906 12.550781 0.53125 10.09375 0.53125 C 7.445312 0.53125 5.328125 -0.0703125 3.734375 -1.28125 C 2.140625 -2.488281 1.34375 -4.144531 1.34375 -6.25 C 1.34375 -7.21875 1.5 -8.148438 1.8125 -9.046875 L 5.546875 -20.609375 C 5.742188 -21.265625 5.84375 -21.789062 5.84375 -22.1875 C 5.84375 -22.957031 5.65625 -23.613281 5.28125 -24.15625 C 4.914062 -24.707031 4.398438 -25.273438 3.734375 -25.859375 C 3.148438 -26.398438 2.738281 -26.851562 2.5 -27.21875 C 2.269531 -27.59375 2.210938 -28.035156 2.328125 -28.546875 C 2.484375 -29.046875 2.816406 -29.429688 3.328125 -29.703125 C 3.835938 -29.984375 4.632812 -30.125 5.71875 -30.125 L 8.984375 -30.125 L 12.671875 -33.796875 C 13.953125 -35.078125 15.125 -35.972656 16.1875 -36.484375 C 17.257812 -36.992188 18.65625 -37.25 20.375 -37.25 C 22.820312 -37.25 24.046875 -36.3125 24.046875 -34.4375 C 24.046875 -33.851562 23.96875 -33.3125 23.8125 -32.8125 L 23 -30.125 Z M 26.09375 -30.125 "/></g></g></g><g fill="#292929" fill-opacity="0.4"><g transform="translate(99.458407, 159.824335)"><g><path d="M 31.3125 -56.703125 C 36.78125 -56.703125 40.882812 -55.867188 43.625 -54.203125 C 46.363281 -52.546875 47.734375 -50.515625 47.734375 -48.109375 C 47.734375 -46.171875 46.925781 -44.675781 45.3125 -43.625 C 43.695312 -42.570312 41.585938 -42.046875 38.984375 -42.046875 C 36.578125 -42.046875 34.707031 -42.632812 33.375 -43.8125 C 32.050781 -44.988281 31.390625 -46.445312 31.390625 -48.1875 C 31.390625 -49.257812 31.71875 -50.382812 32.375 -51.5625 C 30.84375 -51.5625 29.566406 -51.191406 28.546875 -50.453125 C 27.523438 -49.710938 26.734375 -48.445312 26.171875 -46.65625 C 25.859375 -45.53125 25.703125 -44.484375 25.703125 -43.515625 C 25.703125 -42.285156 25.921875 -41.320312 26.359375 -40.625 C 26.796875 -39.9375 27.421875 -39.59375 28.234375 -39.59375 L 32.765625 -39.59375 C 35.421875 -39.59375 36.75 -38.773438 36.75 -37.140625 C 36.75 -36.929688 36.703125 -36.625 36.609375 -36.21875 C 36.296875 -35.09375 35.664062 -34.25 34.71875 -33.6875 C 33.769531 -33.125 32.351562 -32.84375 30.46875 -32.84375 L 28.15625 -32.84375 L 20.5625 -7.984375 C 20.40625 -7.367188 20.328125 -6.832031 20.328125 -6.375 C 20.328125 -5.707031 20.457031 -5.179688 20.71875 -4.796875 C 20.976562 -4.410156 21.335938 -4.039062 21.796875 -3.6875 C 22.148438 -3.320312 22.40625 -3.023438 22.5625 -2.796875 C 22.71875 -2.566406 22.742188 -2.273438 22.640625 -1.921875 C 22.378906 -1.253906 21.863281 -0.765625 21.09375 -0.453125 C 20.332031 -0.148438 19.160156 0 17.578125 0 L 0.078125 0 C -1.253906 0 -2.226562 -0.210938 -2.84375 -0.640625 C -3.457031 -1.078125 -3.660156 -1.65625 -3.453125 -2.375 C -3.242188 -2.988281 -2.707031 -3.523438 -1.84375 -3.984375 C -1.070312 -4.398438 -0.429688 -4.890625 0.078125 -5.453125 C 0.585938 -6.015625 1.019531 -6.910156 1.375 -8.140625 L 7.359375 -27.78125 C 7.617188 -28.539062 7.75 -29.332031 7.75 -30.15625 C 7.75 -31.175781 7.53125 -31.976562 7.09375 -32.5625 C 6.664062 -33.15625 6.015625 -33.8125 5.140625 -34.53125 C 4.578125 -34.988281 4.15625 -35.382812 3.875 -35.71875 C 3.59375 -36.050781 3.453125 -36.445312 3.453125 -36.90625 C 3.398438 -37.875 3.742188 -38.5625 4.484375 -38.96875 C 5.234375 -39.382812 6.65625 -39.59375 8.75 -39.59375 L 10.671875 -39.59375 C 10.304688 -40.875 10.125 -42.15625 10.125 -43.4375 C 10.125 -44.707031 10.351562 -46.035156 10.8125 -47.421875 C 11.789062 -50.023438 13.878906 -52.222656 17.078125 -54.015625 C 20.273438 -55.804688 25.019531 -56.703125 31.3125 -56.703125 Z M 31.3125 -56.703125 "/></g></g></g><g fill="#292929" fill-opacity="0.4"><g transform="translate(131.377674, 159.824335)"><g><path d="M 29.703125 -40.59375 C 36.648438 -40.59375 41.773438 -39.1875 45.078125 -36.375 C 48.378906 -33.5625 50.03125 -29.878906 50.03125 -25.328125 C 50.03125 -23.785156 49.828125 -22.070312 49.421875 -20.1875 C 48.441406 -15.988281 46.625 -12.316406 43.96875 -9.171875 C 41.3125 -6.023438 38.050781 -3.59375 34.1875 -1.875 C 30.320312 -0.164062 26.140625 0.6875 21.640625 0.6875 C 14.523438 0.6875 9.265625 -0.726562 5.859375 -3.5625 C 2.460938 -6.40625 0.765625 -10.179688 0.765625 -14.890625 C 0.765625 -16.472656 0.96875 -18.238281 1.375 -20.1875 C 2.351562 -24.175781 4.207031 -27.71875 6.9375 -30.8125 C 9.675781 -33.90625 13.023438 -36.304688 16.984375 -38.015625 C 20.953125 -39.734375 25.191406 -40.59375 29.703125 -40.59375 Z M 29.46875 -33.765625 C 28.394531 -33.765625 27.253906 -32.804688 26.046875 -30.890625 C 24.847656 -28.972656 23.429688 -25.351562 21.796875 -20.03125 C 20.160156 -14.707031 19.34375 -10.972656 19.34375 -8.828125 C 19.34375 -7.703125 19.519531 -6.945312 19.875 -6.5625 C 20.226562 -6.175781 20.710938 -5.984375 21.328125 -5.984375 C 22.398438 -5.878906 23.507812 -6.796875 24.65625 -8.734375 C 25.8125 -10.679688 27.257812 -14.472656 29 -20.109375 C 30.59375 -25.066406 31.390625 -28.671875 31.390625 -30.921875 C 31.390625 -31.992188 31.222656 -32.734375 30.890625 -33.140625 C 30.554688 -33.554688 30.082031 -33.765625 29.46875 -33.765625 Z M 29.46875 -33.765625 "/></g></g></g><g fill="#292929" fill-opacity="0.4"><g transform="translate(181.711902, 159.824335)"><g><path d="M 29.703125 -40.59375 C 36.648438 -40.59375 41.773438 -39.1875 45.078125 -36.375 C 48.378906 -33.5625 50.03125 -29.878906 50.03125 -25.328125 C 50.03125 -23.785156 49.828125 -22.070312 49.421875 -20.1875 C 48.441406 -15.988281 46.625 -12.316406 43.96875 -9.171875 C 41.3125 -6.023438 38.050781 -3.59375 34.1875 -1.875 C 30.320312 -0.164062 26.140625 0.6875 21.640625 0.6875 C 14.523438 0.6875 9.265625 -0.726562 5.859375 -3.5625 C 2.460938 -6.40625 0.765625 -10.179688 0.765625 -14.890625 C 0.765625 -16.472656 0.96875 -18.238281 1.375 -20.1875 C 2.351562 -24.175781 4.207031 -27.71875 6.9375 -30.8125 C 9.675781 -33.90625 13.023438 -36.304688 16.984375 -38.015625 C 20.953125 -39.734375 25.191406 -40.59375 29.703125 -40.59375 Z M 29.46875 -33.765625 C 28.394531 -33.765625 27.253906 -32.804688 26.046875 -30.890625 C 24.847656 -28.972656 23.429688 -25.351562 21.796875 -20.03125 C 20.160156 -14.707031 19.34375 -10.972656 19.34375 -8.828125 C 19.34375 -7.703125 19.519531 -6.945312 19.875 -6.5625 C 20.226562 -6.175781 20.710938 -5.984375 21.328125 -5.984375 C 22.398438 -5.878906 23.507812 -6.796875 24.65625 -8.734375 C 25.8125 -10.679688 27.257812 -14.472656 29 -20.109375 C 30.59375 -25.066406 31.390625 -28.671875 31.390625 -30.921875 C 31.390625 -31.992188 31.222656 -32.734375 30.890625 -33.140625 C 30.554688 -33.554688 30.082031 -33.765625 29.46875 -33.765625 Z M 29.46875 -33.765625 "/></g></g></g><g fill="#292929" fill-opacity="0.4"><g transform="translate(232.04613, 159.824335)"><g><path d="M 42.890625 -11.046875 C 42.785156 -10.640625 42.734375 -10.359375 42.734375 -10.203125 C 42.734375 -9.847656 42.835938 -9.566406 43.046875 -9.359375 C 43.253906 -9.148438 43.507812 -9.046875 43.8125 -9.046875 C 44.425781 -9.046875 44.953125 -9.316406 45.390625 -9.859375 C 45.828125 -10.398438 46.117188 -10.671875 46.265625 -10.671875 C 46.523438 -10.671875 46.726562 -10.488281 46.875 -10.125 C 47.03125 -9.769531 47.109375 -9.363281 47.109375 -8.90625 C 47.160156 -7.519531 46.632812 -6.109375 45.53125 -4.671875 C 44.4375 -3.242188 42.96875 -2.066406 41.125 -1.140625 C 39.28125 -0.222656 37.285156 0.234375 35.140625 0.234375 C 32.585938 0.234375 30.363281 -0.25 28.46875 -1.21875 C 26.570312 -2.195312 25.269531 -3.476562 24.5625 -5.0625 C 23.175781 -3.269531 21.585938 -1.9375 19.796875 -1.0625 C 18.003906 -0.195312 16.113281 0.234375 14.125 0.234375 C 11.769531 0.234375 9.582031 -0.351562 7.5625 -1.53125 C 5.539062 -2.707031 3.925781 -4.382812 2.71875 -6.5625 C 1.519531 -8.738281 0.921875 -11.207031 0.921875 -13.96875 C 0.921875 -18.625 1.800781 -23.007812 3.5625 -27.125 C 5.332031 -31.238281 7.800781 -34.5625 10.96875 -37.09375 C 14.144531 -39.632812 17.753906 -40.90625 21.796875 -40.90625 C 23.992188 -40.90625 25.867188 -40.644531 27.421875 -40.125 C 28.984375 -39.613281 30.40625 -38.847656 31.6875 -37.828125 L 34.296875 -46.421875 C 34.453125 -46.878906 34.53125 -47.265625 34.53125 -47.578125 C 34.53125 -48.140625 34.390625 -48.597656 34.109375 -48.953125 C 33.828125 -49.316406 33.457031 -49.675781 33 -50.03125 C 32.488281 -50.4375 32.113281 -50.789062 31.875 -51.09375 C 31.644531 -51.40625 31.609375 -51.816406 31.765625 -52.328125 C 32.078125 -53.503906 33.6875 -54.523438 36.59375 -55.390625 C 39.507812 -56.265625 42.554688 -56.703125 45.734375 -56.703125 C 48.703125 -56.703125 50.890625 -56.140625 52.296875 -55.015625 C 53.703125 -53.890625 54.40625 -52.359375 54.40625 -50.421875 C 54.40625 -49.285156 54.226562 -48.179688 53.875 -47.109375 Z M 30.078125 -32.609375 C 29.265625 -33.328125 28.367188 -33.6875 27.390625 -33.6875 C 25.910156 -33.6875 24.453125 -32.585938 23.015625 -30.390625 C 21.585938 -28.191406 20.4375 -25.53125 19.5625 -22.40625 C 18.695312 -19.28125 18.289062 -16.46875 18.34375 -13.96875 C 18.34375 -11.15625 19.265625 -9.75 21.109375 -9.75 C 21.765625 -9.75 22.320312 -10.015625 22.78125 -10.546875 C 23.25 -11.085938 23.6875 -11.972656 24.09375 -13.203125 Z M 30.078125 -32.609375 "/></g></g></g><g fill="#292929" fill-opacity="1"><g transform="translate(96.067306, 156.433233)"><g><path d="M 31.3125 -56.703125 C 36.78125 -56.703125 40.882812 -55.867188 43.625 -54.203125 C 46.363281 -52.546875 47.734375 -50.515625 47.734375 -48.109375 C 47.734375 -46.171875 46.925781 -44.675781 45.3125 -43.625 C 43.695312 -42.570312 41.585938 -42.046875 38.984375 -42.046875 C 36.578125 -42.046875 34.707031 -42.632812 33.375 -43.8125 C 32.050781 -44.988281 31.390625 -46.445312 31.390625 -48.1875 C 31.390625 -49.257812 31.71875 -50.382812 32.375 -51.5625 C 30.84375 -51.5625 29.566406 -51.191406 28.546875 -50.453125 C 27.523438 -49.710938 26.734375 -48.445312 26.171875 -46.65625 C 25.859375 -45.53125 25.703125 -44.484375 25.703125 -43.515625 C 25.703125 -42.285156 25.921875 -41.320312 26.359375 -40.625 C 26.796875 -39.9375 27.421875 -39.59375 28.234375 -39.59375 L 32.765625 -39.59375 C 35.421875 -39.59375 36.75 -38.773438 36.75 -37.140625 C 36.75 -36.929688 36.703125 -36.625 36.609375 -36.21875 C 36.296875 -35.09375 35.664062 -34.25 34.71875 -33.6875 C 33.769531 -33.125 32.351562 -32.84375 30.46875 -32.84375 L 28.15625 -32.84375 L 20.5625 -7.984375 C 20.40625 -7.367188 20.328125 -6.832031 20.328125 -6.375 C 20.328125 -5.707031 20.457031 -5.179688 20.71875 -4.796875 C 20.976562 -4.410156 21.335938 -4.039062 21.796875 -3.6875 C 22.148438 -3.320312 22.40625 -3.023438 22.5625 -2.796875 C 22.71875 -2.566406 22.742188 -2.273438 22.640625 -1.921875 C 22.378906 -1.253906 21.863281 -0.765625 21.09375 -0.453125 C 20.332031 -0.148438 19.160156 0 17.578125 0 L 0.078125 0 C -1.253906 0 -2.226562 -0.210938 -2.84375 -0.640625 C -3.457031 -1.078125 -3.660156 -1.65625 -3.453125 -2.375 C -3.242188 -2.988281 -2.707031 -3.523438 -1.84375 -3.984375 C -1.070312 -4.398438 -0.429688 -4.890625 0.078125 -5.453125 C 0.585938 -6.015625 1.019531 -6.910156 1.375 -8.140625 L 7.359375 -27.78125 C 7.617188 -28.539062 7.75 -29.332031 7.75 -30.15625 C 7.75 -31.175781 7.53125 -31.976562 7.09375 -32.5625 C 6.664062 -33.15625 6.015625 -33.8125 5.140625 -34.53125 C 4.578125 -34.988281 4.15625 -35.382812 3.875 -35.71875 C 3.59375 -36.050781 3.453125 -36.445312 3.453125 -36.90625 C 3.398438 -37.875 3.742188 -38.5625 4.484375 -38.96875 C 5.234375 -39.382812 6.65625 -39.59375 8.75 -39.59375 L 10.671875 -39.59375 C 10.304688 -40.875 10.125 -42.15625 10.125 -43.4375 C 10.125 -44.707031 10.351562 -46.035156 10.8125 -47.421875 C 11.789062 -50.023438 13.878906 -52.222656 17.078125 -54.015625 C 20.273438 -55.804688 25.019531 -56.703125 31.3125 -56.703125 Z M 31.3125 -56.703125 "/></g></g></g><g fill="#292929" fill-opacity="1"><g transform="translate(127.986573, 156.433233)"><g><path d="M 29.703125 -40.59375 C 36.648438 -40.59375 41.773438 -39.1875 45.078125 -36.375 C 48.378906 -33.5625 50.03125 -29.878906 50.03125 -25.328125 C 50.03125 -23.785156 49.828125 -22.070312 49.421875 -20.1875 C 48.441406 -15.988281 46.625 -12.316406 43.96875 -9.171875 C 41.3125 -6.023438 38.050781 -3.59375 34.1875 -1.875 C 30.320312 -0.164062 26.140625 0.6875 21.640625 0.6875 C 14.523438 0.6875 9.265625 -0.726562 5.859375 -3.5625 C 2.460938 -6.40625 0.765625 -10.179688 0.765625 -14.890625 C 0.765625 -16.472656 0.96875 -18.238281 1.375 -20.1875 C 2.351562 -24.175781 4.207031 -27.71875 6.9375 -30.8125 C 9.675781 -33.90625 13.023438 -36.304688 16.984375 -38.015625 C 20.953125 -39.734375 25.191406 -40.59375 29.703125 -40.59375 Z M 29.46875 -33.765625 C 28.394531 -33.765625 27.253906 -32.804688 26.046875 -30.890625 C 24.847656 -28.972656 23.429688 -25.351562 21.796875 -20.03125 C 20.160156 -14.707031 19.34375 -10.972656 19.34375 -8.828125 C 19.34375 -7.703125 19.519531 -6.945312 19.875 -6.5625 C 20.226562 -6.175781 20.710938 -5.984375 21.328125 -5.984375 C 22.398438 -5.878906 23.507812 -6.796875 24.65625 -8.734375 C 25.8125 -10.679688 27.257812 -14.472656 29 -20.109375 C 30.59375 -25.066406 31.390625 -28.671875 31.390625 -30.921875 C 31.390625 -31.992188 31.222656 -32.734375 30.890625 -33.140625 C 30.554688 -33.554688 30.082031 -33.765625 29.46875 -33.765625 Z M 29.46875 -33.765625 "/></g></g></g><g fill="#292929" fill-opacity="1"><g transform="translate(178.320801, 156.433233)"><g><path d="M 29.703125 -40.59375 C 36.648438 -40.59375 41.773438 -39.1875 45.078125 -36.375 C 48.378906 -33.5625 50.03125 -29.878906 50.03125 -25.328125 C 50.03125 -23.785156 49.828125 -22.070312 49.421875 -20.1875 C 48.441406 -15.988281 46.625 -12.316406 43.96875 -9.171875 C 41.3125 -6.023438 38.050781 -3.59375 34.1875 -1.875 C 30.320312 -0.164062 26.140625 0.6875 21.640625 0.6875 C 14.523438 0.6875 9.265625 -0.726562 5.859375 -3.5625 C 2.460938 -6.40625 0.765625 -10.179688 0.765625 -14.890625 C 0.765625 -16.472656 0.96875 -18.238281 1.375 -20.1875 C 2.351562 -24.175781 4.207031 -27.71875 6.9375 -30.8125 C 9.675781 -33.90625 13.023438 -36.304688 16.984375 -38.015625 C 20.953125 -39.734375 25.191406 -40.59375 29.703125 -40.59375 Z M 29.46875 -33.765625 C 28.394531 -33.765625 27.253906 -32.804688 26.046875 -30.890625 C 24.847656 -28.972656 23.429688 -25.351562 21.796875 -20.03125 C 20.160156 -14.707031 19.34375 -10.972656 19.34375 -8.828125 C 19.34375 -7.703125 19.519531 -6.945312 19.875 -6.5625 C 20.226562 -6.175781 20.710938 -5.984375 21.328125 -5.984375 C 22.398438 -5.878906 23.507812 -6.796875 24.65625 -8.734375 C 25.8125 -10.679688 27.257812 -14.472656 29 -20.109375 C 30.59375 -25.066406 31.390625 -28.671875 31.390625 -30.921875 C 31.390625 -31.992188 31.222656 -32.734375 30.890625 -33.140625 C 30.554688 -33.554688 30.082031 -33.765625 29.46875 -33.765625 Z M 29.46875 -33.765625 "/></g></g></g><g fill="#292929" fill-opacity="1"><g transform="translate(228.655029, 156.433233)"><g><path d="M 42.890625 -11.046875 C 42.785156 -10.640625 42.734375 -10.359375 42.734375 -10.203125 C 42.734375 -9.847656 42.835938 -9.566406 43.046875 -9.359375 C 43.253906 -9.148438 43.507812 -9.046875 43.8125 -9.046875 C 44.425781 -9.046875 44.953125 -9.316406 45.390625 -9.859375 C 45.828125 -10.398438 46.117188 -10.671875 46.265625 -10.671875 C 46.523438 -10.671875 46.726562 -10.488281 46.875 -10.125 C 47.03125 -9.769531 47.109375 -9.363281 47.109375 -8.90625 C 47.160156 -7.519531 46.632812 -6.109375 45.53125 -4.671875 C 44.4375 -3.242188 42.96875 -2.066406 41.125 -1.140625 C 39.28125 -0.222656 37.285156 0.234375 35.140625 0.234375 C 32.585938 0.234375 30.363281 -0.25 28.46875 -1.21875 C 26.570312 -2.195312 25.269531 -3.476562 24.5625 -5.0625 C 23.175781 -3.269531 21.585938 -1.9375 19.796875 -1.0625 C 18.003906 -0.195312 16.113281 0.234375 14.125 0.234375 C 11.769531 0.234375 9.582031 -0.351562 7.5625 -1.53125 C 5.539062 -2.707031 3.925781 -4.382812 2.71875 -6.5625 C 1.519531 -8.738281 0.921875 -11.207031 0.921875 -13.96875 C 0.921875 -18.625 1.800781 -23.007812 3.5625 -27.125 C 5.332031 -31.238281 7.800781 -34.5625 10.96875 -37.09375 C 14.144531 -39.632812 17.753906 -40.90625 21.796875 -40.90625 C 23.992188 -40.90625 25.867188 -40.644531 27.421875 -40.125 C 28.984375 -39.613281 30.40625 -38.847656 31.6875 -37.828125 L 34.296875 -46.421875 C 34.453125 -46.878906 34.53125 -47.265625 34.53125 -47.578125 C 34.53125 -48.140625 34.390625 -48.597656 34.109375 -48.953125 C 33.828125 -49.316406 33.457031 -49.675781 33 -50.03125 C 32.488281 -50.4375 32.113281 -50.789062 31.875 -51.09375 C 31.644531 -51.40625 31.609375 -51.816406 31.765625 -52.328125 C 32.078125 -53.503906 33.6875 -54.523438 36.59375 -55.390625 C 39.507812 -56.265625 42.554688 -56.703125 45.734375 -56.703125 C 48.703125 -56.703125 50.890625 -56.140625 52.296875 -55.015625 C 53.703125 -53.890625 54.40625 -52.359375 54.40625 -50.421875 C 54.40625 -49.285156 54.226562 -48.179688 53.875 -47.109375 Z M 30.078125 -32.609375 C 29.265625 -33.328125 28.367188 -33.6875 27.390625 -33.6875 C 25.910156 -33.6875 24.453125 -32.585938 23.015625 -30.390625 C 21.585938 -28.191406 20.4375 -25.53125 19.5625 -22.40625 C 18.695312 -19.28125 18.289062 -16.46875 18.34375 -13.96875 C 18.34375 -11.15625 19.265625 -9.75 21.109375 -9.75 C 21.765625 -9.75 22.320312 -10.015625 22.78125 -10.546875 C 23.25 -11.085938 23.6875 -11.972656 24.09375 -13.203125 Z M 30.078125 -32.609375 "/></g></g></g></svg>