<svg xmlns="http://www.w3.org/2000/svg" xmlns:xlink="http://www.w3.org/1999/xlink" width="500" zoomAndPan="magnify" viewBox="0 0 375 74.999997" height="100" preserveAspectRatio="xMidYMid meet" version="1.0"><defs><clipPath id="5573588fbe"><path d="M 1 33.5 L 148 33.5 L 148 41 L 1 41 Z M 1 33.5 " clip-rule="nonzero"/></clipPath><clipPath id="bb172bc6f9"><path d="M 151 33.84375 L 298 33.84375 L 298 41.15625 L 151 41.15625 Z M 151 33.84375 " clip-rule="nonzero"/></clipPath><clipPath id="75add7cf54"><path d="M 301 33.5 L 375 33.5 L 375 41 L 301 41 Z M 301 33.5 " clip-rule="nonzero"/></clipPath></defs><g clip-path="url(#5573588fbe)"><path fill="#000000" d="M 147.949219 40.988281 C 145.207031 40.988281 143.789062 39.433594 142.652344 38.183594 C 141.628906 37.0625 140.894531 36.253906 139.320312 36.253906 C 137.746094 36.253906 137.011719 37.0625 135.988281 38.183594 C 134.851562 39.433594 133.433594 40.988281 130.691406 40.988281 C 127.949219 40.988281 126.53125 39.433594 125.390625 38.183594 C 124.371094 37.0625 123.632812 36.253906 122.0625 36.253906 C 120.488281 36.253906 119.75 37.0625 118.730469 38.183594 C 117.589844 39.433594 116.175781 40.988281 113.433594 40.988281 C 110.691406 40.988281 109.273438 39.433594 108.132812 38.183594 C 107.113281 37.0625 106.375 36.253906 104.804688 36.253906 C 103.230469 36.253906 102.492188 37.0625 101.472656 38.183594 C 100.335938 39.433594 98.917969 40.988281 96.175781 40.988281 C 93.433594 40.988281 92.015625 39.433594 90.878906 38.183594 C 89.855469 37.0625 89.117188 36.253906 87.546875 36.253906 C 85.972656 36.253906 85.234375 37.0625 84.214844 38.183594 C 83.078125 39.433594 81.660156 40.988281 78.917969 40.988281 C 76.175781 40.988281 74.757812 39.433594 73.621094 38.183594 C 72.597656 37.0625 71.863281 36.253906 70.289062 36.253906 C 68.714844 36.253906 67.980469 37.0625 66.957031 38.183594 C 65.820312 39.433594 64.402344 40.988281 61.660156 40.988281 C 58.917969 40.988281 57.5 39.433594 56.363281 38.183594 C 55.339844 37.0625 54.605469 36.253906 53.03125 36.253906 C 51.460938 36.253906 50.722656 37.0625 49.703125 38.183594 C 48.5625 39.433594 47.144531 40.988281 44.402344 40.988281 C 41.660156 40.988281 40.246094 39.433594 39.105469 38.183594 C 38.085938 37.0625 37.347656 36.253906 35.777344 36.253906 C 34.203125 36.253906 33.464844 37.0625 32.445312 38.183594 C 31.304688 39.433594 29.890625 40.988281 27.148438 40.988281 C 24.40625 40.988281 22.988281 39.433594 21.847656 38.183594 C 20.828125 37.0625 20.089844 36.253906 18.519531 36.253906 C 16.945312 36.253906 16.210938 37.0625 15.1875 38.183594 C 14.050781 39.433594 12.632812 40.988281 9.890625 40.988281 C 7.148438 40.988281 5.730469 39.433594 4.59375 38.183594 C 3.574219 37.0625 2.835938 36.253906 1.261719 36.253906 L 1.261719 33.492188 C 4.003906 33.492188 5.421875 35.046875 6.5625 36.296875 C 7.582031 37.417969 8.320312 38.226562 9.890625 38.226562 C 11.464844 38.226562 12.199219 37.417969 13.222656 36.296875 C 14.359375 35.046875 15.777344 33.492188 18.519531 33.492188 C 21.261719 33.492188 22.679688 35.046875 23.816406 36.296875 C 24.839844 37.417969 25.574219 38.226562 27.148438 38.226562 C 28.71875 38.226562 29.457031 37.417969 30.476562 36.296875 C 31.617188 35.046875 33.035156 33.492188 35.777344 33.492188 C 38.519531 33.492188 39.933594 35.046875 41.074219 36.296875 C 42.09375 37.417969 42.832031 38.226562 44.402344 38.226562 C 45.976562 38.226562 46.714844 37.417969 47.734375 36.296875 C 48.871094 35.046875 50.289062 33.492188 53.03125 33.492188 C 55.773438 33.492188 57.191406 35.046875 58.328125 36.296875 C 59.351562 37.417969 60.085938 38.226562 61.660156 38.226562 C 63.234375 38.226562 63.96875 37.417969 64.988281 36.296875 C 66.128906 35.046875 67.546875 33.492188 70.289062 33.492188 C 73.03125 33.492188 74.449219 35.046875 75.585938 36.296875 C 76.609375 37.417969 77.34375 38.226562 78.917969 38.226562 C 80.492188 38.226562 81.226562 37.417969 82.246094 36.296875 C 83.386719 35.046875 84.804688 33.492188 87.546875 33.492188 C 90.289062 33.492188 91.707031 35.046875 92.84375 36.296875 C 93.863281 37.417969 94.601562 38.226562 96.175781 38.226562 C 97.746094 38.226562 98.484375 37.417969 99.507812 36.296875 C 100.644531 35.046875 102.0625 33.492188 104.804688 33.492188 C 107.546875 33.492188 108.960938 35.046875 110.101562 36.296875 C 111.121094 37.417969 111.859375 38.226562 113.433594 38.226562 C 115.003906 38.226562 115.742188 37.417969 116.761719 36.296875 C 117.902344 35.046875 119.320312 33.492188 122.0625 33.492188 C 124.804688 33.492188 126.222656 35.046875 127.359375 36.296875 C 128.378906 37.417969 129.117188 38.226562 130.691406 38.226562 C 132.261719 38.226562 133 37.417969 134.019531 36.296875 C 135.160156 35.046875 136.578125 33.492188 139.320312 33.492188 C 142.0625 33.492188 143.480469 35.046875 144.621094 36.296875 C 145.640625 37.417969 146.378906 38.226562 147.949219 38.226562 L 147.949219 40.988281 " fill-opacity="1" fill-rule="nonzero"/></g><g clip-path="url(#bb172bc6f9)"><path fill="#000000" d="M 297.949219 33.667969 C 295.207031 33.667969 293.789062 35.222656 292.652344 36.472656 C 291.628906 37.59375 290.894531 38.402344 289.320312 38.402344 C 287.746094 38.402344 287.011719 37.59375 285.988281 36.472656 C 284.851562 35.222656 283.433594 33.667969 280.691406 33.667969 C 277.949219 33.667969 276.53125 35.222656 275.390625 36.472656 C 274.371094 37.59375 273.632812 38.402344 272.0625 38.402344 C 270.488281 38.402344 269.75 37.59375 268.730469 36.472656 C 267.589844 35.222656 266.175781 33.667969 263.433594 33.667969 C 260.691406 33.667969 259.273438 35.222656 258.132812 36.472656 C 257.113281 37.59375 256.375 38.402344 254.804688 38.402344 C 253.230469 38.402344 252.492188 37.59375 251.472656 36.472656 C 250.335938 35.222656 248.917969 33.667969 246.175781 33.667969 C 243.433594 33.667969 242.015625 35.222656 240.878906 36.472656 C 239.855469 37.59375 239.117188 38.402344 237.546875 38.402344 C 235.972656 38.402344 235.234375 37.59375 234.214844 36.472656 C 233.078125 35.222656 231.660156 33.667969 228.917969 33.667969 C 226.175781 33.667969 224.757812 35.222656 223.621094 36.472656 C 222.597656 37.59375 221.863281 38.402344 220.289062 38.402344 C 218.714844 38.402344 217.980469 37.59375 216.957031 36.472656 C 215.820312 35.222656 214.402344 33.667969 211.660156 33.667969 C 208.917969 33.667969 207.5 35.222656 206.363281 36.472656 C 205.339844 37.59375 204.605469 38.402344 203.03125 38.402344 C 201.460938 38.402344 200.722656 37.59375 199.703125 36.472656 C 198.5625 35.222656 197.144531 33.667969 194.402344 33.667969 C 191.660156 33.667969 190.246094 35.222656 189.105469 36.472656 C 188.085938 37.59375 187.347656 38.402344 185.777344 38.402344 C 184.203125 38.402344 183.464844 37.59375 182.445312 36.472656 C 181.304688 35.222656 179.890625 33.667969 177.148438 33.667969 C 174.40625 33.667969 172.988281 35.222656 171.847656 36.472656 C 170.828125 37.59375 170.089844 38.402344 168.519531 38.402344 C 166.945312 38.402344 166.210938 37.59375 165.1875 36.472656 C 164.050781 35.222656 162.632812 33.667969 159.890625 33.667969 C 157.148438 33.667969 155.730469 35.222656 154.59375 36.472656 C 153.574219 37.59375 152.835938 38.402344 151.261719 38.402344 L 151.261719 41.164062 C 154.003906 41.164062 155.421875 39.609375 156.5625 38.359375 C 157.582031 37.238281 158.320312 36.429688 159.890625 36.429688 C 161.464844 36.429688 162.199219 37.238281 163.222656 38.359375 C 164.359375 39.609375 165.777344 41.164062 168.519531 41.164062 C 171.261719 41.164062 172.679688 39.609375 173.816406 38.359375 C 174.839844 37.238281 175.574219 36.429688 177.148438 36.429688 C 178.71875 36.429688 179.457031 37.238281 180.476562 38.359375 C 181.617188 39.609375 183.035156 41.164062 185.777344 41.164062 C 188.519531 41.164062 189.933594 39.609375 191.074219 38.359375 C 192.09375 37.238281 192.832031 36.429688 194.402344 36.429688 C 195.976562 36.429688 196.714844 37.238281 197.734375 38.359375 C 198.871094 39.609375 200.289062 41.164062 203.03125 41.164062 C 205.773438 41.164062 207.191406 39.609375 208.328125 38.359375 C 209.351562 37.238281 210.085938 36.429688 211.660156 36.429688 C 213.234375 36.429688 213.96875 37.238281 214.988281 38.359375 C 216.128906 39.609375 217.546875 41.164062 220.289062 41.164062 C 223.03125 41.164062 224.449219 39.609375 225.585938 38.359375 C 226.609375 37.238281 227.34375 36.429688 228.917969 36.429688 C 230.492188 36.429688 231.226562 37.238281 232.246094 38.359375 C 233.386719 39.609375 234.804688 41.164062 237.546875 41.164062 C 240.289062 41.164062 241.707031 39.609375 242.84375 38.359375 C 243.863281 37.238281 244.601562 36.429688 246.175781 36.429688 C 247.746094 36.429688 248.484375 37.238281 249.507812 38.359375 C 250.644531 39.609375 252.0625 41.164062 254.804688 41.164062 C 257.546875 41.164062 258.960938 39.609375 260.101562 38.359375 C 261.121094 37.238281 261.859375 36.429688 263.433594 36.429688 C 265.003906 36.429688 265.742188 37.238281 266.761719 38.359375 C 267.902344 39.609375 269.320312 41.164062 272.0625 41.164062 C 274.804688 41.164062 276.222656 39.609375 277.359375 38.359375 C 278.378906 37.238281 279.117188 36.429688 280.691406 36.429688 C 282.261719 36.429688 283 37.238281 284.019531 38.359375 C 285.160156 39.609375 286.578125 41.164062 289.320312 41.164062 C 292.0625 41.164062 293.480469 39.609375 294.621094 38.359375 C 295.640625 37.238281 296.378906 36.429688 297.949219 36.429688 L 297.949219 33.667969 " fill-opacity="1" fill-rule="nonzero"/></g><g clip-path="url(#75add7cf54)"><path fill="#000000" d="M 447.949219 40.988281 C 445.207031 40.988281 443.789062 39.433594 442.652344 38.183594 C 441.628906 37.0625 440.894531 36.253906 439.320312 36.253906 C 437.746094 36.253906 437.011719 37.0625 435.988281 38.183594 C 434.851562 39.433594 433.433594 40.988281 430.691406 40.988281 C 427.949219 40.988281 426.53125 39.433594 425.390625 38.183594 C 424.371094 37.0625 423.632812 36.253906 422.0625 36.253906 C 420.488281 36.253906 419.75 37.0625 418.730469 38.183594 C 417.589844 39.433594 416.175781 40.988281 413.433594 40.988281 C 410.691406 40.988281 409.273438 39.433594 408.132812 38.183594 C 407.113281 37.0625 406.375 36.253906 404.804688 36.253906 C 403.230469 36.253906 402.492188 37.0625 401.472656 38.183594 C 400.335938 39.433594 398.917969 40.988281 396.175781 40.988281 C 393.433594 40.988281 392.015625 39.433594 390.878906 38.183594 C 389.855469 37.0625 389.117188 36.253906 387.546875 36.253906 C 385.972656 36.253906 385.234375 37.0625 384.214844 38.183594 C 383.078125 39.433594 381.660156 40.988281 378.917969 40.988281 C 376.175781 40.988281 374.757812 39.433594 373.621094 38.183594 C 372.597656 37.0625 371.863281 36.253906 370.289062 36.253906 C 368.714844 36.253906 367.980469 37.0625 366.957031 38.183594 C 365.820312 39.433594 364.402344 40.988281 361.660156 40.988281 C 358.917969 40.988281 357.5 39.433594 356.363281 38.183594 C 355.339844 37.0625 354.605469 36.253906 353.03125 36.253906 C 351.460938 36.253906 350.722656 37.0625 349.703125 38.183594 C 348.5625 39.433594 347.144531 40.988281 344.402344 40.988281 C 341.660156 40.988281 340.246094 39.433594 339.105469 38.183594 C 338.085938 37.0625 337.347656 36.253906 335.777344 36.253906 C 334.203125 36.253906 333.464844 37.0625 332.445312 38.183594 C 331.304688 39.433594 329.890625 40.988281 327.148438 40.988281 C 324.40625 40.988281 322.988281 39.433594 321.847656 38.183594 C 320.828125 37.0625 320.089844 36.253906 318.519531 36.253906 C 316.945312 36.253906 316.210938 37.0625 315.1875 38.183594 C 314.050781 39.433594 312.632812 40.988281 309.890625 40.988281 C 307.148438 40.988281 305.730469 39.433594 304.59375 38.183594 C 303.574219 37.0625 302.835938 36.253906 301.261719 36.253906 L 301.261719 33.492188 C 304.003906 33.492188 305.421875 35.046875 306.5625 36.296875 C 307.582031 37.417969 308.320312 38.226562 309.890625 38.226562 C 311.464844 38.226562 312.199219 37.417969 313.222656 36.296875 C 314.359375 35.046875 315.777344 33.492188 318.519531 33.492188 C 321.261719 33.492188 322.679688 35.046875 323.816406 36.296875 C 324.839844 37.417969 325.574219 38.226562 327.148438 38.226562 C 328.71875 38.226562 329.457031 37.417969 330.476562 36.296875 C 331.617188 35.046875 333.035156 33.492188 335.777344 33.492188 C 338.519531 33.492188 339.933594 35.046875 341.074219 36.296875 C 342.09375 37.417969 342.832031 38.226562 344.402344 38.226562 C 345.976562 38.226562 346.714844 37.417969 347.734375 36.296875 C 348.871094 35.046875 350.289062 33.492188 353.03125 33.492188 C 355.773438 33.492188 357.191406 35.046875 358.328125 36.296875 C 359.351562 37.417969 360.085938 38.226562 361.660156 38.226562 C 363.234375 38.226562 363.96875 37.417969 364.988281 36.296875 C 366.128906 35.046875 367.546875 33.492188 370.289062 33.492188 C 373.03125 33.492188 374.449219 35.046875 375.585938 36.296875 C 376.609375 37.417969 377.34375 38.226562 378.917969 38.226562 C 380.492188 38.226562 381.226562 37.417969 382.246094 36.296875 C 383.386719 35.046875 384.804688 33.492188 387.546875 33.492188 C 390.289062 33.492188 391.703125 35.046875 392.84375 36.296875 C 393.863281 37.417969 394.601562 38.226562 396.175781 38.226562 C 397.746094 38.226562 398.484375 37.417969 399.507812 36.296875 C 400.644531 35.046875 402.0625 33.492188 404.804688 33.492188 C 407.546875 33.492188 408.960938 35.046875 410.101562 36.296875 C 411.121094 37.417969 411.859375 38.226562 413.433594 38.226562 C 415.003906 38.226562 415.742188 37.417969 416.761719 36.296875 C 417.902344 35.046875 419.320312 33.492188 422.0625 33.492188 C 424.804688 33.492188 426.222656 35.046875 427.359375 36.296875 C 428.378906 37.417969 429.117188 38.226562 430.691406 38.226562 C 432.261719 38.226562 433 37.417969 434.019531 36.296875 C 435.160156 35.046875 436.578125 33.492188 439.320312 33.492188 C 442.0625 33.492188 443.480469 35.046875 444.621094 36.296875 C 445.640625 37.417969 446.378906 38.226562 447.949219 38.226562 L 447.949219 40.988281 " fill-opacity="1" fill-rule="nonzero"/></g></svg>