<svg xmlns="http://www.w3.org/2000/svg" xmlns:xlink="http://www.w3.org/1999/xlink" width="500" zoomAndPan="magnify" viewBox="0 0 375 374.999991" height="500" preserveAspectRatio="xMidYMid meet" version="1.0"><defs><g/><clipPath id="86ee445783"><path d="M 27.371094 122 L 224 122 L 224 201 L 27.371094 201 Z M 27.371094 122 " clip-rule="nonzero"/></clipPath><clipPath id="951d856058"><path d="M 233 74 L 365.621094 74 L 365.621094 175 L 233 175 Z M 233 74 " clip-rule="nonzero"/></clipPath></defs><path fill="#fe8b00" d="M 179.597656 120.902344 C 179.597656 141.980469 164.515625 160.207031 142.601562 168.882812 C 133.308594 172.515625 123.667969 174.316406 113.683594 174.28125 C 91.03125 174.28125 71.019531 165.015625 59.15625 150.910156 C 59.15625 150.910156 59.15625 150.910156 59.15625 150.882812 C 51.972656 142.339844 47.78125 132.019531 47.78125 120.902344 C 47.78125 107.28125 54.078125 94.855469 64.441406 85.425781 C 64.214844 86.023438 54.835938 110.441406 72.332031 129.839844 C 66.761719 101.894531 80.253906 90.304688 95.691406 75.875 C 111.128906 61.445312 66.800781 64.996094 66.996094 39.945312 C 66.996094 39.945312 69.503906 50.851562 91.433594 56.527344 C 113.363281 62.203125 122.945312 65.386719 108.648438 88.65625 C 94.496094 111.726562 106.449219 126.152344 106.6875 126.433594 C 106.539062 126.105469 97.257812 105.523438 117.289062 84.746094 C 137.457031 63.800781 136.570312 57.339844 113.710938 48.722656 C 90.847656 40.109375 125.214844 29.046875 121.378906 0 C 121.378906 0 127.683594 13.007812 120.007812 28.972656 C 110.667969 48.40625 152.707031 44.632812 153.101562 63.820312 C 153.496094 83.003906 119.617188 94.359375 131.753906 121.765625 C 143.890625 149.171875 162.957031 120.390625 152.707031 102.378906 C 152.707031 102.378906 163.28125 113.148438 163.28125 124.5 C 163.28125 124.5 170.917969 118.824219 164.648438 105.320312 C 158.378906 91.8125 148.007812 80.457031 164.839844 66.773438 C 164.644531 67.085938 154.398438 83.117188 166.808594 93.390625 C 179.339844 103.753906 179.878906 115.992188 179.597656 120.902344 Z M 179.597656 120.902344 " fill-opacity="1" fill-rule="nonzero"/><path fill="#febf00" d="M 179.597656 120.902344 C 179.597656 141.980469 164.515625 160.207031 142.601562 168.882812 C 176.585938 152.410156 177.203125 121.804688 171.183594 111.207031 C 175.203125 126.308594 168.292969 143.972656 161.703125 139.964844 C 157.613281 137.46875 156.746094 133.117188 156.675781 130.171875 C 156.011719 135.046875 153.269531 144.1875 142.179688 145.828125 C 142.179688 145.828125 97.96875 132.769531 127.628906 95.105469 C 157.289062 57.441406 134.34375 54.078125 134.34375 54.078125 C 134.34375 54.078125 152.074219 60.199219 124.640625 90.253906 C 99.351562 117.960938 111.414062 146.226562 121.054688 153.9375 C 74.304688 140.378906 92.675781 95.933594 92.929688 95.316406 C 67.714844 121.496094 85.0625 159.078125 85.0625 159.078125 C 34.804688 135.128906 62.890625 87.914062 64.363281 85.515625 C 45.085938 114.726562 48.460938 135.964844 59.136719 150.882812 C 51.953125 142.339844 47.761719 132.019531 47.761719 120.902344 C 47.761719 107.28125 54.0625 94.855469 64.421875 85.425781 C 64.195312 86.023438 54.816406 110.441406 72.3125 129.839844 C 66.742188 101.894531 80.238281 90.304688 95.675781 75.875 C 111.113281 61.445312 66.800781 64.996094 66.996094 39.945312 C 66.996094 39.945312 69.503906 50.851562 91.433594 56.527344 C 113.363281 62.203125 122.945312 65.386719 108.648438 88.65625 C 94.496094 111.726562 106.449219 126.152344 106.6875 126.433594 C 106.539062 126.105469 97.257812 105.523438 117.289062 84.746094 C 137.457031 63.800781 136.570312 57.339844 113.710938 48.722656 C 90.847656 40.109375 125.214844 29.046875 121.378906 0 C 121.378906 0 127.683594 13.007812 120.007812 28.972656 C 110.667969 48.40625 152.707031 44.632812 153.101562 63.820312 C 153.496094 83.003906 119.617188 94.359375 131.753906 121.765625 C 143.890625 149.171875 162.957031 120.390625 152.707031 102.378906 C 152.707031 102.378906 163.28125 113.148438 163.28125 124.5 C 163.28125 124.5 170.917969 118.824219 164.648438 105.320312 C 158.378906 91.8125 148.007812 80.457031 164.839844 66.773438 C 164.644531 67.085938 154.398438 83.117188 166.808594 93.390625 C 179.339844 103.753906 179.878906 115.992188 179.597656 120.902344 Z M 179.597656 120.902344 " fill-opacity="1" fill-rule="nonzero"/><g clip-path="url(#86ee445783)"><path fill="#211b16" d="M 191.949219 122.414062 C 202.371094 124.058594 209.140625 127.582031 210.554688 132.921875 C 214.335938 147.160156 178.710938 168.964844 130.992188 181.613281 C 83.273438 194.261719 41.523438 192.980469 37.746094 178.761719 C 36.328125 173.414062 40.464844 167.003906 48.707031 160.414062 C 33.816406 169.917969 25.710938 179.550781 27.753906 187.234375 C 32.03125 203.363281 79.324219 204.824219 133.34375 190.492188 C 187.363281 176.164062 227.730469 151.464844 223.472656 135.351562 C 221.410156 127.6875 209.597656 123.316406 191.949219 122.414062 Z M 191.949219 122.414062 " fill-opacity="1" fill-rule="nonzero"/></g><path fill="#211b16" d="M 155.996094 193.371094 C 149.484375 195.765625 142.753906 197.890625 135.804688 199.746094 C 128.859375 201.589844 121.941406 203.070312 115.078125 204.210938 C 74 212.488281 39.683594 211.347656 28.664062 201.300781 C 44.089844 231.730469 93.023438 245.316406 144.285156 231.730469 C 195.546875 218.140625 231.316406 182.082031 229.628906 148.023438 C 225.050781 162.203125 195.792969 180.207031 155.996094 193.371094 Z M 155.996094 193.371094 " fill-opacity="1" fill-rule="nonzero"/><g clip-path="url(#951d856058)"><path fill="#211b16" d="M 233.914062 174.28125 C 233.914062 174.28125 229.679688 148.496094 258.59375 134.992188 C 287.507812 121.484375 325.4375 110.292969 340.242188 84.804688 C 355.042969 59.3125 393.554688 86.609375 330.980469 112.960938 C 268.40625 139.3125 250.238281 139.601562 233.914062 174.28125 Z M 233.914062 174.28125 " fill-opacity="1" fill-rule="nonzero"/></g><g fill="#211b16" fill-opacity="1"><g transform="translate(27.282634, 282.818731)"><g><path d="M 2.078125 0 L 2.078125 -29.59375 L 18.09375 -29.59375 C 20.707031 -29.59375 22.953125 -29.140625 24.828125 -28.234375 C 26.703125 -27.328125 28.144531 -26.050781 29.15625 -24.40625 C 30.175781 -22.757812 30.6875 -20.78125 30.6875 -18.46875 C 30.6875 -16.632812 30.359375 -15 29.703125 -13.5625 C 29.054688 -12.125 28.113281 -10.914062 26.875 -9.9375 L 31.3125 0 L 18.46875 0 L 15.6875 -7.359375 L 13.953125 -7.359375 L 13.953125 0 Z M 13.78125 -15.546875 L 15.8125 -15.546875 C 16.707031 -15.546875 17.410156 -15.769531 17.921875 -16.21875 C 18.429688 -16.675781 18.6875 -17.34375 18.6875 -18.21875 C 18.6875 -19.113281 18.429688 -19.773438 17.921875 -20.203125 C 17.410156 -20.628906 16.707031 -20.84375 15.8125 -20.84375 L 13.78125 -20.84375 Z M 13.78125 -15.546875 "/></g></g></g><g fill="#211b16" fill-opacity="1"><g transform="translate(62.349165, 282.818731)"><g><path d="M 2.078125 0 L 2.078125 -29.59375 L 24.59375 -29.59375 L 24.59375 -21.421875 L 13.609375 -21.421875 L 13.609375 -18.765625 L 23.578125 -18.765625 L 23.578125 -11.03125 L 13.609375 -11.03125 L 13.609375 -8.28125 L 24.9375 -8.28125 L 24.9375 0 Z M 2.078125 0 "/></g></g></g><g fill="#211b16" fill-opacity="1"><g transform="translate(91.543322, 282.818731)"><g><path d="M 14.25 0.59375 C 9.957031 0.59375 6.628906 -0.320312 4.265625 -2.15625 C 1.898438 -3.988281 0.71875 -6.539062 0.71875 -9.8125 L 12.125 -9.8125 C 12.125 -8.257812 12.859375 -7.484375 14.328125 -7.484375 C 15.597656 -7.484375 16.234375 -7.972656 16.234375 -8.953125 C 16.234375 -9.578125 15.898438 -10.066406 15.234375 -10.421875 C 14.578125 -10.773438 13.414062 -11.078125 11.75 -11.328125 C 8 -11.890625 5.257812 -12.894531 3.53125 -14.34375 C 1.800781 -15.800781 0.9375 -17.867188 0.9375 -20.546875 C 0.9375 -23.554688 2.082031 -25.910156 4.375 -27.609375 C 6.664062 -29.316406 9.828125 -30.171875 13.859375 -30.171875 C 17.941406 -30.171875 21.140625 -29.285156 23.453125 -27.515625 C 25.765625 -25.742188 26.992188 -23.222656 27.140625 -19.953125 L 16.0625 -19.953125 C 16.0625 -21.472656 15.359375 -22.234375 13.953125 -22.234375 C 12.679688 -22.234375 12.046875 -21.753906 12.046875 -20.796875 C 12.046875 -20.171875 12.367188 -19.6875 13.015625 -19.34375 C 13.660156 -19.007812 14.84375 -18.71875 16.5625 -18.46875 C 20.507812 -17.875 23.351562 -16.851562 25.09375 -15.40625 C 26.84375 -13.957031 27.71875 -11.894531 27.71875 -9.21875 C 27.71875 -6.144531 26.539062 -3.738281 24.1875 -2 C 21.84375 -0.269531 18.53125 0.59375 14.25 0.59375 Z M 14.25 0.59375 "/></g></g></g><g fill="#211b16" fill-opacity="1"><g transform="translate(122.976585, 282.818731)"><g><path d="M 9.25 0 L 9.25 -18.890625 L 1.140625 -18.890625 L 1.140625 -29.59375 L 29.453125 -29.59375 L 29.453125 -18.890625 L 21.34375 -18.890625 L 21.34375 0 Z M 9.25 0 "/></g></g></g><g fill="#211b16" fill-opacity="1"><g transform="translate(156.437719, 282.818731)"><g><path d="M 0.046875 0 L 10.484375 -29.59375 L 23.578125 -29.59375 L 33.984375 0 L 21.5625 0 L 20.546875 -3.34375 L 13.359375 -3.34375 L 12.34375 0 Z M 14.921875 -10.484375 L 19.015625 -10.484375 L 17.15625 -17.578125 L 16.78125 -17.578125 Z M 14.921875 -10.484375 "/></g></g></g><g fill="#211b16" fill-opacity="1"><g transform="translate(193.363118, 282.818731)"><g><path d="M 16.234375 0.59375 C 11.753906 0.59375 8.242188 -0.546875 5.703125 -2.828125 C 3.171875 -5.109375 1.90625 -8.320312 1.90625 -12.46875 L 1.90625 -29.59375 L 13.984375 -29.59375 L 13.984375 -12.96875 C 13.984375 -11.144531 14.734375 -10.234375 16.234375 -10.234375 C 17.753906 -10.234375 18.515625 -11.144531 18.515625 -12.96875 L 18.515625 -29.59375 L 30.59375 -29.59375 L 30.59375 -12.46875 C 30.59375 -8.320312 29.328125 -5.109375 26.796875 -2.828125 C 24.265625 -0.546875 20.742188 0.59375 16.234375 0.59375 Z M 16.234375 0.59375 "/></g></g></g><g fill="#211b16" fill-opacity="1"><g transform="translate(228.725377, 282.818731)"><g><path d="M 2.078125 0 L 2.078125 -29.59375 L 18.09375 -29.59375 C 20.707031 -29.59375 22.953125 -29.140625 24.828125 -28.234375 C 26.703125 -27.328125 28.144531 -26.050781 29.15625 -24.40625 C 30.175781 -22.757812 30.6875 -20.78125 30.6875 -18.46875 C 30.6875 -16.632812 30.359375 -15 29.703125 -13.5625 C 29.054688 -12.125 28.113281 -10.914062 26.875 -9.9375 L 31.3125 0 L 18.46875 0 L 15.6875 -7.359375 L 13.953125 -7.359375 L 13.953125 0 Z M 13.78125 -15.546875 L 15.8125 -15.546875 C 16.707031 -15.546875 17.410156 -15.769531 17.921875 -16.21875 C 18.429688 -16.675781 18.6875 -17.34375 18.6875 -18.21875 C 18.6875 -19.113281 18.429688 -19.773438 17.921875 -20.203125 C 17.410156 -20.628906 16.707031 -20.84375 15.8125 -20.84375 L 13.78125 -20.84375 Z M 13.78125 -15.546875 "/></g></g></g><g fill="#211b16" fill-opacity="1"><g transform="translate(263.791915, 282.818731)"><g><path d="M 0.046875 0 L 10.484375 -29.59375 L 23.578125 -29.59375 L 33.984375 0 L 21.5625 0 L 20.546875 -3.34375 L 13.359375 -3.34375 L 12.34375 0 Z M 14.921875 -10.484375 L 19.015625 -10.484375 L 17.15625 -17.578125 L 16.78125 -17.578125 Z M 14.921875 -10.484375 "/></g></g></g><g fill="#211b16" fill-opacity="1"><g transform="translate(300.717314, 282.818731)"><g><path d="M 2.078125 0 L 2.078125 -29.59375 L 11.828125 -29.59375 L 19.4375 -18.890625 L 19.828125 -18.9375 L 19.609375 -22.90625 L 19.609375 -29.59375 L 31.28125 -29.59375 L 31.28125 0 L 21.5625 0 L 13.90625 -10.734375 L 13.5625 -10.6875 L 13.734375 -6.671875 L 13.734375 0 Z M 2.078125 0 "/></g></g></g><g fill="#211b16" fill-opacity="1"><g transform="translate(336.92452, 282.818731)"><g><path d="M 9.25 0 L 9.25 -18.890625 L 1.140625 -18.890625 L 1.140625 -29.59375 L 29.453125 -29.59375 L 29.453125 -18.890625 L 21.34375 -18.890625 L 21.34375 0 Z M 9.25 0 "/></g></g></g><g fill="#fe8b00" fill-opacity="1"><g transform="translate(101.956483, 318.468346)"><g><path d="M 0.6875 0 L 0.6875 -9.234375 L 3.09375 -9.234375 L 3.09375 -5.703125 L 7.96875 -5.703125 L 7.96875 -9.234375 L 10.375 -9.234375 L 10.375 0 L 7.96875 0 L 7.96875 -3.90625 L 3.09375 -3.90625 L 3.09375 0 Z M 0.6875 0 "/></g></g></g><g fill="#fe8b00" fill-opacity="1"><g transform="translate(116.910714, 318.468346)"><g><path d="M 0.6875 0 L 0.6875 -9.234375 L 8.65625 -9.234375 L 8.65625 -7.5 L 3.015625 -7.5 L 3.015625 -5.5 L 8.140625 -5.5 L 8.140625 -3.953125 L 3.015625 -3.953125 L 3.015625 -1.734375 L 8.796875 -1.734375 L 8.796875 0 Z M 0.6875 0 "/></g></g></g><g fill="#fe8b00" fill-opacity="1"><g transform="translate(129.881146, 318.468346)"><g><path d="M 0.046875 0 L 4.078125 -9.234375 L 6.953125 -9.234375 L 10.921875 0 L 8.40625 0 L 7.671875 -1.8125 L 3.296875 -1.8125 L 2.5625 0 Z M 3.78125 -3.390625 L 7.171875 -3.390625 L 5.515625 -7.515625 L 5.484375 -7.515625 Z M 3.78125 -3.390625 "/></g></g></g><g fill="#fe8b00" fill-opacity="1"><g transform="translate(144.744615, 318.468346)"><g><path d="M 0.6875 0 L 0.6875 -9.234375 L 3.09375 -9.234375 L 3.09375 -1.9375 L 7.890625 -1.9375 L 7.890625 0 Z M 0.6875 0 "/></g></g></g><g fill="#fe8b00" fill-opacity="1"><g transform="translate(156.716663, 318.468346)"><g><path d="M 3.46875 0 L 3.46875 -7.34375 L 0.140625 -7.34375 L 0.140625 -9.234375 L 9.1875 -9.234375 L 9.1875 -7.34375 L 5.875 -7.34375 L 5.875 0 Z M 3.46875 0 "/></g></g></g><g fill="#fe8b00" fill-opacity="1"><g transform="translate(169.946411, 318.468346)"><g><path d="M 0.6875 0 L 0.6875 -9.234375 L 3.09375 -9.234375 L 3.09375 -5.703125 L 7.96875 -5.703125 L 7.96875 -9.234375 L 10.375 -9.234375 L 10.375 0 L 7.96875 0 L 7.96875 -3.90625 L 3.09375 -3.90625 L 3.09375 0 Z M 0.6875 0 "/></g></g></g><g fill="#fe8b00" fill-opacity="1"><g transform="translate(184.900639, 318.468346)"><g><path d="M 3.921875 0 L 3.921875 -3.25 L 0.03125 -9.234375 L 2.609375 -9.234375 L 5.125 -5.125 L 5.140625 -5.125 L 7.546875 -9.234375 L 10.15625 -9.234375 L 6.328125 -3.25 L 6.328125 0 Z M 3.921875 0 "/></g></g></g><g fill="#fe8b00" fill-opacity="1"><g transform="translate(198.986144, 318.468346)"><g/></g></g><g fill="#fe8b00" fill-opacity="1"><g transform="translate(206.005171, 318.468346)"><g><path d="M 0.6875 0 L 0.6875 -9.234375 L 8.5 -9.234375 L 8.5 -7.34375 L 3.09375 -7.34375 L 3.09375 -5.15625 L 7.71875 -5.15625 L 7.71875 -3.515625 L 3.09375 -3.515625 L 3.09375 0 Z M 0.6875 0 "/></g></g></g><g fill="#fe8b00" fill-opacity="1"><g transform="translate(218.612551, 318.468346)"><g><path d="M 6.28125 0.328125 C 5.113281 0.328125 4.085938 0.125 3.203125 -0.28125 C 2.328125 -0.695312 1.644531 -1.273438 1.15625 -2.015625 C 0.664062 -2.765625 0.421875 -3.628906 0.421875 -4.609375 C 0.421875 -5.609375 0.664062 -6.476562 1.15625 -7.21875 C 1.644531 -7.957031 2.328125 -8.53125 3.203125 -8.9375 C 4.085938 -9.351562 5.113281 -9.5625 6.28125 -9.5625 C 7.457031 -9.5625 8.484375 -9.351562 9.359375 -8.9375 C 10.242188 -8.53125 10.929688 -7.957031 11.421875 -7.21875 C 11.910156 -6.476562 12.15625 -5.609375 12.15625 -4.609375 C 12.15625 -3.628906 11.910156 -2.765625 11.421875 -2.015625 C 10.929688 -1.273438 10.242188 -0.695312 9.359375 -0.28125 C 8.484375 0.125 7.457031 0.328125 6.28125 0.328125 Z M 6.28125 -1.5625 C 6.96875 -1.5625 7.570312 -1.6875 8.09375 -1.9375 C 8.613281 -2.195312 9.015625 -2.554688 9.296875 -3.015625 C 9.585938 -3.472656 9.734375 -4.003906 9.734375 -4.609375 C 9.734375 -5.222656 9.585938 -5.757812 9.296875 -6.21875 C 9.015625 -6.675781 8.613281 -7.03125 8.09375 -7.28125 C 7.570312 -7.539062 6.96875 -7.671875 6.28125 -7.671875 C 5.59375 -7.671875 4.988281 -7.539062 4.46875 -7.28125 C 3.957031 -7.03125 3.554688 -6.675781 3.265625 -6.21875 C 2.984375 -5.757812 2.84375 -5.222656 2.84375 -4.609375 C 2.84375 -4.003906 2.984375 -3.472656 3.265625 -3.015625 C 3.554688 -2.554688 3.957031 -2.195312 4.46875 -1.9375 C 4.988281 -1.6875 5.59375 -1.5625 6.28125 -1.5625 Z M 6.28125 -1.5625 "/></g></g></g><g fill="#fe8b00" fill-opacity="1"><g transform="translate(235.070836, 318.468346)"><g><path d="M 6.28125 0.328125 C 5.113281 0.328125 4.085938 0.125 3.203125 -0.28125 C 2.328125 -0.695312 1.644531 -1.273438 1.15625 -2.015625 C 0.664062 -2.765625 0.421875 -3.628906 0.421875 -4.609375 C 0.421875 -5.609375 0.664062 -6.476562 1.15625 -7.21875 C 1.644531 -7.957031 2.328125 -8.53125 3.203125 -8.9375 C 4.085938 -9.351562 5.113281 -9.5625 6.28125 -9.5625 C 7.457031 -9.5625 8.484375 -9.351562 9.359375 -8.9375 C 10.242188 -8.53125 10.929688 -7.957031 11.421875 -7.21875 C 11.910156 -6.476562 12.15625 -5.609375 12.15625 -4.609375 C 12.15625 -3.628906 11.910156 -2.765625 11.421875 -2.015625 C 10.929688 -1.273438 10.242188 -0.695312 9.359375 -0.28125 C 8.484375 0.125 7.457031 0.328125 6.28125 0.328125 Z M 6.28125 -1.5625 C 6.96875 -1.5625 7.570312 -1.6875 8.09375 -1.9375 C 8.613281 -2.195312 9.015625 -2.554688 9.296875 -3.015625 C 9.585938 -3.472656 9.734375 -4.003906 9.734375 -4.609375 C 9.734375 -5.222656 9.585938 -5.757812 9.296875 -6.21875 C 9.015625 -6.675781 8.613281 -7.03125 8.09375 -7.28125 C 7.570312 -7.539062 6.96875 -7.671875 6.28125 -7.671875 C 5.59375 -7.671875 4.988281 -7.539062 4.46875 -7.28125 C 3.957031 -7.03125 3.554688 -6.675781 3.265625 -6.21875 C 2.984375 -5.757812 2.84375 -5.222656 2.84375 -4.609375 C 2.84375 -4.003906 2.984375 -3.472656 3.265625 -3.015625 C 3.554688 -2.554688 3.957031 -2.195312 4.46875 -1.9375 C 4.988281 -1.6875 5.59375 -1.5625 6.28125 -1.5625 Z M 6.28125 -1.5625 "/></g></g></g><g fill="#fe8b00" fill-opacity="1"><g transform="translate(251.529121, 318.468346)"><g><path d="M 0.6875 0 L 0.6875 -9.234375 L 5.6875 -9.234375 C 7.363281 -9.234375 8.65625 -8.832031 9.5625 -8.03125 C 10.476562 -7.238281 10.9375 -6.097656 10.9375 -4.609375 C 10.9375 -3.128906 10.476562 -1.988281 9.5625 -1.1875 C 8.65625 -0.394531 7.363281 0 5.6875 0 Z M 3.03125 -1.796875 L 5.515625 -1.796875 C 6.492188 -1.796875 7.242188 -2.039062 7.765625 -2.53125 C 8.285156 -3.019531 8.546875 -3.710938 8.546875 -4.609375 C 8.546875 -5.523438 8.285156 -6.222656 7.765625 -6.703125 C 7.242188 -7.191406 6.492188 -7.4375 5.515625 -7.4375 L 3.03125 -7.4375 Z M 3.03125 -1.796875 "/></g></g></g></svg>