<svg xmlns="http://www.w3.org/2000/svg" xmlns:xlink="http://www.w3.org/1999/xlink" width="250" zoomAndPan="magnify" viewBox="0 0 187.5 374.999991" height="500" preserveAspectRatio="xMidYMid meet" version="1.0"><defs><clipPath id="dda8d76264"><path d="M 0 0.5 L 187 0.5 L 187 374.5 L 0 374.5 Z M 0 0.5 " clip-rule="nonzero"/></clipPath><clipPath id="9802aa5a2e"><path d="M 75.265625 0.546875 L 160 0.546875 L 160 188.246094 L 75.265625 188.246094 Z M 75.265625 0.546875 " clip-rule="nonzero"/></clipPath><clipPath id="dad5b9945b"><path d="M 90 0.546875 L 176 0.546875 L 176 188.246094 L 90 188.246094 Z M 90 0.546875 " clip-rule="nonzero"/></clipPath><clipPath id="5fa17d8825"><path d="M 105 0.546875 L 187 0.546875 L 187 188.246094 L 105 188.246094 Z M 105 0.546875 " clip-rule="nonzero"/></clipPath><clipPath id="8915e9e3ae"><path d="M 120 0.546875 L 187 0.546875 L 187 188.246094 L 120 188.246094 Z M 120 0.546875 " clip-rule="nonzero"/></clipPath><clipPath id="89a63ec344"><path d="M 0.339844 187.546875 L 85 187.546875 L 85 374.5 L 0.339844 374.5 Z M 0.339844 187.546875 " clip-rule="nonzero"/></clipPath><clipPath id="75477edf78"><path d="M 15 187.546875 L 100 187.546875 L 100 374.5 L 15 374.5 Z M 15 187.546875 " clip-rule="nonzero"/></clipPath><clipPath id="628f314ca1"><path d="M 30 187.546875 L 115 187.546875 L 115 374.5 L 30 374.5 Z M 30 187.546875 " clip-rule="nonzero"/></clipPath><clipPath id="459cf9cb8f"><path d="M 45 187.546875 L 129.40625 187.546875 L 129.40625 374.5 L 45 374.5 Z M 45 187.546875 " clip-rule="nonzero"/></clipPath></defs><g clip-path="url(#dda8d76264)"><path fill="#ffffff" d="M 0 0.5 L 187 0.5 L 187 374.5 L 0 374.5 Z M 0 0.5 " fill-opacity="1" fill-rule="nonzero"/><path fill="#ffffff" d="M 0 0.5 L 187 0.5 L 187 374.5 L 0 374.5 Z M 0 0.5 " fill-opacity="1" fill-rule="nonzero"/></g><g clip-path="url(#9802aa5a2e)"><path fill="#006434" d="M 150.433594 0.601562 L 150.390625 49.261719 C 150.394531 52.058594 149.316406 54.675781 147.347656 56.644531 C 145.382812 58.617188 142.765625 59.699219 139.980469 59.699219 L 137.671875 59.699219 C 121.023438 59.699219 105.367188 66.175781 93.585938 77.9375 C 81.804688 89.695312 75.296875 105.335938 75.265625 121.984375 L 75.265625 188.207031 L 84.648438 188.207031 L 84.644531 121.992188 C 84.703125 92.820312 108.488281 69.082031 137.671875 69.082031 L 139.980469 69.082031 C 145.273438 69.082031 150.246094 67.019531 153.988281 63.273438 C 157.726562 59.527344 159.78125 54.546875 159.769531 49.257812 L 159.8125 0.609375 Z M 150.433594 0.601562 " fill-opacity="1" fill-rule="nonzero"/></g><g clip-path="url(#dad5b9945b)"><path fill="#c0c0c0" d="M 165.738281 0.585938 L 165.535156 49.472656 C 165.484375 63.390625 154.121094 74.707031 140.207031 74.707031 L 139.226562 74.707031 C 112.300781 74.707031 90.351562 96.613281 90.292969 123.542969 L 90.289062 188.207031 L 99.667969 188.207031 L 99.671875 123.550781 C 99.71875 101.796875 117.464844 84.089844 139.226562 84.089844 L 140.207031 84.089844 C 159.277344 84.089844 174.84375 68.574219 174.914062 49.507812 L 175.121094 0.625 Z M 165.738281 0.585938 " fill-opacity="1" fill-rule="nonzero"/></g><g clip-path="url(#5fa17d8825)"><path fill="#e7e7e7" d="M 189.910156 0.605469 L 180.527344 0.609375 L 180.539062 49.222656 C 180.578125 60.039062 176.402344 70.199219 168.777344 77.851562 C 161.152344 85.503906 151.007812 89.714844 140.207031 89.714844 C 121.167969 89.714844 105.625 105.207031 105.5625 124.246094 L 105.464844 188.199219 L 114.847656 188.214844 L 114.945312 124.269531 C 114.988281 110.390625 126.324219 99.097656 140.207031 99.097656 C 153.519531 99.097656 166.027344 93.902344 175.421875 84.472656 C 184.820312 75.042969 189.96875 62.515625 189.921875 49.207031 Z M 189.910156 0.605469 " fill-opacity="1" fill-rule="nonzero"/></g><g clip-path="url(#8915e9e3ae)"><path fill="#ff8200" d="M 195.644531 0.601562 L 195.601562 49.269531 C 195.628906 64.085938 189.882812 78.003906 179.425781 88.480469 C 168.96875 98.957031 155.0625 104.722656 140.257812 104.722656 C 129.464844 104.722656 120.65625 113.503906 120.617188 124.296875 L 120.492188 188.195312 L 129.871094 188.214844 L 129.996094 124.324219 C 130.015625 118.691406 134.621094 114.105469 140.261719 114.105469 C 157.570312 114.105469 173.835938 107.359375 186.066406 95.105469 C 198.292969 82.855469 205.011719 66.574219 204.980469 49.265625 L 205.023438 0.609375 Z M 195.644531 0.601562 " fill-opacity="1" fill-rule="nonzero"/></g><g clip-path="url(#89a63ec344)"><path fill="#006434" d="M 75.167969 187.605469 L 75.125 236.261719 C 75.132812 239.058594 74.050781 241.675781 72.085938 243.648438 C 70.117188 245.617188 67.5 246.703125 64.71875 246.703125 L 62.40625 246.703125 C 45.761719 246.703125 30.105469 253.179688 18.320312 264.9375 C 6.539062 276.695312 0.03125 292.339844 0 308.984375 L 0.00390625 375.207031 L 9.382812 375.207031 L 9.378906 308.992188 C 9.4375 279.820312 33.226562 256.082031 62.40625 256.082031 L 64.71875 256.082031 C 70.011719 256.082031 74.984375 254.019531 78.722656 250.273438 C 82.460938 246.527344 84.515625 241.550781 84.507812 236.257812 L 84.546875 187.613281 Z M 75.167969 187.605469 " fill-opacity="1" fill-rule="nonzero"/></g><g clip-path="url(#75477edf78)"><path fill="#c0c0c0" d="M 90.472656 187.589844 L 90.269531 236.472656 C 90.21875 250.390625 78.859375 261.710938 64.945312 261.710938 L 63.964844 261.710938 C 37.035156 261.710938 15.085938 283.617188 15.027344 310.542969 L 15.023438 375.207031 L 24.402344 375.207031 L 24.410156 310.550781 C 24.453125 288.796875 42.199219 271.089844 63.964844 271.089844 L 64.945312 271.089844 C 84.011719 271.089844 99.582031 255.578125 99.648438 236.511719 L 99.855469 187.628906 Z M 90.472656 187.589844 " fill-opacity="1" fill-rule="nonzero"/></g><g clip-path="url(#628f314ca1)"><path fill="#e7e7e7" d="M 114.644531 187.605469 L 105.265625 187.609375 L 105.277344 236.222656 C 105.3125 247.039062 101.136719 257.203125 93.511719 264.851562 C 85.890625 272.503906 75.742188 276.71875 64.941406 276.71875 C 45.902344 276.71875 30.363281 292.207031 30.300781 311.246094 L 30.203125 375.199219 L 39.582031 375.214844 L 39.679688 311.269531 C 39.726562 297.394531 51.058594 286.097656 64.941406 286.097656 C 78.253906 286.097656 90.761719 280.902344 100.160156 271.472656 C 109.554688 262.042969 114.703125 249.519531 114.65625 236.207031 Z M 114.644531 187.605469 " fill-opacity="1" fill-rule="nonzero"/></g><g clip-path="url(#459cf9cb8f)"><path fill="#ff8200" d="M 120.378906 187.605469 L 120.335938 236.273438 C 120.363281 251.085938 114.621094 265.007812 104.164062 275.480469 C 93.707031 285.957031 79.796875 291.726562 64.996094 291.726562 C 54.203125 291.726562 45.390625 300.507812 45.351562 311.296875 L 45.226562 375.199219 L 54.605469 375.214844 L 54.730469 311.324219 C 54.753906 305.691406 59.355469 301.105469 64.996094 301.105469 C 82.304688 301.105469 98.574219 294.359375 110.800781 282.109375 C 123.03125 269.855469 129.746094 253.578125 129.71875 236.269531 L 129.757812 187.613281 Z M 120.378906 187.605469 " fill-opacity="1" fill-rule="nonzero"/></g></svg>