<svg xmlns="http://www.w3.org/2000/svg" xmlns:xlink="http://www.w3.org/1999/xlink" width="500" zoomAndPan="magnify" viewBox="0 0 375 374.999991" height="500" preserveAspectRatio="xMidYMid meet" version="1.0"><defs><g/></defs><g fill="#292929" fill-opacity="1"><g transform="translate(8.988285, 160.509292)"><g><path d="M 34.390625 -10.59375 C 35.191406 -9.1875 35.953125 -7.878906 36.671875 -6.671875 C 37.398438 -5.472656 38.066406 -4.421875 38.671875 -3.515625 C 39.273438 -2.617188 39.785156 -1.921875 40.203125 -1.421875 C 40.628906 -0.921875 40.992188 -0.671875 41.296875 -0.671875 L 41.296875 0 L 32.515625 0 L 32.515625 -0.671875 C 32.816406 -0.671875 32.691406 -1.445312 32.140625 -3 C 31.585938 -4.550781 30.613281 -6.53125 29.21875 -8.9375 L 17.796875 -28.6875 L 9.3125 -28.6875 L 9.3125 -6.453125 C 9.3125 -5.253906 9.375 -4.265625 9.5 -3.484375 C 9.625 -2.710938 9.785156 -2.125 9.984375 -1.71875 C 10.179688 -1.320312 10.378906 -1.046875 10.578125 -0.890625 C 10.785156 -0.742188 10.9375 -0.671875 11.03125 -0.671875 L 11.03125 0 L 2.25 0 L 2.25 -0.671875 C 2.351562 -0.671875 2.503906 -0.742188 2.703125 -0.890625 C 2.898438 -1.046875 3.085938 -1.320312 3.265625 -1.71875 C 3.441406 -2.125 3.601562 -2.710938 3.75 -3.484375 C 3.90625 -4.265625 3.984375 -5.253906 3.984375 -6.453125 L 3.984375 -46.25 C 3.984375 -47.507812 3.90625 -48.515625 3.75 -49.265625 C 3.601562 -50.015625 3.441406 -50.585938 3.265625 -50.984375 C 3.085938 -51.390625 2.898438 -51.664062 2.703125 -51.8125 C 2.503906 -51.96875 2.351562 -52.046875 2.25 -52.046875 L 2.25 -52.71875 L 2.921875 -52.71875 C 5.179688 -52.769531 7.507812 -52.921875 9.90625 -53.171875 C 12.3125 -53.421875 14.617188 -53.546875 16.828125 -53.546875 C 20.628906 -53.546875 23.832031 -53.234375 26.4375 -52.609375 C 29.039062 -51.984375 31.140625 -51.117188 32.734375 -50.015625 C 34.335938 -48.910156 35.488281 -47.59375 36.1875 -46.0625 C 36.894531 -44.539062 37.25 -42.878906 37.25 -41.078125 C 37.25 -39.578125 37.007812 -38.175781 36.53125 -36.875 C 36.050781 -35.570312 35.273438 -34.394531 34.203125 -33.34375 C 33.128906 -32.289062 31.726562 -31.398438 30 -30.671875 C 28.269531 -29.953125 26.179688 -29.414062 23.734375 -29.0625 Z M 9.3125 -52.484375 L 9.3125 -29.28125 L 16.828125 -29.28125 C 18.472656 -29.28125 20.179688 -29.457031 21.953125 -29.8125 C 23.734375 -30.164062 25.363281 -30.789062 26.84375 -31.6875 C 28.320312 -32.59375 29.546875 -33.804688 30.515625 -35.328125 C 31.492188 -36.859375 31.984375 -38.773438 31.984375 -41.078125 C 31.984375 -43.378906 31.492188 -45.289062 30.515625 -46.8125 C 29.546875 -48.34375 28.320312 -49.554688 26.84375 -50.453125 C 25.363281 -51.359375 23.734375 -52 21.953125 -52.375 C 20.179688 -52.75 18.472656 -52.9375 16.828125 -52.9375 C 15.671875 -52.9375 14.453125 -52.882812 13.171875 -52.78125 C 11.898438 -52.6875 10.613281 -52.585938 9.3125 -52.484375 Z M 9.3125 -52.484375 "/></g></g></g><g fill="#292929" fill-opacity="1"><g transform="translate(52.535844, 160.509292)"><g><path d="M 2.546875 -13.296875 C 1.898438 -15.742188 1.75 -18.171875 2.09375 -20.578125 C 2.445312 -22.984375 3.210938 -25.195312 4.390625 -27.21875 C 5.566406 -29.25 7.101562 -31.015625 9 -32.515625 C 10.90625 -34.015625 13.085938 -35.09375 15.546875 -35.75 C 18.148438 -36.445312 20.648438 -36.609375 23.046875 -36.234375 C 25.453125 -35.859375 27.628906 -35.117188 29.578125 -34.015625 C 31.535156 -32.910156 33.210938 -31.507812 34.609375 -29.8125 C 36.015625 -28.113281 37.019531 -26.257812 37.625 -24.25 C 35.820312 -24.25 33.878906 -24.175781 31.796875 -24.03125 C 29.722656 -23.882812 27.832031 -23.609375 26.125 -23.203125 C 27.53125 -23.253906 28.820312 -23.015625 30 -22.484375 C 31.175781 -21.960938 32.1875 -21.25 33.03125 -20.34375 C 33.882812 -19.445312 34.5625 -18.394531 35.0625 -17.1875 C 35.5625 -15.988281 35.863281 -14.738281 35.96875 -13.4375 C 36.164062 -10.738281 35.601562 -8.398438 34.28125 -6.421875 C 32.957031 -4.441406 31.203125 -2.890625 29.015625 -1.765625 C 26.835938 -0.640625 24.394531 0.0078125 21.6875 0.1875 C 18.988281 0.363281 16.375 0.00390625 13.84375 -0.890625 C 11.320312 -1.796875 9.035156 -3.257812 6.984375 -5.28125 C 4.929688 -7.3125 3.453125 -9.984375 2.546875 -13.296875 Z M 6.984375 -18.703125 C 7.128906 -17.242188 7.351562 -15.890625 7.65625 -14.640625 C 8.613281 -11.035156 10.066406 -8.207031 12.015625 -6.15625 C 13.960938 -4.101562 16.078125 -2.703125 18.359375 -1.953125 C 20.640625 -1.203125 22.929688 -1.039062 25.234375 -1.46875 C 27.535156 -1.894531 29.535156 -2.753906 31.234375 -4.046875 C 32.941406 -5.347656 34.179688 -7.015625 34.953125 -9.046875 C 35.734375 -11.078125 35.75 -13.34375 35 -15.84375 C 34.59375 -17.195312 33.9375 -18.421875 33.03125 -19.515625 C 32.132812 -20.617188 31.035156 -21.429688 29.734375 -21.953125 C 28.429688 -22.484375 26.953125 -22.6875 25.296875 -22.5625 C 23.648438 -22.4375 21.898438 -21.820312 20.046875 -20.71875 C 18.242188 -19.675781 16.476562 -18.941406 14.75 -18.515625 C 13.03125 -18.085938 11.441406 -17.921875 9.984375 -18.015625 C 9.429688 -18.066406 8.90625 -18.128906 8.40625 -18.203125 C 7.90625 -18.285156 7.429688 -18.453125 6.984375 -18.703125 Z M 31.84375 -24.625 C 31.132812 -26.226562 30.226562 -27.769531 29.125 -29.25 C 28.03125 -30.726562 26.796875 -31.992188 25.421875 -33.046875 C 24.046875 -34.097656 22.53125 -34.847656 20.875 -35.296875 C 19.21875 -35.742188 17.488281 -35.71875 15.6875 -35.21875 C 13.988281 -34.769531 12.5625 -33.992188 11.40625 -32.890625 C 10.257812 -31.785156 9.347656 -30.507812 8.671875 -29.0625 C 7.992188 -27.613281 7.515625 -26.035156 7.234375 -24.328125 C 6.960938 -22.628906 6.878906 -20.953125 6.984375 -19.296875 C 7.835938 -18.898438 8.835938 -18.648438 9.984375 -18.546875 C 11.390625 -18.441406 12.929688 -18.601562 14.609375 -19.03125 C 16.285156 -19.457031 18 -20.171875 19.75 -21.171875 C 21.851562 -22.378906 23.957031 -23.234375 26.0625 -23.734375 C 28.164062 -24.234375 30.09375 -24.53125 31.84375 -24.625 Z M 31.84375 -24.625 "/></g></g></g><g fill="#292929" fill-opacity="1"><g transform="translate(92.028979, 160.509292)"><g><path d="M 27.859375 -22.671875 C 27.859375 -23.722656 27.566406 -24.863281 26.984375 -26.09375 C 26.410156 -27.320312 25.625 -28.523438 24.625 -29.703125 C 23.625 -30.878906 22.484375 -31.929688 21.203125 -32.859375 C 19.929688 -33.785156 18.609375 -34.457031 17.234375 -34.875 C 15.859375 -35.300781 14.476562 -35.398438 13.09375 -35.171875 C 11.71875 -34.953125 10.484375 -34.265625 9.390625 -33.109375 C 8.335938 -32.066406 7.832031 -30.832031 7.875 -29.40625 C 7.925781 -27.976562 8.53125 -26.6875 9.6875 -25.53125 C 10.539062 -24.675781 11.804688 -23.820312 13.484375 -22.96875 C 15.160156 -22.125 17.375 -21.351562 20.125 -20.65625 C 22.175781 -20.101562 23.898438 -19.453125 25.296875 -18.703125 C 26.703125 -17.953125 27.859375 -17.148438 28.765625 -16.296875 C 30.210938 -14.847656 31.0625 -13.21875 31.3125 -11.40625 C 31.5625 -9.601562 31.1875 -7.800781 30.1875 -6 C 29.6875 -5.15625 29.097656 -4.367188 28.421875 -3.640625 C 27.742188 -2.910156 27.003906 -2.320312 26.203125 -1.875 C 25.398438 -1.320312 24.507812 -0.859375 23.53125 -0.484375 C 22.5625 -0.109375 21.550781 0.1875 20.5 0.40625 C 19.445312 0.632812 18.394531 0.785156 17.34375 0.859375 C 16.289062 0.929688 15.289062 0.945312 14.34375 0.90625 C 12.539062 0.75 10.648438 0.359375 8.671875 -0.265625 C 6.691406 -0.890625 4.628906 -1.851562 2.484375 -3.15625 L 1.875 -3.53125 L 3.671875 -11.859375 L 4.28125 -11.71875 C 4.175781 -11.257812 4.273438 -10.679688 4.578125 -9.984375 C 4.878906 -9.285156 5.253906 -8.5625 5.703125 -7.8125 C 6.160156 -7.0625 6.640625 -6.375 7.140625 -5.75 C 7.640625 -5.125 8.0625 -4.660156 8.40625 -4.359375 C 9.40625 -3.359375 10.503906 -2.566406 11.703125 -1.984375 C 12.910156 -1.410156 14.164062 -1 15.46875 -0.75 C 16.71875 -0.5 17.957031 -0.398438 19.1875 -0.453125 C 20.414062 -0.503906 21.578125 -0.675781 22.671875 -0.96875 C 23.273438 -1.125 23.828125 -1.3125 24.328125 -1.53125 C 24.828125 -1.757812 25.351562 -2.023438 25.90625 -2.328125 C 26.40625 -2.679688 26.859375 -3.054688 27.265625 -3.453125 C 27.609375 -3.859375 27.914062 -4.285156 28.1875 -4.734375 C 28.46875 -5.179688 28.660156 -5.65625 28.765625 -6.15625 C 28.859375 -6.957031 28.804688 -7.679688 28.609375 -8.328125 C 28.253906 -9.285156 27.664062 -10.101562 26.84375 -10.78125 C 26.019531 -11.457031 25.054688 -12.03125 23.953125 -12.5 C 22.847656 -12.976562 21.65625 -13.390625 20.375 -13.734375 C 19.101562 -14.085938 17.84375 -14.46875 16.59375 -14.875 C 14.1875 -15.570312 12.070312 -16.570312 10.25 -17.875 C 8.425781 -19.175781 7.097656 -20.664062 6.265625 -22.34375 C 5.441406 -24.019531 5.191406 -25.804688 5.515625 -27.703125 C 5.835938 -29.609375 6.976562 -31.535156 8.9375 -33.484375 C 10.238281 -34.835938 11.953125 -35.675781 14.078125 -36 C 16.203125 -36.332031 18.351562 -36.332031 20.53125 -36 C 22.71875 -35.675781 24.695312 -35.078125 26.46875 -34.203125 C 28.25 -33.328125 29.460938 -32.335938 30.109375 -31.234375 L 28.234375 -22.671875 Z M 27.859375 -22.671875 "/></g></g></g><g fill="#292929" fill-opacity="1"><g transform="translate(125.365387, 160.509292)"><g><path d="M 1.875 -36.1875 C 2.175781 -36.1875 2.726562 -36.257812 3.53125 -36.40625 C 4.332031 -36.5625 5.144531 -36.976562 5.96875 -37.65625 C 6.789062 -38.332031 7.515625 -39.359375 8.140625 -40.734375 C 8.773438 -42.109375 9.09375 -44.023438 9.09375 -46.484375 L 14.34375 -46.484375 C 14.34375 -43.484375 13.738281 -41.164062 12.53125 -39.53125 C 11.332031 -37.90625 9.535156 -36.789062 7.140625 -36.1875 L 18.390625 -36.1875 L 18.390625 -35.671875 L 11.859375 -35.671875 L 11.859375 -13.96875 C 11.859375 -13.0625 11.910156 -11.96875 12.015625 -10.6875 C 12.117188 -9.414062 12.332031 -8.164062 12.65625 -6.9375 C 12.976562 -5.71875 13.453125 -4.609375 14.078125 -3.609375 C 14.703125 -2.609375 15.539062 -1.929688 16.59375 -1.578125 C 17.644531 -1.222656 18.671875 -1.222656 19.671875 -1.578125 C 20.671875 -1.929688 21.582031 -2.484375 22.40625 -3.234375 C 23.238281 -3.984375 23.976562 -4.832031 24.625 -5.78125 C 25.28125 -6.726562 25.804688 -7.628906 26.203125 -8.484375 C 26.503906 -9.179688 26.789062 -9.914062 27.0625 -10.6875 C 27.34375 -11.46875 27.609375 -12.285156 27.859375 -13.140625 L 28.53125 -13.140625 C 28.28125 -12.242188 28.015625 -11.378906 27.734375 -10.546875 C 27.460938 -9.722656 27.15625 -8.960938 26.8125 -8.265625 C 26.351562 -7.210938 25.785156 -6.179688 25.109375 -5.171875 C 24.441406 -4.171875 23.679688 -3.257812 22.828125 -2.4375 C 21.972656 -1.613281 21.019531 -0.953125 19.96875 -0.453125 C 18.914062 0.046875 17.765625 0.296875 16.515625 0.296875 C 14.460938 0.296875 12.796875 -0.125 11.515625 -0.96875 C 10.242188 -1.820312 9.242188 -2.925781 8.515625 -4.28125 C 7.796875 -5.632812 7.296875 -7.160156 7.015625 -8.859375 C 6.742188 -10.566406 6.609375 -12.269531 6.609375 -13.96875 L 6.609375 -31.09375 C 6.609375 -32.34375 6.179688 -33.414062 5.328125 -34.3125 C 4.484375 -35.21875 3.332031 -35.671875 1.875 -35.671875 Z M 1.875 -36.1875 "/></g></g></g><g fill="#292929" fill-opacity="1"><g transform="translate(155.773596, 160.509292)"><g><path d="M 36.1875 0 L 29.28125 0 L 29.28125 -21.625 C 29.28125 -22.976562 29.21875 -24.476562 29.09375 -26.125 C 28.96875 -27.78125 28.65625 -29.332031 28.15625 -30.78125 C 27.65625 -32.238281 26.890625 -33.453125 25.859375 -34.421875 C 24.835938 -35.398438 23.425781 -35.890625 21.625 -35.890625 C 19.820312 -35.890625 18.253906 -35.625 16.921875 -35.09375 C 15.597656 -34.570312 14.535156 -33.960938 13.734375 -33.265625 C 12.941406 -32.566406 12.421875 -31.863281 12.171875 -31.15625 C 11.921875 -30.457031 11.96875 -29.910156 12.3125 -29.515625 C 12.507812 -29.265625 12.847656 -29.078125 13.328125 -28.953125 C 13.804688 -28.828125 14.34375 -28.710938 14.9375 -28.609375 C 15.539062 -28.503906 16.179688 -28.398438 16.859375 -28.296875 C 17.535156 -28.203125 18.171875 -28.03125 18.765625 -27.78125 C 20.421875 -27.132812 21.738281 -26.097656 22.71875 -24.671875 C 23.695312 -23.242188 24.382812 -21.648438 24.78125 -19.890625 C 25.175781 -18.140625 25.320312 -16.335938 25.21875 -14.484375 C 25.125 -12.640625 24.78125 -11.015625 24.1875 -9.609375 C 23.03125 -6.703125 21.320312 -4.296875 19.0625 -2.390625 C 16.8125 -0.492188 14.363281 0.398438 11.71875 0.296875 C 9.207031 0.203125 7.175781 -0.476562 5.625 -1.75 C 4.070312 -3.03125 3.007812 -4.609375 2.4375 -6.484375 C 1.863281 -8.367188 1.800781 -10.398438 2.25 -12.578125 C 2.695312 -14.753906 3.660156 -16.78125 5.140625 -18.65625 C 6.617188 -20.539062 8.644531 -22.128906 11.21875 -23.421875 C 13.800781 -24.722656 16.945312 -25.453125 20.65625 -25.609375 C 20.75 -25.660156 20.921875 -25.6875 21.171875 -25.6875 C 20.421875 -26.332031 19.546875 -26.859375 18.546875 -27.265625 C 17.648438 -27.609375 16.675781 -27.828125 15.625 -27.921875 C 14.570312 -28.023438 13.582031 -28.050781 12.65625 -28 C 11.726562 -27.957031 10.898438 -27.882812 10.171875 -27.78125 C 9.453125 -27.6875 8.988281 -27.613281 8.78125 -27.5625 C 8.632812 -28.3125 8.847656 -29.195312 9.421875 -30.21875 C 9.992188 -31.25 10.84375 -32.226562 11.96875 -33.15625 C 13.101562 -34.082031 14.484375 -34.859375 16.109375 -35.484375 C 17.734375 -36.109375 19.570312 -36.421875 21.625 -36.421875 C 24.03125 -36.421875 26.054688 -36.046875 27.703125 -35.296875 C 29.359375 -34.546875 30.6875 -33.519531 31.6875 -32.21875 C 32.6875 -30.914062 33.398438 -29.347656 33.828125 -27.515625 C 34.253906 -25.691406 34.46875 -23.726562 34.46875 -21.625 L 34.46875 -6.453125 C 34.46875 -5.203125 34.53125 -4.203125 34.65625 -3.453125 C 34.78125 -2.703125 34.941406 -2.113281 35.140625 -1.6875 C 35.335938 -1.257812 35.535156 -0.984375 35.734375 -0.859375 C 35.941406 -0.734375 36.09375 -0.671875 36.1875 -0.671875 Z M 21.703125 -25.078125 C 19.703125 -25.078125 17.8125 -24.828125 16.03125 -24.328125 C 14.25 -23.828125 12.695312 -23.050781 11.375 -22 C 10.050781 -20.945312 9 -19.617188 8.21875 -18.015625 C 7.445312 -16.421875 7.0625 -14.546875 7.0625 -12.390625 C 7.0625 -11.335938 7.171875 -10.285156 7.390625 -9.234375 C 7.617188 -8.179688 7.992188 -7.203125 8.515625 -6.296875 C 9.046875 -5.398438 9.710938 -4.625 10.515625 -3.96875 C 11.316406 -3.320312 12.289062 -2.898438 13.4375 -2.703125 C 14.644531 -2.453125 15.769531 -2.5 16.8125 -2.84375 C 17.863281 -3.195312 18.835938 -3.710938 19.734375 -4.390625 C 20.640625 -5.066406 21.429688 -5.878906 22.109375 -6.828125 C 22.785156 -7.785156 23.328125 -8.765625 23.734375 -9.765625 C 24.179688 -10.960938 24.492188 -12.25 24.671875 -13.625 C 24.847656 -15 24.859375 -16.375 24.703125 -17.75 C 24.554688 -19.132812 24.234375 -20.453125 23.734375 -21.703125 C 23.234375 -22.953125 22.554688 -24.078125 21.703125 -25.078125 Z M 21.703125 -25.078125 "/></g></g></g><g fill="#292929" fill-opacity="1"><g transform="translate(193.840167, 160.509292)"><g><path d="M 33.71875 0 L 26.8125 0 L 26.8125 -19.375 C 26.457031 -17.125 26.03125 -15.070312 25.53125 -13.21875 C 25.03125 -11.363281 24.457031 -9.710938 23.8125 -8.265625 C 23.300781 -7.210938 22.71875 -6.179688 22.0625 -5.171875 C 21.414062 -4.171875 20.65625 -3.257812 19.78125 -2.4375 C 18.90625 -1.613281 17.953125 -0.953125 16.921875 -0.453125 C 15.898438 0.046875 14.765625 0.296875 13.515625 0.296875 C 11.460938 0.296875 9.796875 -0.125 8.515625 -0.96875 C 7.242188 -1.820312 6.242188 -2.925781 5.515625 -4.28125 C 4.796875 -5.632812 4.296875 -7.160156 4.015625 -8.859375 C 3.742188 -10.566406 3.609375 -12.269531 3.609375 -13.96875 L 3.609375 -29.734375 C 3.609375 -30.984375 3.53125 -31.984375 3.375 -32.734375 C 3.226562 -33.492188 3.066406 -34.070312 2.890625 -34.46875 C 2.710938 -34.863281 2.523438 -35.132812 2.328125 -35.28125 C 2.128906 -35.4375 1.976562 -35.515625 1.875 -35.515625 L 1.875 -36.1875 L 8.859375 -36.1875 L 8.859375 -13.96875 C 8.859375 -13.0625 8.90625 -11.96875 9 -10.6875 C 9.101562 -9.414062 9.316406 -8.164062 9.640625 -6.9375 C 9.972656 -5.71875 10.453125 -4.609375 11.078125 -3.609375 C 11.703125 -2.609375 12.539062 -1.929688 13.59375 -1.578125 C 14.644531 -1.222656 15.671875 -1.222656 16.671875 -1.578125 C 17.671875 -1.929688 18.582031 -2.484375 19.40625 -3.234375 C 20.238281 -3.984375 20.976562 -4.832031 21.625 -5.78125 C 22.28125 -6.726562 22.804688 -7.628906 23.203125 -8.484375 C 24.304688 -10.890625 25.179688 -13.832031 25.828125 -17.3125 C 26.484375 -20.789062 26.8125 -24.929688 26.8125 -29.734375 C 26.8125 -30.984375 26.734375 -31.984375 26.578125 -32.734375 C 26.429688 -33.492188 26.269531 -34.070312 26.09375 -34.46875 C 25.914062 -34.863281 25.726562 -35.132812 25.53125 -35.28125 C 25.332031 -35.4375 25.179688 -35.515625 25.078125 -35.515625 L 25.078125 -36.1875 L 31.984375 -36.1875 L 31.984375 -6.453125 C 31.984375 -5.203125 32.046875 -4.203125 32.171875 -3.453125 C 32.296875 -2.703125 32.457031 -2.113281 32.65625 -1.6875 C 32.863281 -1.257812 33.066406 -0.984375 33.265625 -0.859375 C 33.460938 -0.734375 33.613281 -0.671875 33.71875 -0.671875 Z M 33.71875 0 "/></g></g></g><g fill="#292929" fill-opacity="1"><g transform="translate(229.429036, 160.509292)"><g><path d="M 28.90625 -28.984375 C 29.3125 -27.078125 29.8125 -26.203125 30.40625 -26.359375 L 30.640625 -25.75 L 26.578125 -24.1875 L 26.359375 -24.109375 L 22.453125 -22.609375 L 22.453125 -23.28125 C 23.003906 -23.632812 23.378906 -24.195312 23.578125 -24.96875 C 23.773438 -25.738281 23.875 -26.476562 23.875 -27.1875 C 23.78125 -28.03125 23.644531 -28.863281 23.46875 -29.6875 C 23.289062 -30.519531 23.023438 -31.285156 22.671875 -31.984375 C 22.328125 -32.691406 21.863281 -33.28125 21.28125 -33.75 C 20.707031 -34.226562 20.019531 -34.519531 19.21875 -34.625 C 17.113281 -34.914062 15.410156 -34.8125 14.109375 -34.3125 C 12.816406 -33.8125 11.789062 -33.0625 11.03125 -32.0625 C 10.28125 -31.0625 9.742188 -29.894531 9.421875 -28.5625 C 9.097656 -27.238281 8.910156 -25.878906 8.859375 -24.484375 L 8.859375 -6.453125 C 8.859375 -5.203125 8.921875 -4.203125 9.046875 -3.453125 C 9.171875 -2.703125 9.332031 -2.113281 9.53125 -1.6875 C 9.738281 -1.257812 9.941406 -0.984375 10.140625 -0.859375 C 10.335938 -0.734375 10.488281 -0.671875 10.59375 -0.671875 L 10.59375 0 L 1.875 0 L 1.875 -0.671875 C 2.03125 -0.671875 2.207031 -0.734375 2.40625 -0.859375 C 2.601562 -0.984375 2.789062 -1.257812 2.96875 -1.6875 C 3.144531 -2.113281 3.304688 -2.703125 3.453125 -3.453125 C 3.597656 -4.203125 3.671875 -5.203125 3.671875 -6.453125 L 3.671875 -29.734375 C 3.671875 -30.984375 3.597656 -31.984375 3.453125 -32.734375 C 3.304688 -33.492188 3.144531 -34.070312 2.96875 -34.46875 C 2.789062 -34.863281 2.601562 -35.132812 2.40625 -35.28125 C 2.207031 -35.4375 2.03125 -35.515625 1.875 -35.515625 L 1.875 -36.1875 L 8.859375 -36.1875 L 8.859375 -29.0625 C 9.109375 -30.113281 9.484375 -31.101562 9.984375 -32.03125 C 10.484375 -32.957031 11.144531 -33.742188 11.96875 -34.390625 C 12.800781 -35.046875 13.816406 -35.5625 15.015625 -35.9375 C 16.222656 -36.3125 17.675781 -36.5 19.375 -36.5 C 22.226562 -36.5 24.414062 -35.796875 25.9375 -34.390625 C 27.46875 -32.992188 28.457031 -31.191406 28.90625 -28.984375 Z M 28.90625 -28.984375 "/></g></g></g><g fill="#292929" fill-opacity="1"><g transform="translate(261.939547, 160.509292)"><g><path d="M 36.1875 0 L 29.28125 0 L 29.28125 -21.625 C 29.28125 -22.976562 29.21875 -24.476562 29.09375 -26.125 C 28.96875 -27.78125 28.65625 -29.332031 28.15625 -30.78125 C 27.65625 -32.238281 26.890625 -33.453125 25.859375 -34.421875 C 24.835938 -35.398438 23.425781 -35.890625 21.625 -35.890625 C 19.820312 -35.890625 18.253906 -35.625 16.921875 -35.09375 C 15.597656 -34.570312 14.535156 -33.960938 13.734375 -33.265625 C 12.941406 -32.566406 12.421875 -31.863281 12.171875 -31.15625 C 11.921875 -30.457031 11.96875 -29.910156 12.3125 -29.515625 C 12.507812 -29.265625 12.847656 -29.078125 13.328125 -28.953125 C 13.804688 -28.828125 14.34375 -28.710938 14.9375 -28.609375 C 15.539062 -28.503906 16.179688 -28.398438 16.859375 -28.296875 C 17.535156 -28.203125 18.171875 -28.03125 18.765625 -27.78125 C 20.421875 -27.132812 21.738281 -26.097656 22.71875 -24.671875 C 23.695312 -23.242188 24.382812 -21.648438 24.78125 -19.890625 C 25.175781 -18.140625 25.320312 -16.335938 25.21875 -14.484375 C 25.125 -12.640625 24.78125 -11.015625 24.1875 -9.609375 C 23.03125 -6.703125 21.320312 -4.296875 19.0625 -2.390625 C 16.8125 -0.492188 14.363281 0.398438 11.71875 0.296875 C 9.207031 0.203125 7.175781 -0.476562 5.625 -1.75 C 4.070312 -3.03125 3.007812 -4.609375 2.4375 -6.484375 C 1.863281 -8.367188 1.800781 -10.398438 2.25 -12.578125 C 2.695312 -14.753906 3.660156 -16.78125 5.140625 -18.65625 C 6.617188 -20.539062 8.644531 -22.128906 11.21875 -23.421875 C 13.800781 -24.722656 16.945312 -25.453125 20.65625 -25.609375 C 20.75 -25.660156 20.921875 -25.6875 21.171875 -25.6875 C 20.421875 -26.332031 19.546875 -26.859375 18.546875 -27.265625 C 17.648438 -27.609375 16.675781 -27.828125 15.625 -27.921875 C 14.570312 -28.023438 13.582031 -28.050781 12.65625 -28 C 11.726562 -27.957031 10.898438 -27.882812 10.171875 -27.78125 C 9.453125 -27.6875 8.988281 -27.613281 8.78125 -27.5625 C 8.632812 -28.3125 8.847656 -29.195312 9.421875 -30.21875 C 9.992188 -31.25 10.84375 -32.226562 11.96875 -33.15625 C 13.101562 -34.082031 14.484375 -34.859375 16.109375 -35.484375 C 17.734375 -36.109375 19.570312 -36.421875 21.625 -36.421875 C 24.03125 -36.421875 26.054688 -36.046875 27.703125 -35.296875 C 29.359375 -34.546875 30.6875 -33.519531 31.6875 -32.21875 C 32.6875 -30.914062 33.398438 -29.347656 33.828125 -27.515625 C 34.253906 -25.691406 34.46875 -23.726562 34.46875 -21.625 L 34.46875 -6.453125 C 34.46875 -5.203125 34.53125 -4.203125 34.65625 -3.453125 C 34.78125 -2.703125 34.941406 -2.113281 35.140625 -1.6875 C 35.335938 -1.257812 35.535156 -0.984375 35.734375 -0.859375 C 35.941406 -0.734375 36.09375 -0.671875 36.1875 -0.671875 Z M 21.703125 -25.078125 C 19.703125 -25.078125 17.8125 -24.828125 16.03125 -24.328125 C 14.25 -23.828125 12.695312 -23.050781 11.375 -22 C 10.050781 -20.945312 9 -19.617188 8.21875 -18.015625 C 7.445312 -16.421875 7.0625 -14.546875 7.0625 -12.390625 C 7.0625 -11.335938 7.171875 -10.285156 7.390625 -9.234375 C 7.617188 -8.179688 7.992188 -7.203125 8.515625 -6.296875 C 9.046875 -5.398438 9.710938 -4.625 10.515625 -3.96875 C 11.316406 -3.320312 12.289062 -2.898438 13.4375 -2.703125 C 14.644531 -2.453125 15.769531 -2.5 16.8125 -2.84375 C 17.863281 -3.195312 18.835938 -3.710938 19.734375 -4.390625 C 20.640625 -5.066406 21.429688 -5.878906 22.109375 -6.828125 C 22.785156 -7.785156 23.328125 -8.765625 23.734375 -9.765625 C 24.179688 -10.960938 24.492188 -12.25 24.671875 -13.625 C 24.847656 -15 24.859375 -16.375 24.703125 -17.75 C 24.554688 -19.132812 24.234375 -20.453125 23.734375 -21.703125 C 23.234375 -22.953125 22.554688 -24.078125 21.703125 -25.078125 Z M 21.703125 -25.078125 "/></g></g></g><g fill="#292929" fill-opacity="1"><g transform="translate(300.006118, 160.509292)"><g><path d="M 1.875 -36.1875 L 8.78125 -36.1875 L 8.78125 -16.75 C 9.082031 -19.050781 9.492188 -21.125 10.015625 -22.96875 C 10.546875 -24.820312 11.140625 -26.476562 11.796875 -27.9375 C 12.296875 -28.988281 12.867188 -30.015625 13.515625 -31.015625 C 14.171875 -32.015625 14.9375 -32.925781 15.8125 -33.75 C 16.6875 -34.582031 17.632812 -35.25 18.65625 -35.75 C 19.6875 -36.25 20.828125 -36.5 22.078125 -36.5 C 24.128906 -36.5 25.789062 -36.070312 27.0625 -35.21875 C 28.34375 -34.363281 29.34375 -33.257812 30.0625 -31.90625 C 30.789062 -30.5625 31.289062 -29.035156 31.5625 -27.328125 C 31.84375 -25.628906 31.984375 -23.929688 31.984375 -22.234375 L 31.984375 -6.453125 C 31.984375 -5.203125 32.046875 -4.203125 32.171875 -3.453125 C 32.296875 -2.703125 32.457031 -2.113281 32.65625 -1.6875 C 32.863281 -1.257812 33.066406 -0.984375 33.265625 -0.859375 C 33.460938 -0.734375 33.613281 -0.671875 33.71875 -0.671875 L 33.71875 0 L 25 0 L 25 -0.671875 C 25.101562 -0.671875 25.253906 -0.734375 25.453125 -0.859375 C 25.648438 -0.984375 25.835938 -1.257812 26.015625 -1.6875 C 26.191406 -2.113281 26.351562 -2.703125 26.5 -3.453125 C 26.65625 -4.203125 26.734375 -5.203125 26.734375 -6.453125 L 26.734375 -22.234375 C 26.734375 -23.128906 26.679688 -24.210938 26.578125 -25.484375 C 26.484375 -26.765625 26.269531 -28.019531 25.9375 -29.25 C 25.613281 -30.476562 25.140625 -31.59375 24.515625 -32.59375 C 23.890625 -33.59375 23.050781 -34.269531 22 -34.625 C 20.945312 -34.96875 19.921875 -34.953125 18.921875 -34.578125 C 17.921875 -34.203125 17.003906 -33.640625 16.171875 -32.890625 C 15.347656 -32.140625 14.609375 -31.285156 13.953125 -30.328125 C 13.304688 -29.378906 12.785156 -28.484375 12.390625 -27.640625 C 11.285156 -25.234375 10.40625 -22.289062 9.75 -18.8125 C 9.101562 -15.332031 8.78125 -11.210938 8.78125 -6.453125 C 8.78125 -5.203125 8.84375 -4.203125 8.96875 -3.453125 C 9.09375 -2.703125 9.253906 -2.113281 9.453125 -1.6875 C 9.660156 -1.257812 9.863281 -0.984375 10.0625 -0.859375 C 10.257812 -0.734375 10.410156 -0.671875 10.515625 -0.671875 L 10.515625 0 L 1.875 0 L 1.875 -0.671875 C 1.976562 -0.671875 2.128906 -0.734375 2.328125 -0.859375 C 2.523438 -0.984375 2.710938 -1.257812 2.890625 -1.6875 C 3.066406 -2.113281 3.226562 -2.703125 3.375 -3.453125 C 3.53125 -4.203125 3.609375 -5.203125 3.609375 -6.453125 L 3.609375 -29.734375 C 3.609375 -30.941406 3.53125 -31.929688 3.375 -32.703125 C 3.226562 -33.484375 3.066406 -34.070312 2.890625 -34.46875 C 2.710938 -34.863281 2.523438 -35.132812 2.328125 -35.28125 C 2.128906 -35.4375 1.976562 -35.515625 1.875 -35.515625 Z M 1.875 -36.1875 "/></g></g></g><g fill="#292929" fill-opacity="1"><g transform="translate(335.594998, 160.509292)"><g><path d="M 1.875 -36.1875 C 2.175781 -36.1875 2.726562 -36.257812 3.53125 -36.40625 C 4.332031 -36.5625 5.144531 -36.976562 5.96875 -37.65625 C 6.789062 -38.332031 7.515625 -39.359375 8.140625 -40.734375 C 8.773438 -42.109375 9.09375 -44.023438 9.09375 -46.484375 L 14.34375 -46.484375 C 14.34375 -43.484375 13.738281 -41.164062 12.53125 -39.53125 C 11.332031 -37.90625 9.535156 -36.789062 7.140625 -36.1875 L 18.390625 -36.1875 L 18.390625 -35.671875 L 11.859375 -35.671875 L 11.859375 -13.96875 C 11.859375 -13.0625 11.910156 -11.96875 12.015625 -10.6875 C 12.117188 -9.414062 12.332031 -8.164062 12.65625 -6.9375 C 12.976562 -5.71875 13.453125 -4.609375 14.078125 -3.609375 C 14.703125 -2.609375 15.539062 -1.929688 16.59375 -1.578125 C 17.644531 -1.222656 18.671875 -1.222656 19.671875 -1.578125 C 20.671875 -1.929688 21.582031 -2.484375 22.40625 -3.234375 C 23.238281 -3.984375 23.976562 -4.832031 24.625 -5.78125 C 25.28125 -6.726562 25.804688 -7.628906 26.203125 -8.484375 C 26.503906 -9.179688 26.789062 -9.914062 27.0625 -10.6875 C 27.34375 -11.46875 27.609375 -12.285156 27.859375 -13.140625 L 28.53125 -13.140625 C 28.28125 -12.242188 28.015625 -11.378906 27.734375 -10.546875 C 27.460938 -9.722656 27.15625 -8.960938 26.8125 -8.265625 C 26.351562 -7.210938 25.785156 -6.179688 25.109375 -5.171875 C 24.441406 -4.171875 23.679688 -3.257812 22.828125 -2.4375 C 21.972656 -1.613281 21.019531 -0.953125 19.96875 -0.453125 C 18.914062 0.046875 17.765625 0.296875 16.515625 0.296875 C 14.460938 0.296875 12.796875 -0.125 11.515625 -0.96875 C 10.242188 -1.820312 9.242188 -2.925781 8.515625 -4.28125 C 7.796875 -5.632812 7.296875 -7.160156 7.015625 -8.859375 C 6.742188 -10.566406 6.609375 -12.269531 6.609375 -13.96875 L 6.609375 -31.09375 C 6.609375 -32.34375 6.179688 -33.414062 5.328125 -34.3125 C 4.484375 -35.21875 3.332031 -35.671875 1.875 -35.671875 Z M 1.875 -36.1875 "/></g></g></g><g fill="#292929" fill-opacity="1"><g transform="translate(115.30611, 248.596786)"><g><path d="M 16.171875 -8.90625 C 16.171875 -7.195312 16.253906 -5.832031 16.421875 -4.8125 C 16.597656 -3.789062 16.820312 -2.988281 17.09375 -2.40625 C 17.363281 -1.820312 17.632812 -1.445312 17.90625 -1.28125 C 18.1875 -1.113281 18.394531 -1.03125 18.53125 -1.03125 L 18.53125 -0.109375 L 6.75 -0.109375 L 6.75 -1.03125 C 6.882812 -1.03125 7.085938 -1.113281 7.359375 -1.28125 C 7.640625 -1.445312 7.898438 -1.820312 8.140625 -2.40625 C 8.378906 -2.988281 8.597656 -3.789062 8.796875 -4.8125 C 9.003906 -5.832031 9.109375 -7.195312 9.109375 -8.90625 L 9.109375 -42.375 C 9.109375 -44.082031 8.507812 -45.550781 7.3125 -46.78125 C 6.125 -48.007812 4.539062 -48.625 2.5625 -48.625 L 2.5625 -49.34375 L 9.109375 -49.34375 L 16.078125 -49.4375 C 14.429688 -49.84375 12.789062 -50.367188 11.15625 -51.015625 C 9.519531 -51.671875 8.066406 -52.492188 6.796875 -53.484375 C 5.535156 -54.472656 4.515625 -55.613281 3.734375 -56.90625 C 2.953125 -58.207031 2.5625 -59.710938 2.5625 -61.421875 C 2.5625 -63.253906 2.898438 -64.890625 3.578125 -66.328125 C 4.265625 -67.765625 5.171875 -68.992188 6.296875 -70.015625 C 7.421875 -71.035156 8.734375 -71.867188 10.234375 -72.515625 C 11.734375 -73.171875 13.300781 -73.597656 14.9375 -73.796875 C 16.300781 -74.066406 17.867188 -74.132812 19.640625 -74 C 21.421875 -73.863281 23.03125 -73.660156 24.46875 -73.390625 C 27.332031 -72.773438 30.09375 -71.820312 32.75 -70.53125 L 33.0625 -70.421875 L 31.328125 -59.375 L 30.609375 -59.46875 C 30.609375 -59.8125 30.570312 -60.085938 30.5 -60.296875 C 30.363281 -61.378906 29.851562 -62.601562 28.96875 -63.96875 C 28.082031 -65.332031 26.957031 -66.695312 25.59375 -68.0625 C 24.226562 -69.363281 22.773438 -70.488281 21.234375 -71.4375 C 19.703125 -72.394531 18.21875 -72.976562 16.78125 -73.1875 C 16.445312 -73.1875 16.160156 -73.1875 15.921875 -73.1875 C 15.679688 -73.1875 15.390625 -73.148438 15.046875 -73.078125 C 13.953125 -72.878906 13.0625 -72.367188 12.375 -71.546875 C 11.695312 -70.734375 11.1875 -69.78125 10.84375 -68.6875 C 10.507812 -67.59375 10.304688 -66.445312 10.234375 -65.25 C 10.171875 -64.0625 10.207031 -63.019531 10.34375 -62.125 C 10.539062 -60.351562 10.960938 -58.695312 11.609375 -57.15625 C 12.265625 -55.625 13.117188 -54.28125 14.171875 -53.125 C 15.234375 -51.96875 16.515625 -51.046875 18.015625 -50.359375 C 19.515625 -49.679688 21.1875 -49.34375 23.03125 -49.34375 L 32.03125 -49.34375 L 32.03125 -48.625 L 16.171875 -48.625 Z M 16.171875 -8.90625 "/></g></g></g><g fill="#292929" fill-opacity="1"><g transform="translate(150.924425, 248.596786)"><g><path d="M 3.484375 -18.734375 C 2.597656 -22.078125 2.390625 -25.382812 2.859375 -28.65625 C 3.335938 -31.9375 4.378906 -34.957031 5.984375 -37.71875 C 7.585938 -40.476562 9.6875 -42.878906 12.28125 -44.921875 C 14.875 -46.972656 17.84375 -48.445312 21.1875 -49.34375 C 24.53125 -50.226562 27.835938 -50.429688 31.109375 -49.953125 C 34.390625 -49.472656 37.425781 -48.429688 40.21875 -46.828125 C 43.019531 -45.222656 45.441406 -43.125 47.484375 -40.53125 C 49.535156 -37.9375 51.003906 -34.96875 51.890625 -31.625 C 52.785156 -28.28125 52.992188 -24.96875 52.515625 -21.6875 C 52.035156 -18.414062 50.992188 -15.398438 49.390625 -12.640625 C 47.785156 -9.878906 45.6875 -7.472656 43.09375 -5.421875 C 40.5 -3.378906 37.53125 -1.914062 34.1875 -1.03125 C 30.84375 -0.132812 27.53125 0.0703125 24.25 -0.40625 C 20.976562 -0.882812 17.941406 -1.925781 15.140625 -3.53125 C 12.347656 -5.132812 9.925781 -7.234375 7.875 -9.828125 C 5.832031 -12.421875 4.367188 -15.390625 3.484375 -18.734375 Z M 44.9375 -29.78125 C 44.25 -32.238281 43.1875 -34.742188 41.75 -37.296875 C 40.320312 -39.859375 38.582031 -42.113281 36.53125 -44.0625 C 34.488281 -46.007812 32.171875 -47.441406 29.578125 -48.359375 C 26.984375 -49.285156 24.253906 -49.375 21.390625 -48.625 C 18.523438 -47.875 16.222656 -46.457031 14.484375 -44.375 C 12.742188 -42.289062 11.460938 -39.898438 10.640625 -37.203125 C 9.828125 -34.515625 9.421875 -31.6875 9.421875 -28.71875 C 9.421875 -25.75 9.757812 -23.035156 10.4375 -20.578125 C 11.125 -18.117188 12.179688 -15.59375 13.609375 -13 C 15.046875 -10.40625 16.785156 -8.148438 18.828125 -6.234375 C 20.878906 -4.328125 23.203125 -2.894531 25.796875 -1.9375 C 28.390625 -0.988281 31.117188 -0.921875 33.984375 -1.734375 C 36.847656 -2.484375 39.164062 -3.898438 40.9375 -5.984375 C 42.71875 -8.066406 44.015625 -10.457031 44.828125 -13.15625 C 45.648438 -15.851562 46.039062 -18.6875 46 -21.65625 C 45.96875 -24.625 45.613281 -27.332031 44.9375 -29.78125 Z M 44.9375 -29.78125 "/></g></g></g><g fill="#292929" fill-opacity="1"><g transform="translate(206.296579, 248.596786)"><g><path d="M 3.484375 -18.734375 C 2.597656 -22.078125 2.390625 -25.382812 2.859375 -28.65625 C 3.335938 -31.9375 4.378906 -34.957031 5.984375 -37.71875 C 7.585938 -40.476562 9.6875 -42.878906 12.28125 -44.921875 C 14.875 -46.972656 17.84375 -48.445312 21.1875 -49.34375 C 24.53125 -50.226562 27.835938 -50.429688 31.109375 -49.953125 C 34.390625 -49.472656 37.425781 -48.429688 40.21875 -46.828125 C 43.019531 -45.222656 45.441406 -43.125 47.484375 -40.53125 C 49.535156 -37.9375 51.003906 -34.96875 51.890625 -31.625 C 52.785156 -28.28125 52.992188 -24.96875 52.515625 -21.6875 C 52.035156 -18.414062 50.992188 -15.398438 49.390625 -12.640625 C 47.785156 -9.878906 45.6875 -7.472656 43.09375 -5.421875 C 40.5 -3.378906 37.53125 -1.914062 34.1875 -1.03125 C 30.84375 -0.132812 27.53125 0.0703125 24.25 -0.40625 C 20.976562 -0.882812 17.941406 -1.925781 15.140625 -3.53125 C 12.347656 -5.132812 9.925781 -7.234375 7.875 -9.828125 C 5.832031 -12.421875 4.367188 -15.390625 3.484375 -18.734375 Z M 44.9375 -29.78125 C 44.25 -32.238281 43.1875 -34.742188 41.75 -37.296875 C 40.320312 -39.859375 38.582031 -42.113281 36.53125 -44.0625 C 34.488281 -46.007812 32.171875 -47.441406 29.578125 -48.359375 C 26.984375 -49.285156 24.253906 -49.375 21.390625 -48.625 C 18.523438 -47.875 16.222656 -46.457031 14.484375 -44.375 C 12.742188 -42.289062 11.460938 -39.898438 10.640625 -37.203125 C 9.828125 -34.515625 9.421875 -31.6875 9.421875 -28.71875 C 9.421875 -25.75 9.757812 -23.035156 10.4375 -20.578125 C 11.125 -18.117188 12.179688 -15.59375 13.609375 -13 C 15.046875 -10.40625 16.785156 -8.148438 18.828125 -6.234375 C 20.878906 -4.328125 23.203125 -2.894531 25.796875 -1.9375 C 28.390625 -0.988281 31.117188 -0.921875 33.984375 -1.734375 C 36.847656 -2.484375 39.164062 -3.898438 40.9375 -5.984375 C 42.71875 -8.066406 44.015625 -10.457031 44.828125 -13.15625 C 45.648438 -15.851562 46.039062 -18.6875 46 -21.65625 C 45.96875 -24.625 45.613281 -27.332031 44.9375 -29.78125 Z M 44.9375 -29.78125 "/></g></g></g><g fill="#292929" fill-opacity="1"><g transform="translate(261.668734, 248.596786)"><g><path d="M 44.109375 -27.640625 C 43.640625 -24.222656 42.957031 -21.097656 42.0625 -18.265625 C 41.175781 -15.429688 40.15625 -12.925781 39 -10.75 C 36.8125 -6.789062 34.320312 -3.890625 31.53125 -2.046875 L 30.296875 -1.328125 C 28.523438 -0.304688 26.648438 0.335938 24.671875 0.609375 C 22.691406 0.890625 20.710938 0.859375 18.734375 0.515625 C 15.179688 -0.0976562 12.257812 -1.257812 9.96875 -2.96875 C 7.6875 -4.675781 5.945312 -6.722656 4.75 -9.109375 C 3.5625 -11.492188 2.863281 -14.117188 2.65625 -16.984375 C 2.457031 -19.859375 2.695312 -22.742188 3.375 -25.640625 C 4.0625 -28.535156 5.117188 -31.347656 6.546875 -34.078125 C 7.984375 -36.816406 9.722656 -39.242188 11.765625 -41.359375 C 14.296875 -43.953125 17.265625 -46.046875 20.671875 -47.640625 C 24.085938 -49.242188 27.84375 -50.015625 31.9375 -49.953125 C 33.707031 -50.015625 35.597656 -49.859375 37.609375 -49.484375 C 39.628906 -49.109375 41.796875 -48.445312 44.109375 -47.5 L 44.109375 -65.203125 C 43.835938 -66.972656 43.476562 -68.128906 43.03125 -68.671875 C 42.59375 -69.222656 42.238281 -69.5 41.96875 -69.5 L 41.65625 -70.421875 L 51.28125 -74 L 51.28125 -8.90625 C 51.28125 -7.195312 51.363281 -5.832031 51.53125 -4.8125 C 51.707031 -3.789062 51.929688 -2.988281 52.203125 -2.40625 C 52.472656 -1.820312 52.742188 -1.445312 53.015625 -1.28125 C 53.296875 -1.113281 53.503906 -1.03125 53.640625 -1.03125 L 53.640625 -0.109375 L 44.109375 -0.109375 Z M 44.109375 -46.671875 C 39.816406 -48.378906 35.722656 -49.234375 31.828125 -49.234375 C 28.210938 -49.097656 25.09375 -48.140625 22.46875 -46.359375 C 19.84375 -44.585938 17.640625 -42.164062 15.859375 -39.09375 C 14.628906 -36.84375 13.65625 -34.128906 12.9375 -30.953125 C 12.226562 -27.785156 11.875 -24.5625 11.875 -21.28125 C 11.875 -18.007812 12.316406 -14.875 13.203125 -11.875 C 14.085938 -8.875 15.488281 -6.414062 17.40625 -4.5 C 19.175781 -2.726562 21.117188 -1.585938 23.234375 -1.078125 C 25.347656 -0.566406 27.566406 -0.890625 29.890625 -2.046875 C 31.253906 -2.796875 32.460938 -3.695312 33.515625 -4.75 C 34.578125 -5.8125 35.550781 -7.023438 36.4375 -8.390625 C 38.207031 -10.921875 39.625 -13.753906 40.6875 -16.890625 C 41.75 -20.023438 42.550781 -23.195312 43.09375 -26.40625 C 43.363281 -27.769531 43.566406 -29.238281 43.703125 -30.8125 C 43.910156 -32.925781 44.015625 -35.175781 44.015625 -37.5625 L 44.109375 -37.5625 Z M 44.109375 -46.671875 "/></g></g></g></svg>