<svg xmlns="http://www.w3.org/2000/svg" xmlns:xlink="http://www.w3.org/1999/xlink" width="500" zoomAndPan="magnify" viewBox="0 0 375 187.499995" height="250" preserveAspectRatio="xMidYMid meet" version="1.0"><defs><clipPath id="a13243c584"><path d="M 0.5 0 L 374.5 0 L 374.5 187 L 0.5 187 Z M 0.5 0 " clip-rule="nonzero"/></clipPath><clipPath id="65ed652d41"><path d="M 45 0 L 129.691406 0 L 129.691406 187 L 45 187 Z M 45 0 " clip-rule="nonzero"/></clipPath><clipPath id="e82910b75f"><path d="M 0.5 0 L 85 0 L 85 187 L 0.5 187 Z M 0.5 0 " clip-rule="nonzero"/></clipPath><clipPath id="1bdc860bf4"><path d="M 288 0 L 374.492188 0 L 374.492188 186.996094 L 288 186.996094 Z M 288 0 " clip-rule="nonzero"/></clipPath><clipPath id="773455c1f0"><path d="M 272 0 L 360 0 L 360 186.996094 L 272 186.996094 Z M 272 0 " clip-rule="nonzero"/></clipPath><clipPath id="ead6d2b64b"><path d="M 257 0 L 344 0 L 344 186.996094 L 257 186.996094 Z M 257 0 " clip-rule="nonzero"/></clipPath><clipPath id="6302e3ff78"><path d="M 242.09375 0 L 329 0 L 329 186.996094 L 242.09375 186.996094 Z M 242.09375 0 " clip-rule="nonzero"/></clipPath></defs><g clip-path="url(#a13243c584)"><path fill="#ffffff" d="M 0.5 0 L 374.5 0 L 374.5 187 L 0.5 187 Z M 0.5 0 " fill-opacity="1" fill-rule="nonzero"/><path fill="#ffffff" d="M 0.5 0 L 374.5 0 L 374.5 187 L 0.5 187 Z M 0.5 0 " fill-opacity="1" fill-rule="nonzero"/></g><g clip-path="url(#65ed652d41)"><path fill="#006434" d="M 54.84375 186.898438 L 54.886719 138.445312 C 54.878906 135.660156 55.957031 133.054688 57.914062 131.09375 C 59.871094 129.128906 62.476562 128.050781 65.25 128.050781 L 67.550781 128.050781 C 84.125 128.050781 99.714844 121.601562 111.449219 109.890625 C 123.179688 98.183594 129.660156 82.605469 129.691406 66.03125 L 129.691406 0.0898438 L 120.351562 0.0898438 L 120.351562 66.023438 C 120.296875 95.070312 96.609375 118.710938 67.550781 118.710938 L 65.25 118.710938 C 59.980469 118.710938 55.027344 120.765625 51.304688 124.492188 C 47.582031 128.222656 45.535156 133.179688 45.542969 138.449219 L 45.503906 186.890625 Z M 54.84375 186.898438 " fill-opacity="1" fill-rule="nonzero"/></g><path fill="#c0c0c0" d="M 39.601562 186.914062 L 39.804688 138.234375 C 39.855469 124.378906 51.167969 113.105469 65.023438 113.105469 L 66 113.105469 C 92.8125 113.105469 114.671875 91.292969 114.726562 64.480469 L 114.734375 0.0898438 L 105.390625 0.0898438 L 105.386719 64.46875 C 105.34375 86.132812 87.671875 103.765625 66 103.765625 L 65.023438 103.765625 C 46.035156 103.765625 30.535156 119.210938 30.464844 138.199219 L 30.261719 186.875 Z M 39.601562 186.914062 " fill-opacity="1" fill-rule="nonzero"/><path fill="#e7e7e7" d="M 15.535156 186.894531 L 24.875 186.890625 L 24.863281 138.484375 C 24.824219 127.710938 28.984375 117.59375 36.574219 109.976562 C 44.167969 102.355469 54.269531 98.160156 65.027344 98.160156 C 83.984375 98.160156 99.460938 82.738281 99.523438 63.777344 L 99.617188 0.09375 L 90.277344 0.0820312 L 90.179688 63.753906 C 90.136719 77.574219 78.851562 88.820312 65.027344 88.820312 C 51.769531 88.820312 39.316406 93.992188 29.957031 103.382812 C 20.601562 112.773438 15.476562 125.246094 15.523438 138.5 Z M 15.535156 186.894531 " fill-opacity="1" fill-rule="nonzero"/><g clip-path="url(#e82910b75f)"><path fill="#ff8200" d="M 9.824219 186.898438 L 9.867188 138.4375 C 9.839844 123.683594 15.558594 109.824219 25.972656 99.390625 C 36.382812 88.960938 50.234375 83.214844 64.972656 83.214844 C 75.71875 83.214844 84.496094 74.472656 84.535156 63.726562 L 84.65625 0.0976562 L 75.316406 0.078125 L 75.191406 63.699219 C 75.171875 69.308594 70.589844 73.875 64.972656 73.875 C 47.738281 73.875 31.539062 80.59375 19.359375 92.792969 C 7.183594 104.992188 0.496094 121.203125 0.523438 138.441406 L 0.484375 186.890625 Z M 9.824219 186.898438 " fill-opacity="1" fill-rule="nonzero"/></g><g clip-path="url(#1bdc860bf4)"><path fill="#006434" d="M 297.828125 -4.433594 L 297.867188 45.195312 C 297.863281 48.046875 298.964844 50.714844 300.972656 52.726562 C 302.976562 54.734375 305.644531 55.84375 308.484375 55.84375 L 310.84375 55.84375 C 327.820312 55.84375 343.789062 62.445312 355.804688 74.441406 C 367.820312 86.433594 374.457031 102.386719 374.492188 119.363281 L 374.488281 186.90625 L 364.921875 186.90625 L 364.925781 119.375 C 364.867188 89.621094 340.605469 65.410156 310.84375 65.410156 L 308.484375 65.410156 C 303.085938 65.410156 298.015625 63.304688 294.199219 59.484375 C 290.386719 55.664062 288.292969 50.585938 288.300781 45.191406 L 288.261719 -4.425781 Z M 297.828125 -4.433594 " fill-opacity="1" fill-rule="nonzero"/></g><g clip-path="url(#773455c1f0)"><path fill="#c0c0c0" d="M 282.214844 -4.449219 L 282.421875 45.410156 C 282.476562 59.601562 294.0625 71.148438 308.253906 71.148438 L 309.253906 71.148438 C 336.714844 71.148438 359.105469 93.492188 359.164062 120.953125 L 359.167969 186.90625 L 349.601562 186.90625 L 349.597656 120.964844 C 349.550781 98.773438 331.453125 80.714844 309.253906 80.714844 L 308.253906 80.714844 C 288.804688 80.714844 272.925781 64.894531 272.855469 45.445312 L 272.648438 -4.410156 Z M 282.214844 -4.449219 " fill-opacity="1" fill-rule="nonzero"/></g><g clip-path="url(#ead6d2b64b)"><path fill="#e7e7e7" d="M 257.5625 -4.429688 L 267.128906 -4.425781 L 267.121094 45.15625 C 267.078125 56.1875 271.339844 66.550781 279.117188 74.355469 C 286.890625 82.15625 297.238281 86.453125 308.257812 86.453125 C 327.675781 86.453125 343.523438 102.253906 343.589844 121.671875 L 343.6875 186.898438 L 334.121094 186.914062 L 334.019531 121.695312 C 333.972656 107.542969 322.417969 96.023438 308.253906 96.023438 C 294.675781 96.023438 281.921875 90.726562 272.339844 81.105469 C 262.753906 71.488281 257.503906 58.714844 257.550781 45.136719 Z M 257.5625 -4.429688 " fill-opacity="1" fill-rule="nonzero"/></g><g clip-path="url(#6302e3ff78)"><path fill="#ff8200" d="M 251.714844 -4.433594 L 251.757812 45.203125 C 251.730469 60.3125 257.589844 74.511719 268.253906 85.195312 C 278.917969 95.878906 293.105469 101.761719 308.203125 101.761719 C 319.210938 101.761719 328.195312 110.71875 328.234375 121.722656 L 328.363281 186.894531 L 318.796875 186.914062 L 318.667969 121.75 C 318.648438 116.007812 313.953125 111.328125 308.203125 111.328125 C 290.546875 111.328125 273.957031 104.449219 261.484375 91.953125 C 249.011719 79.457031 242.160156 62.855469 242.191406 45.199219 L 242.148438 -4.425781 Z M 251.714844 -4.433594 " fill-opacity="1" fill-rule="nonzero"/></g></svg>